<svg width="60" height="42" viewBox="0 0 60 42" fill="none" xmlns="http://www.w3.org/2000/svg">
<g clip-path="url(#clip0_1853_157)">
<path d="M56.4007 7.19784H54.5529V4.0448C54.5529 3.63417 54.2198 3.30315 53.8112 3.30315H47.5973C47.1867 3.30315 46.8557 3.63417 46.8557 4.0448V7.19784H45.6657L41.4588 2.61807C40.4847 1.53284 39.081 0.424561 36.0599 0.424561H30.9229C27.9018 0.424561 26.4981 1.53284 25.5302 2.61179L21.6816 6.80188V4.1705C21.6816 3.76197 21.3506 3.42886 20.94 3.42886H13.2973C12.8866 3.42886 12.5556 3.75987 12.5556 4.1705V7.19784H11.4494V4.1705C11.4494 3.76197 11.1184 3.42886 10.7078 3.42886H3.06086C2.65023 3.42886 2.31921 3.75987 2.31921 4.1705V7.43249C0.965816 7.94787 0 9.25937 0 10.7992V37.9762C0 39.9623 1.6048 41.5775 3.58043 41.5775H56.4007C58.3868 41.5775 60 39.9623 60 37.9762V10.7992C60 8.81312 58.3847 7.19784 56.4007 7.19784ZM48.339 4.78644H53.0696V6.92758H48.339V4.78644ZM14.0368 4.91215H20.1962V6.80397H14.0368V4.91215ZM3.80251 4.91215H9.96194V6.80397H3.80251V4.91215ZM1.48329 14.233H13.2197C13.3915 15.5508 14.5187 16.5732 15.8825 16.5732C17.2464 16.5732 18.3735 15.5508 18.5453 14.233H22.3667C20.1962 16.8518 18.8889 20.2102 18.8889 23.8681C18.8889 29.0282 21.491 33.5912 25.4485 36.3211H1.48329V14.233ZM14.6779 13.8852C14.6779 13.3615 15.0152 12.9173 15.4824 12.7518C15.6081 12.7078 15.7422 12.6806 15.8846 12.6806C16.0271 12.6806 16.1612 12.7057 16.2869 12.7518C16.7541 12.9173 17.0914 13.3636 17.0914 13.8852C17.0914 14.0067 17.0725 14.1241 17.039 14.2351C16.8882 14.7295 16.4293 15.092 15.8846 15.092C15.3399 15.092 14.8811 14.7295 14.7303 14.2351C14.6967 14.1241 14.6779 14.0067 14.6779 13.8852ZM24.3717 14.233C24.9143 13.6904 25.5051 13.196 26.1336 12.7497C28.3606 11.168 31.0758 10.2357 34.0089 10.2357C36.9419 10.2357 39.6571 11.17 41.8841 12.7497C42.5127 13.196 43.1035 13.6904 43.6461 14.233C46.114 16.701 47.6434 20.1096 47.6434 23.8681C47.6434 29.4137 44.3144 34.1925 39.5503 36.3211C37.8554 37.0774 35.9824 37.5027 34.0089 37.5027C32.0353 37.5027 30.1624 37.0774 28.4675 36.3211C23.7033 34.1925 20.3743 29.4137 20.3743 23.8681C20.3743 20.1096 21.9037 16.701 24.3717 14.233ZM58.5167 37.9741C58.5167 39.141 57.5676 40.0921 56.4007 40.0921H3.58043C2.42397 40.0921 1.48329 39.1431 1.48329 37.9741V37.8044H28.1511C29.9529 38.5649 31.9327 38.986 34.0089 38.986C36.0851 38.986 38.0628 38.5649 39.8666 37.8044H58.5188V37.9741H58.5167ZM58.5167 36.3211H42.565C46.5226 33.5933 49.1246 29.0303 49.1246 23.8681C49.1246 20.2102 47.8173 16.8497 45.6468 14.233H58.5167V36.3211ZM58.5167 12.7497H44.2369C41.5426 10.2692 37.9496 8.75027 34.0089 8.75027C30.0681 8.75027 26.473 10.2692 23.7809 12.7497H18.3191C17.8896 11.8342 16.9615 11.1973 15.8846 11.1973C14.8078 11.1973 13.8797 11.8342 13.4502 12.7497H1.48329V10.7992C1.48329 9.63228 2.42397 8.68113 3.58043 8.68113H21.6418C21.8492 8.68113 22.0483 8.59314 22.1886 8.4402L26.6259 3.60693C27.42 2.72283 28.4905 1.90576 30.9208 1.90576H36.0578C38.4881 1.90576 39.5586 2.72283 40.3589 3.61322L44.7921 8.4402C44.9324 8.59314 45.1315 8.68113 45.3389 8.68113H56.4007C57.5676 8.68113 58.5167 9.63019 58.5167 10.7992V12.7497Z" fill="#645050"/>
<path d="M34.0089 34.8231C40.1286 34.8231 45.1085 29.8453 45.1085 23.7236C45.1085 19.7074 42.9632 16.1814 39.7598 14.233C38.5342 13.4872 37.1515 12.9739 35.6766 12.7497C35.134 12.668 34.5767 12.624 34.011 12.624C33.4454 12.624 32.8881 12.668 32.3455 12.7497C30.8706 12.9739 29.4878 13.4872 28.2622 14.233C25.0589 16.1814 22.9136 19.7074 22.9136 23.7236C22.9136 29.8432 27.8914 34.8231 34.0131 34.8231H34.0089ZM32.4649 14.233C32.9677 14.1513 33.4831 14.1073 34.0068 14.1073C34.5306 14.1073 35.046 14.1513 35.5488 14.233C40.1202 14.9726 43.621 18.9469 43.621 23.7236C43.621 29.0261 39.3073 33.3398 34.0068 33.3398C28.7064 33.3398 24.3906 29.0261 24.3906 23.7236C24.3906 18.9469 27.8935 14.9747 32.4628 14.233H32.4649Z" fill="#645050"/>
<path d="M37.3631 4.69214H30.1142C29.7036 4.69214 29.3726 5.02525 29.3726 5.43378C29.3726 5.84232 29.7036 6.17543 30.1142 6.17543H37.3631C37.7737 6.17543 38.1047 5.84441 38.1047 5.43378C38.1047 5.02316 37.7737 4.69214 37.3631 4.69214Z" fill="#645050"/>
<path d="M32.5819 30.39C32.5819 30.39 32.5882 30.3942 32.5924 30.3963L33.4619 30.9557C33.5834 31.0332 33.7237 31.073 33.862 31.073C34.0003 31.073 34.1449 31.0332 34.2685 30.9515L34.8781 30.5513C39.2316 27.6141 41.4398 24.792 41.4398 22.169C41.4398 21.4379 41.333 20.9581 41.0396 20.3443C40.3818 18.9343 39.1059 17.9811 37.631 17.7946C36.242 17.6186 34.8551 18.1382 33.8662 19.192C32.9695 18.2052 31.7272 17.7024 30.2942 17.7653C28.7857 17.8658 27.4931 18.6515 26.829 19.8792C25.8883 21.6641 26.146 23.6502 27.5978 25.7809C28.6391 27.2998 30.4555 28.98 32.584 30.3921L32.5819 30.39ZM28.1363 20.5768C28.5511 19.8079 29.3954 19.3114 30.3759 19.2465C31.5072 19.1941 32.4311 19.6424 33.045 20.5391C33.0575 20.558 33.0722 20.5768 33.0869 20.5957C33.1246 20.6418 33.156 20.6816 33.1728 20.7067C33.2922 20.956 33.5478 21.1299 33.8432 21.1299C34.1532 21.1299 34.4465 20.9434 34.589 20.6564C34.589 20.6543 34.5911 20.6501 34.5932 20.648C34.6351 20.5852 34.7482 20.4406 34.8069 20.3631C35.4878 19.5377 36.4473 19.1375 37.4425 19.2632C38.425 19.3889 39.2463 20.0112 39.6988 20.977C39.8999 21.3939 39.9565 21.662 39.9565 22.167C39.9565 24.239 37.9138 26.7111 34.0569 29.3152L33.8578 29.4451L33.3969 29.1497C31.4234 27.8403 29.7557 26.3047 28.8192 24.9408C27.6858 23.2773 27.4638 21.8464 28.1342 20.5747L28.1363 20.5768Z" fill="#645050"/>
</g>
<defs>
<clipPath id="clip0_1853_157">
<rect width="60" height="41.1509" fill="white" transform="translate(0 0.424561)"/>
</clipPath>
</defs>
</svg>
