<svg width="187" height="168" viewBox="0 0 187 168" fill="none" xmlns="http://www.w3.org/2000/svg">
<g clip-path="url(#clip0_1863_249)">
<path d="M177.094 74.4526C177.369 72.564 176.895 70.6823 175.764 69.167C174.838 67.9201 173.563 67.0351 172.074 66.5989C169.941 65.9742 167.601 66.4011 165.817 67.7405L160.043 72.0871C159.637 71.9148 159.216 71.7557 158.758 71.6215C154.809 70.4647 150.52 71.2964 147.278 73.8508L128.017 89.0359C126.814 89.992 125.798 91.1522 125.013 92.439C123.771 91.4625 122.335 90.7028 120.726 90.2314L93.4532 82.2424C91.8986 81.787 90.2831 81.6409 88.698 81.7953L89.9027 68.1801C90.2522 64.2372 88.74 60.4628 86.0412 57.8281C89.3478 57.2559 92.3831 55.4264 94.3147 52.5121L104.856 36.6049C106.628 33.9296 107.232 30.7156 106.553 27.5541C105.836 24.2208 103.809 21.3545 100.83 19.4943C98.0071 17.7275 94.7516 17.1546 91.7011 17.6412C91.1512 17.1529 90.5409 16.6886 89.8617 16.2576C83.8994 12.5717 76.0098 14.1512 72.2778 19.7744L61.7517 35.6918C60.925 36.9369 60.356 38.2931 60.0385 39.7409L47.7221 36.1331C43.413 34.8708 38.9586 36.005 35.774 38.7486C35.722 38.7036 35.6717 38.6532 35.6181 38.6137L28.2387 33.4776C27.8659 33.2137 27.3868 33.1507 26.9569 33.3043C26.5269 33.458 26.1938 33.8066 26.0638 34.2504L22.0515 47.9474C21.9231 48.3857 22.0139 48.8644 22.293 49.2257C22.4778 49.4643 22.7303 49.6334 23.0139 49.7165C23.1612 49.7597 23.3094 49.7793 23.4657 49.7715L31.3594 49.4723C31.7602 54.6344 35.269 59.2554 40.5 60.7877L59.5909 66.38C61.1455 66.8354 62.761 66.9815 64.3461 66.8271L63.1376 80.4352C63.0804 81.055 63.0755 81.6782 63.1159 82.3087C58.8353 81.2928 54.3097 82.5489 51.162 85.6721L30.3034 106.332C25.3012 111.298 25.2413 119.448 30.176 124.499C31.6862 126.036 33.5853 127.175 35.6798 127.789C35.9198 127.859 36.1521 127.915 36.3844 127.971C36.9663 129.867 37.9996 131.657 39.4818 133.168C41.0068 134.715 42.9059 135.854 44.9786 136.461C49.4404 137.768 54.2657 136.541 57.5771 133.263L78.434 112.608C80.612 110.45 81.8582 107.692 82.1678 104.856C83.3806 105.771 84.7551 106.477 86.2224 106.906L106.753 112.921C106.4 113.763 106.117 114.668 105.938 115.644L101.443 141.098C100.31 147.554 104.181 153.809 110.443 155.644C110.874 155.77 111.318 155.87 111.746 155.966C111.762 155.971 111.784 155.977 111.8 155.982C113.314 156.253 114.809 156.245 116.259 155.967C117.665 157.272 119.379 158.274 121.332 158.846C121.79 158.98 122.262 159.088 122.724 159.17C126.086 159.762 129.483 159.002 132.288 157.028C135.087 155.058 136.963 152.109 137.556 148.732L142.05 123.278C142.824 118.9 141.292 114.626 138.284 111.752C140.25 111.37 142.127 110.522 143.743 109.252L162.989 94.0749C166.1 91.643 167.898 87.9103 167.901 83.9788L174.295 79.1769C175.812 78.0391 176.799 76.3708 177.07 74.4752L177.094 74.4526ZM96.712 20.7331C97.612 20.9968 98.4931 21.3857 99.3231 21.9085C101.64 23.3605 103.223 25.5791 103.771 28.155C104.288 30.5552 103.829 32.9907 102.482 35.0232L91.9411 50.9304C89.0428 55.3046 82.8972 56.4907 78.2417 53.5802C75.9194 52.1266 74.3381 49.9025 73.7897 47.3265C73.2782 44.928 73.737 42.4925 75.0774 40.4639L85.6129 24.5551C87.9918 20.9628 92.565 19.5243 96.6995 20.7354L96.712 20.7331ZM64.1301 37.2571L74.6562 21.3396C77.541 16.9912 83.6774 15.7964 88.3364 18.6544C86.3235 19.5817 84.5454 21.0419 83.2611 22.9798L72.7256 38.8886C71.7385 40.3782 71.128 42.0376 70.885 43.757C69.6831 42.8457 68.3179 42.1484 66.8342 41.7138L62.7924 40.5298C63.0226 39.3598 63.4694 38.2593 64.1356 37.2587L64.1301 37.2571ZM25.3514 46.8319L28.2499 36.9372L33.8435 40.8304C32.9712 42.0085 32.2905 43.3618 31.854 44.852C31.6839 45.4328 31.5606 46.0154 31.4733 46.5966L25.3514 46.8319ZM41.3181 58.035C36.0545 56.4932 33.0325 50.938 34.5813 45.651C36.13 40.3639 41.6717 37.3173 46.9354 38.8592L60.8118 42.9241L66.0209 44.45C68.0172 45.0348 69.7286 46.2083 71.0013 47.8483C71.0058 47.8734 71.0103 47.8985 71.0148 47.9236C71.3727 49.593 72.0573 51.138 73.0252 52.5042C73.2012 53.5612 73.2059 54.6572 73.0216 55.7513C72.9365 56.1428 72.8605 56.4834 72.7593 56.8286C71.7691 60.209 69.0431 62.843 65.6296 63.6992C63.8969 64.1553 62.1344 64.1268 60.4053 63.6203L41.3143 58.028L41.3181 58.035ZM67.2712 66.2027L67.2744 66.1917C71.2094 64.8696 74.3093 61.667 75.4905 57.6346C75.5338 57.4866 75.5685 57.3481 75.6032 57.2095C76.3899 57.0711 77.2219 57.0412 78.1117 57.1174C78.6832 57.148 79.2774 57.2626 79.981 57.4687L80.0738 57.4959C84.543 58.8586 87.4874 63.2429 87.0743 67.9286L85.7918 82.3955C85.7918 82.3955 85.7886 82.4065 85.787 82.412C81.8521 83.734 78.7522 86.9367 77.571 90.9691C77.5276 91.117 77.493 91.2556 77.4583 91.3942C76.6715 91.5325 75.8395 91.5625 74.9497 91.4862C74.3963 91.455 73.8168 91.3507 73.1404 91.1526C73.1241 91.1478 73.1077 91.143 73.0913 91.1382C73.0695 91.1318 73.0531 91.127 73.0313 91.1206C72.5295 90.9736 72.1573 90.8289 71.84 90.6586C71.84 90.6586 71.8345 90.657 71.8291 90.6554C71.8034 90.6419 71.7777 90.6285 71.7466 90.6134C69.0537 89.4141 66.9979 86.9498 66.2544 84.0491C65.9783 82.9093 65.8895 81.7768 65.991 80.6822L67.2751 66.2097L67.2712 66.2027ZM32.224 122.481C28.3833 118.548 28.4228 112.206 32.3144 108.343L53.1729 87.683C55.7398 85.1273 59.4953 84.1751 62.9699 85.1929C63.2372 85.2712 63.4685 85.3508 63.6873 85.4328C64.3475 87.506 65.5293 89.3751 67.0751 90.8512C64.6268 91.3238 62.3245 92.5114 60.4889 94.3295L39.6304 114.99C36.9204 117.67 35.6574 121.274 35.8406 124.814C34.4731 124.306 33.2305 123.514 32.2186 122.479L32.224 122.481ZM76.4507 110.564L55.5921 131.224C53.0143 133.777 49.2643 134.73 45.7952 133.714C44.1861 133.243 42.7099 132.358 41.5228 131.154C37.6718 127.236 37.7206 120.903 41.6334 117.028L62.4919 96.3677C65.0524 93.834 68.7736 92.8776 72.2218 93.8639C72.2382 93.8687 72.26 93.8751 72.2764 93.8799C72.2982 93.8862 72.3145 93.891 72.3364 93.8974C73.9259 94.375 75.3873 95.2492 76.5596 96.4433C77.928 97.8376 78.7925 99.5365 79.1816 101.322C79.1947 101.439 79.2149 101.552 79.2585 101.666C79.8197 104.805 78.8844 108.16 76.4561 110.566L76.4507 110.564ZM81.9472 100.615C81.6047 99.0753 80.9759 97.5823 80.0571 96.2305C79.8634 95.1327 79.8465 93.9974 80.0344 92.8508C80.1211 92.4538 80.1971 92.1132 80.2998 91.7625C81.2901 88.3821 84.0161 85.7481 87.4296 84.892C89.1623 84.4358 90.9248 84.4643 92.6539 84.9708L119.927 92.9599C121.71 93.4824 123.226 94.4737 124.405 95.7471C124.405 95.7471 124.405 95.7471 124.411 95.7487C126.707 98.2417 127.689 101.843 126.665 105.338C126.566 105.678 126.449 105.995 126.322 106.309C126.293 106.366 126.27 106.424 126.245 106.489C126.038 106.975 125.79 107.438 125.503 107.871C125.201 108.354 124.861 108.808 124.491 109.223C123.678 109.573 122.888 110.003 122.142 110.528C121.546 110.948 120.999 111.418 120.49 111.923C118.547 112.633 116.388 112.744 114.304 112.134L87.0313 104.145C84.9695 103.541 83.2186 102.32 81.9363 100.612L81.9472 100.615ZM112.357 153.153C111.98 153.066 111.59 152.982 111.257 152.884C106.386 151.457 103.376 146.59 104.254 141.57L108.744 116.133C108.912 115.236 109.17 114.437 109.507 113.709L113.5 114.879C114.995 115.317 116.518 115.454 118.013 115.344C117.476 116.43 117.085 117.601 116.868 118.828L112.373 144.282C111.806 147.512 112.485 150.692 114.093 153.292C113.517 153.296 112.936 153.257 112.35 153.157L112.357 153.153ZM139.27 122.761L134.775 148.215C134.313 150.845 132.855 153.131 130.677 154.664C128.498 156.198 125.856 156.786 123.242 156.329C122.882 156.266 122.515 156.182 122.155 156.077C120.459 155.58 118.999 154.658 117.839 153.462C117.783 153.392 117.723 153.333 117.657 153.277C115.618 151.056 114.616 147.949 115.179 144.771L119.674 119.317C120.007 117.433 120.855 115.731 122.107 114.348C123.589 113.718 124.951 112.808 126.105 111.659C126.418 111.542 126.736 111.445 127.055 111.366C127.093 111.359 127.132 111.347 127.171 111.335C128.477 111.021 129.843 110.969 131.206 111.208C131.566 111.272 131.927 111.354 132.293 111.461C137.153 112.884 140.154 117.743 139.269 122.767L139.27 122.761ZM161.262 91.8022L142.009 106.983C139.491 108.965 136.15 109.616 133.079 108.716C131.65 108.298 130.343 107.564 129.245 106.582C129.288 106.434 129.346 106.296 129.389 106.148C130.612 101.973 129.616 97.672 127.096 94.5067C127.738 93.2669 128.648 92.1595 129.768 91.268L149.022 76.0867C151.539 74.1054 154.879 73.4597 157.95 74.3593C158.544 74.5335 159.068 74.7464 159.518 74.9911C159.543 75.0046 159.569 75.0181 159.595 75.0315C160.88 75.6399 162.023 76.5696 162.982 77.7845C164.189 79.3457 164.927 81.2516 165.062 83.1769C165.062 83.2185 165.061 83.26 165.061 83.3016C165.058 83.3125 165.06 83.3251 165.062 83.3376C165.062 83.3376 165.061 83.3431 165.059 83.3486C165.258 86.6313 163.841 89.7914 161.261 91.8077L161.262 91.8022ZM172.62 76.8661L167.525 80.692C167.092 79.0183 166.325 77.4313 165.229 76.0157C164.491 75.0796 163.66 74.2769 162.754 73.6072L167.525 70.0194C168.595 69.2147 169.997 68.9589 171.279 69.3344C172.173 69.5965 172.935 70.129 173.493 70.8753C174.169 71.7813 174.454 72.9117 174.287 74.0468C174.12 75.1818 173.53 76.1867 172.626 76.8677L172.62 76.8661Z" fill="#9D7550"/>
</g>
<defs>
<clipPath id="clip0_1863_249">
<rect width="156.304" height="128.448" fill="white" transform="translate(36.1089) rotate(16.327)"/>
</clipPath>
</defs>
</svg>
