<svg width="245" height="257" viewBox="0 0 245 257" fill="none" xmlns="http://www.w3.org/2000/svg">
<g opacity="0.6" clip-path="url(#clip0_1728_207)">
<path d="M81.7753 139.719C80.7453 139.747 79.6483 139.696 78.509 139.571C68.5029 138.471 55.0076 131.439 49.5171 118.784C49.0992 117.818 48.7216 116.816 48.4015 115.787C48.037 114.606 46.7816 113.943 45.5929 114.312C44.4117 114.677 43.7491 115.932 44.1185 117.121C48.5147 131.287 61.7497 140.732 74.1042 143.426C76.7768 144.008 79.4076 144.277 81.899 144.205C83.1378 144.17 84.1144 143.139 84.08 141.9C84.0455 140.661 83.0128 139.691 81.7753 139.719Z" fill="#FCF9F7"/>
<path d="M42.772 98.39L42.3665 98.496C41.1665 98.7982 40.4399 100.02 40.7421 101.22C40.9584 102.071 41.6346 102.685 42.4388 102.86C42.7667 102.932 43.117 102.93 43.4662 102.845L43.8717 102.739C45.0717 102.436 45.7983 101.214 45.4899 100.013C45.1878 98.8131 43.9658 98.0865 42.7658 98.3887L42.772 98.39Z" fill="#FCF9F7"/>
<path d="M235.271 66.0963C231.998 51.5919 222.19 40.1924 209.036 35.6068C195.949 31.0422 181.276 33.8374 169.753 43.1131L169.349 43.4526C168.358 44.28 167.596 44.9238 166.998 45.4351L166.829 45.0224C161.11 30.7687 149.565 21.5697 134.314 19.1126C120.378 16.8968 107.083 21.5478 98.7511 31.5518C89.7651 42.2686 86.3894 55.3428 88.6422 70.571C86.234 72.7289 84.0862 75.2676 82.3059 78.1716C81.8984 78.8215 81.5443 79.4053 81.2387 79.9155C73.4121 71.1385 62.7474 67.4715 51.1902 69.5916C40.4954 71.472 31.9485 78.273 28.3272 87.8071C23.0458 101.982 26.8101 116.639 39.5276 131.369C49.1821 142.463 65.4653 154.393 83.0778 163.288L84.5244 164.025L83.4332 174.409C83.3756 174.941 83.5116 175.476 83.8183 175.912C84.8033 177.339 86.2996 178.145 88.0381 178.524C89.2259 178.783 90.5166 178.837 91.8356 178.762C92.3897 180.114 92.8005 181.351 93.0963 182.491C94.1579 186.598 93.6756 189.493 92.4917 192.1C91.7802 193.668 90.8135 195.13 89.7854 196.694C85.9591 202.502 81.6262 209.088 88.4866 224.109C88.7942 224.779 89.3838 225.225 90.052 225.371C90.5098 225.471 90.9986 225.428 91.4593 225.218C92.5822 224.704 93.0797 223.374 92.5676 222.245C91.87 220.719 91.3094 219.307 90.8578 217.99C88.1457 210.069 89.5883 205.653 91.8838 201.753C92.4009 200.868 92.962 200.018 93.5334 199.151C96.7604 194.249 100.387 188.734 96.3786 178.048C99.0141 177.404 101.286 176.494 102.327 175.911C104.674 174.601 104.447 173.055 104.18 172.348L100.967 163.456C101.538 163.6 102.109 163.744 102.685 163.87C112.973 166.113 123.767 164.935 131.918 161.495L124.139 177.822C123.91 178.31 123.862 178.856 124.001 179.379C125.082 183.335 129.262 185.504 133.906 186.62C133.596 197.284 131.344 202.853 128.963 208.723C126.133 215.695 123.201 222.904 123.087 238.433C123.078 239.513 123.834 240.417 124.849 240.638C124.997 240.67 125.155 240.692 125.311 240.687C126.547 240.697 127.561 239.7 127.571 238.464C127.68 223.79 130.447 216.986 133.119 210.407C135.508 204.532 137.961 198.456 138.372 187.386C142.502 187.853 146.345 187.673 148.046 187.364C150.827 186.855 151.381 185.505 151.321 184.41L151.186 165.385C156.82 172.745 166.535 179.224 177.59 181.635C181.475 182.482 185.528 182.828 189.624 182.529C190.361 182.476 191.029 182.058 191.402 181.419C202.72 161.937 206.457 146.849 203.896 130.957C203.89 130.923 203.876 130.901 203.87 130.867C203.845 130.745 203.812 130.628 203.767 130.508C203.75 130.465 203.735 130.416 203.712 130.373C203.646 130.229 203.561 130.087 203.466 129.956C203.46 129.955 203.456 129.941 203.451 129.933C203.36 129.816 203.249 129.701 203.129 129.597C203.118 129.589 203.101 129.578 203.09 129.569C203.051 129.541 203.012 129.513 202.972 129.485C202.872 129.412 202.762 129.349 202.645 129.291C202.621 129.286 202.606 129.263 202.583 129.251C201.636 128.838 200.691 128.476 199.76 128.169C219.866 114.362 231.75 99.54 235.209 83.8529C236.743 77.1169 236.761 72.6362 235.28 66.0853L235.271 66.0963ZM230.827 82.8779C227.408 98.3794 214.944 113.101 193.655 126.89C182.016 125.732 171.258 131.941 160.783 137.985C159.211 138.893 157.603 139.819 156.002 140.714C155.63 140.756 155.244 140.801 154.866 140.842C151.155 137.829 146.972 135.673 141.642 138.36C141.565 138.117 141.454 137.885 141.303 137.684C139.854 135.741 138.403 133.688 136.994 131.709C135.206 129.18 133.394 126.64 131.519 124.183C131.041 123.554 130.553 122.936 130.065 122.324C129.565 121.703 129.059 121.081 128.549 120.477C122.952 113.871 116.492 108.483 107.769 106.821C103.751 100.222 100.461 93.8214 98.1044 87.8962C95.9517 82.4626 94.4269 77.2697 93.5089 72.3256C93.358 71.5021 93.2243 70.6888 93.1091 69.8795C92.9905 69.0565 92.8904 68.2376 92.8013 67.4275C91.4541 54.5548 94.59 43.5021 102.207 34.4247C109.521 25.6438 121.263 21.5745 133.621 23.5369C134.417 23.665 135.195 23.8088 135.962 23.9761C148.434 26.6956 157.87 34.6895 162.688 46.6858L163.18 47.9077C163.768 49.3709 163.939 49.8036 164.078 50.0606C164.414 50.7172 165.029 51.1688 165.771 51.2984C166.777 51.4722 167.782 51.0239 168.687 49.9963C168.73 49.9473 168.737 49.9425 168.775 49.886C169.123 49.4822 171 47.915 172.238 46.8758L172.611 46.5618C183.041 38.1689 195.785 35.7179 207.572 39.824C219.437 43.9601 227.939 53.8889 230.911 67.0704C232.241 72.9468 232.227 76.7867 230.836 82.8669L230.827 82.8779ZM197.827 132.278C192.895 137.599 189.997 138.438 182.115 138.89C180.854 138.965 179.473 139.027 177.928 139.098C177.588 139.115 177.247 139.131 176.894 139.145C175.231 139.223 173.391 139.308 171.356 139.428C169.925 139.511 168.393 139.612 166.753 139.734C173.165 136.096 179.433 132.881 185.812 131.712C187.526 131.399 189.247 131.236 190.982 131.245C192.199 131.251 193.428 131.351 194.655 131.547C195.707 131.718 196.762 131.961 197.827 132.278ZM151.972 158.182C152.573 157.27 153.08 156.343 153.505 155.405C157.944 156.179 161.201 159.132 164.911 162.507C168.772 166.019 173.092 169.955 179.303 171.309C179.996 171.46 180.71 171.577 181.444 171.659C182.677 171.798 183.784 170.912 183.923 169.679C184.061 168.452 183.176 167.338 181.943 167.199C176.009 166.534 172.082 162.969 167.929 159.186C165.107 156.613 162.218 153.994 158.673 152.359C159.689 152.217 160.677 152.057 161.657 151.901C167.153 151.006 172.348 150.156 180.499 153.729C181.63 154.221 182.954 153.707 183.453 152.578C183.947 151.441 183.431 150.123 182.302 149.624C175.753 146.757 170.806 146.379 166.405 146.741C164.51 146.898 162.717 147.188 160.943 147.475C160.096 147.614 159.265 147.744 158.434 147.867C157.524 147.999 156.619 148.107 155.689 148.183L156.582 146.226L157.014 145.283C157.14 145.213 157.265 145.143 157.391 145.074C158.213 144.987 159.016 144.903 159.797 144.827C162.208 144.588 164.441 144.394 166.502 144.241C168.684 144.075 170.674 143.952 172.504 143.852C174.59 143.737 176.462 143.652 178.145 143.572C189.174 143.074 193.588 142.863 200.024 136.438C201.015 149.369 197.412 161.882 188.124 178.112C172.336 178.714 156.798 168.566 151.98 158.177L151.972 158.182ZM89.3993 174.213C88.9533 174.148 88.4226 174.026 88.0131 173.794L88.8063 166.203L89.055 163.814L89.3038 161.425L89.3197 161.292L89.497 159.588C89.6288 158.359 88.735 157.257 87.5003 157.124C86.2718 156.992 85.1696 157.886 85.0365 159.121L85.0219 159.247C67.9241 150.607 52.1802 139.086 42.9094 128.432C31.3523 115.037 27.8537 101.896 32.514 89.381C35.5664 81.3561 42.8332 75.611 51.9783 74.0018C55.9616 73.2696 59.7638 73.3081 63.3272 74.0851C68.9013 75.3005 73.8912 78.3328 78.0736 83.1072C78.7983 84.004 79.7779 85.099 80.1513 85.4073C80.7321 85.8644 81.5081 86.0207 82.2195 85.8194C83.3789 85.4954 83.9262 84.4417 84.1308 83.8901C84.2458 83.63 84.9374 82.4199 86.1139 80.5313C87.1682 78.817 88.3501 77.2602 89.635 75.8554C90.6257 80.2579 92.047 84.8256 93.9188 89.5564C96.0257 94.8438 98.8441 100.494 102.246 106.323C102.16 106.33 102.08 106.339 101.992 106.358C101.821 106.399 101.664 106.462 101.512 106.539C101.468 106.562 101.43 106.586 101.392 106.61C101.282 106.67 101.183 106.739 101.087 106.822C101.047 106.859 101.006 106.895 100.967 106.925C100.876 107.016 100.791 107.108 100.716 107.214C100.697 107.242 100.673 107.263 100.655 107.285C91.0988 121.481 87.7295 137.051 89.7247 157.771C89.7963 158.512 90.2309 159.165 90.8793 159.52C91.6433 159.939 92.4154 160.321 93.2039 160.688L92.8596 160.988L93.6917 160.917C94.2821 161.182 94.8751 161.434 95.4722 161.668C95.5031 161.675 95.5327 161.688 95.5561 161.7L96.3429 163.887L99.4054 172.37C97.2678 173.317 92.5632 174.682 89.3931 174.211L89.3993 174.213ZM141.761 148.483C141.925 147.819 142.125 147.143 142.349 146.44C142.777 145.134 143.306 143.746 143.971 142.212C146.495 141.039 148.521 141.526 151.763 144.106C151.617 145.072 151.48 146.027 151.313 146.969C151.244 147.375 151.17 147.774 151.089 148.178C151.059 148.314 151.029 148.45 151.006 148.587C150.811 149.51 150.58 150.419 150.303 151.305C150.167 151.722 150.018 152.137 149.857 152.549C149.636 153.117 149.385 153.671 149.104 154.219C148.531 155.332 147.817 156.407 146.918 157.436C146.856 157.513 146.795 157.584 146.727 157.66C145.357 157.789 143.899 157.672 141.129 156.135C141.112 155.918 141.106 155.709 141.093 155.499C141.085 155.328 141.077 155.158 141.069 154.988C141.035 153.924 141.06 152.886 141.167 151.86C141.204 151.511 141.248 151.164 141.299 150.813C141.383 150.248 141.488 149.674 141.62 149.1C141.665 148.896 141.709 148.692 141.767 148.485L141.761 148.483ZM125.021 126.136C124.633 126.013 124.244 125.896 123.861 125.78C122.519 125.364 121.22 124.964 119.971 124.536C118.565 124.061 117.225 123.549 115.954 122.96C114.048 122.072 112.311 120.999 110.764 119.567C108.969 117.899 107.443 115.745 106.233 112.824C105.994 112.254 105.769 111.654 105.557 111.018C106.395 111.129 107.211 111.281 108.005 111.474C109.181 111.756 110.314 112.12 111.404 112.558C117.171 114.879 121.8 119.271 126.083 124.534C126.579 125.141 127.067 125.759 127.551 126.39C127.743 126.639 127.94 126.896 128.132 127.145C127.837 127.042 127.539 126.951 127.243 126.854C126.499 126.608 125.753 126.374 125.02 126.142L125.021 126.136ZM99.2518 158.274C99.1913 158.254 99.1246 158.233 99.0641 158.213C98.3282 157.962 97.595 157.698 96.881 157.407C96.3926 157.209 95.9131 157.001 95.4349 156.787C94.9815 156.578 94.5294 156.362 94.0786 156.141C92.5752 138.873 94.9246 125.899 101.825 113.898C105.193 122.616 110.868 126.012 117.245 128.329C118.507 128.786 119.79 129.202 121.095 129.609C121.501 129.737 121.907 129.864 122.315 129.986C122.388 130.008 122.467 130.032 122.54 130.054C123.215 130.259 123.9 130.474 124.578 130.693C124.712 130.735 124.845 130.777 124.978 130.819C125.579 131.008 126.178 131.204 126.774 131.411C128.891 132.132 131.018 132.959 133.132 134.023C133.197 134.115 133.267 134.208 133.33 134.306C134.609 136.107 135.927 137.97 137.258 139.77L137.264 144.262C137.043 144.143 136.829 144.025 136.609 143.906C135.771 143.438 134.974 142.966 134.194 142.498C132.864 141.702 131.558 140.918 130.106 140.206C128.766 139.545 127.294 138.952 125.568 138.459C124.494 138.153 123.314 137.889 122.004 137.682C121.197 137.551 120.332 137.446 119.418 137.357C118.549 137.272 117.63 137.207 116.647 137.168C116.165 137.147 115.682 137.133 115.173 137.119C113.933 137.101 112.915 138.085 112.897 139.325C112.887 139.906 113.109 140.434 113.461 140.841C113.86 141.298 114.444 141.593 115.096 141.606C115.328 141.611 115.54 141.619 115.765 141.629C116.763 141.658 117.698 141.707 118.57 141.78C125.217 142.355 128.348 144.223 131.883 146.349C132.204 146.542 132.531 146.736 132.864 146.932C129.153 147.043 125.607 148.175 122.136 149.291C117.908 150.644 113.861 151.933 109.558 151.487C108.684 151.394 107.805 151.234 106.907 150.986C106.626 150.906 106.338 150.83 106.049 150.728C104.871 150.335 103.606 150.967 103.213 152.145C102.968 152.882 103.128 153.662 103.574 154.232C103.838 154.569 104.195 154.834 104.629 154.981C104.986 155.098 105.338 155.207 105.693 155.304C106.066 155.405 106.441 155.499 106.806 155.579C112.993 156.928 118.547 155.145 123.507 153.556C128.224 152.044 132.368 150.725 136.659 151.79C136.606 152.388 136.574 152.984 136.565 153.591C129.334 159.674 114.796 162.479 101.733 159.022C100.893 158.8 100.061 158.547 99.2381 158.277L99.2518 158.274ZM137.632 159.902C137.693 159.767 137.743 159.629 137.78 159.488C137.788 159.451 137.795 159.42 137.802 159.389C137.82 159.393 137.829 159.414 137.841 159.417C137.927 159.468 138.013 159.519 138.099 159.57C140.343 160.902 142.103 161.597 143.606 161.925C144.745 162.173 145.735 162.207 146.686 162.156C146.682 162.206 146.671 162.256 146.674 162.302L146.819 183.033C143.888 183.43 136.027 183.311 131.215 180.946C130.291 180.492 129.174 179.788 128.606 178.854L137.633 159.896L137.632 159.902Z" fill="#FCF9F7"/>
<path d="M216.027 54.8751C207.614 46.1128 194.51 43.586 183.418 48.5943C182.289 49.1063 181.787 50.429 182.299 51.5581C182.805 52.6859 184.134 53.1895 185.263 52.6775C194.629 48.4467 205.687 50.5791 212.802 57.9826C219.907 65.3126 221.572 76.3428 216.955 85.42C216.391 86.5218 216.834 87.8757 217.938 88.4338C218.112 88.5238 218.293 88.589 218.478 88.6295C219.45 88.8413 220.482 88.3859 220.951 87.4514C226.44 76.6655 224.462 63.5645 216.028 54.8689L216.027 54.8751Z" fill="#FCF9F7"/>
<path d="M214.782 90.9277C213.569 90.6633 212.379 91.4277 212.114 92.6402C211.85 93.8528 212.62 95.0447 213.827 95.3078C215.033 95.5708 216.23 94.8079 216.494 93.5953C216.759 92.3827 215.988 91.1908 214.782 90.9277Z" fill="#FCF9F7"/>
<path d="M115.526 99.595C110.662 93.4923 107.514 86.0531 106.173 77.4914C105.979 76.2697 104.834 75.4301 103.612 75.6239C102.39 75.8176 101.551 76.9631 101.745 78.1848C103.206 87.5311 106.667 95.6736 112.021 102.388C112.357 102.805 112.811 103.073 113.294 103.178C113.931 103.317 114.622 103.176 115.172 102.739C116.138 101.964 116.296 100.553 115.528 99.5888L115.526 99.595Z" fill="#FCF9F7"/>
</g>
<defs>
<clipPath id="clip0_1728_207">
<rect width="201.67" height="218.551" fill="white" transform="translate(47.0781) rotate(12.3009)"/>
</clipPath>
</defs>
</svg>
