<svg width="60" height="48" viewBox="0 0 60 48" fill="none" xmlns="http://www.w3.org/2000/svg">
<g clip-path="url(#clip0_1853_166)">
<path d="M59.7795 13.7532C59.1482 10.4443 57.1498 8.2326 55.2153 6.09487C55.0832 5.94974 54.9526 5.80317 54.8205 5.65804C54.8176 5.65368 54.8133 5.65078 54.8089 5.64788C54.8031 5.64062 54.7958 5.63482 54.7886 5.62901C54.7726 5.6145 54.7567 5.59999 54.7378 5.58693C54.7305 5.58112 54.7233 5.57677 54.716 5.57241C54.6914 5.55645 54.6652 5.54194 54.6377 5.53033C54.6362 5.53033 54.6348 5.53033 54.6333 5.52887C54.6072 5.51872 54.5796 5.51001 54.552 5.5042C54.5433 5.50275 54.5346 5.5013 54.5259 5.49985C54.5012 5.4955 54.4766 5.49259 54.4519 5.49259C54.4475 5.49259 54.4432 5.49259 54.4374 5.49259C54.4359 5.49259 54.433 5.49259 54.4316 5.49259C54.404 5.49259 54.3764 5.4955 54.3503 5.49985C54.3271 5.5042 54.3053 5.51001 54.2821 5.51726C54.2806 5.51726 54.2792 5.51726 54.2777 5.51726C54.2748 5.51726 54.2734 5.51872 54.2705 5.52017C54.2574 5.52452 54.2444 5.52887 54.2313 5.53323C51.1067 6.55492 48.8834 8.0062 47.1389 9.46908C46.8603 4.95272 44.8706 2.63649 42.9186 0.966071C42.8925 0.944302 42.8664 0.925436 42.8374 0.909472C42.8287 0.903667 42.8185 0.900764 42.8083 0.89641C42.7895 0.887703 42.7706 0.877544 42.7503 0.871739C42.7372 0.867385 42.7256 0.864482 42.7125 0.86158C42.6951 0.857226 42.6763 0.852872 42.6589 0.84997C42.6458 0.848518 42.6327 0.847067 42.6182 0.845616C42.6008 0.845616 42.5819 0.844164 42.5645 0.845616C42.5515 0.845616 42.5384 0.847067 42.5239 0.848518C42.5065 0.84997 42.4891 0.854323 42.4716 0.857226C42.4586 0.860128 42.4441 0.863031 42.431 0.867385C42.415 0.87319 42.3991 0.878995 42.3831 0.886251C42.3686 0.892056 42.3555 0.897862 42.3425 0.905118C42.3381 0.90802 42.3323 0.909472 42.328 0.912374C37.4139 3.77574 33.8714 8.39514 30.4464 12.8622C27.0794 17.2523 23.6239 21.7556 18.8318 24.6102C19.0016 24.5086 19.1047 24.3113 19.0771 24.1023C18.8841 22.6539 18.3558 21.8368 17.5054 21.6757C15.8422 21.3579 14.0499 23.9078 13.1283 25.4563C13.0543 25.4592 12.9803 25.465 12.9048 25.4752C12.3606 25.5521 11.8773 25.8336 11.545 26.269C11.545 26.269 11.5435 26.2719 11.5421 26.2734C11.4245 26.4301 11.3346 26.5999 11.2678 26.7755C11.172 26.7639 11.0733 26.7784 10.9805 26.8234C9.81653 27.3952 7.42919 28.7101 6.67888 30.1788C3.01441 32.1438 -0.38302 34.5718 0.034947 36.6442C0.407924 38.4902 3.49769 39.4437 9.7251 39.6207C9.12718 40.2477 8.6381 40.8587 8.29414 41.4334C7.8399 42.0748 7.74992 42.8527 8.04888 43.5726C8.45814 44.5609 9.79186 45.8757 13.8235 46.5273C13.8424 46.5303 13.8612 46.5317 13.8801 46.5332C15.0614 46.5927 16.2936 46.6696 17.5997 46.7523C20.7432 46.9482 24.1435 47.1616 27.374 47.1616C29.4247 47.1616 31.4086 47.0759 33.214 46.8466C36.8131 46.3822 39.3587 45.256 40.9942 43.4057C41.5283 42.8048 42.1538 41.8397 42.9462 40.6192C44.0622 38.8995 45.4496 36.7588 47.1549 34.7778L51.471 29.7782C51.2968 31.8971 51.2039 34.1669 51.114 36.3815C51.0922 36.9344 51.069 37.4874 51.0458 38.0359C51.04 38.1782 51.0922 38.316 51.1923 38.4176C51.2896 38.5163 51.4216 38.5715 51.5581 38.5715C51.5624 38.5715 51.5668 38.5715 51.5711 38.5715L54.3111 38.4989C54.5854 38.4916 54.806 38.2696 54.8118 37.9953C54.9715 29.1962 56.4532 25.9918 57.8856 22.8919C58.2296 22.146 58.5866 21.3753 58.9218 20.5365C59.8869 18.676 60.2918 16.6021 59.7824 13.7547L59.7795 13.7532ZM29.4639 39.2797C29.3928 39.2826 29.3216 39.3 29.2549 39.3334C26.4278 40.7614 24.6456 40.9196 24.1856 40.4625C23.9345 40.2129 24.026 39.5975 24.4367 38.7732C24.5121 38.6223 24.5078 38.4438 24.4265 38.2957C24.1203 37.7428 23.8445 37.023 24.2683 36.7356C24.5557 36.5411 25.0723 36.4961 25.6688 36.5731C26.6861 36.7037 27.9386 37.1841 28.7049 37.8749C28.8152 37.9735 28.9153 38.0766 29.0038 38.184C29.1098 38.3146 29.268 38.3755 29.4232 38.3697C29.4523 38.3697 29.4798 38.3639 29.5074 38.3581C29.4973 38.4438 29.4885 38.5294 29.4885 38.6179C29.4885 38.8559 29.5306 39.0838 29.6061 39.2971C29.5597 39.2855 29.5118 39.2797 29.4639 39.2826V39.2797ZM30.5335 38.4365C30.606 38.004 30.9369 37.6717 31.3694 37.5977C31.4289 37.5875 31.4913 37.5802 31.5537 37.5802C31.7859 37.5802 31.9992 37.6572 32.1719 37.7863C32.4245 37.975 32.5899 38.2769 32.5899 38.6165C32.5899 38.7195 32.574 38.8211 32.5435 38.9154C32.4114 39.3363 32.0123 39.6527 31.5537 39.6527C30.9819 39.6527 30.5175 39.1883 30.5175 38.6165C30.5175 38.5555 30.5233 38.4945 30.5335 38.4365ZM33.3214 39.0562L33.3634 38.2522C33.436 38.2565 33.5086 38.2435 33.5768 38.2159C33.6566 38.184 33.7306 38.1346 33.7887 38.0635C33.8075 38.0403 33.8293 38.0171 33.8496 37.9939C34.9032 36.7922 37.4764 36.1058 38.4168 36.5556C38.4545 36.5745 38.4908 36.5934 38.5242 36.6152C38.8173 36.814 38.7738 37.2189 38.6171 37.6325C38.5488 37.8139 38.4589 37.9968 38.366 38.1637C38.2833 38.3117 38.2789 38.4902 38.3544 38.6411C38.7651 39.4698 38.8551 40.091 38.6025 40.342C38.1396 40.8021 36.3531 40.6468 33.5274 39.2202C33.526 39.2202 33.5245 39.2202 33.5231 39.2173C33.4578 39.1839 33.3881 39.1665 33.3185 39.1636L33.3243 39.0547L33.3214 39.0562ZM39.0989 35.7662C37.6621 34.7924 34.4548 35.8068 33.1153 37.2711C32.7365 36.8314 32.1778 36.5513 31.5523 36.5513C30.9268 36.5513 30.4087 36.8125 30.0299 37.2261C29.7556 37.1434 29.4871 37.0578 29.2244 36.9693C28.3682 36.2756 27.1186 35.7386 25.962 35.563C24.7458 34.8823 23.9011 34.1538 23.6138 33.463C23.4716 33.1219 23.4803 32.8172 23.6414 32.5153C26.9982 31.4733 29.8194 29.6432 32.3374 27.4068C32.3374 27.4068 32.3374 27.4068 32.3388 27.4054C35.2545 24.8148 37.7637 21.683 40.228 18.6048C42.2656 16.0608 44.1899 13.6575 46.287 11.6213C48.1461 9.829 50.3579 8.00475 53.9149 6.72327C53.8046 10.9247 52.8352 12.1641 51.2809 14.1465C49.67 16.2015 47.4626 19.017 45.1101 26.4214C45.1057 26.4345 45.1028 26.4475 45.0999 26.4606C44.7893 27.803 43.3584 33 39.3296 35.9548C39.2527 35.8794 39.1743 35.817 39.0989 35.7662ZM46.1463 10.3427C45.9489 10.5242 45.7588 10.7056 45.573 10.8841C43.4295 12.9652 41.4848 15.3932 39.4269 17.9634C37.3951 20.5002 35.3328 23.0733 33.0413 25.333C34.4737 21.1272 36.9728 17.1129 39.2106 13.5181C41.7721 9.40378 43.9229 5.94539 43.8242 3.30117C45.1217 4.84968 46.1042 6.95257 46.1463 10.3413V10.3427ZM31.262 13.4833C34.5303 9.22237 37.9059 4.8192 42.4368 2.04001C43.7197 4.33012 41.2148 8.35305 38.337 12.9754C35.7682 17.1013 32.8613 21.773 31.5435 26.7291C29.5277 28.5025 27.3189 30.0002 24.8009 31.0132C20.733 31.051 16.5838 29.3689 15.2051 27.9569C15.2443 27.7725 15.2603 27.5868 15.2501 27.401C22.492 24.915 26.9474 19.1084 31.2605 13.4833H31.262ZM9.97037 28.5374C10.3288 28.3197 10.7265 28.0976 11.1677 27.8741C11.1749 27.9119 11.1807 27.9496 11.1894 27.9859C11.2693 28.3197 11.4318 28.6331 11.6698 28.8973C11.7525 28.9887 11.844 29.0758 11.9455 29.1542C12.0529 29.234 12.1661 29.3022 12.2822 29.3588C12.2997 30.9508 11.3534 33 10.5146 33.2903C10.0299 33.4586 9.62206 32.8099 9.36518 32.2367C9.29552 32.0828 9.1562 31.9725 8.99076 31.9421C8.0779 31.7708 7.52642 31.4704 7.47853 31.1163C7.46982 31.0553 7.47272 30.9886 7.48869 30.916C7.60044 30.3674 8.38557 29.4996 9.97182 28.5374H9.97037ZM12.3621 26.8873C12.497 26.7131 12.6799 26.5883 12.8874 26.5244C12.9397 26.5085 12.9934 26.4954 13.0485 26.4882C13.2531 26.4591 13.4563 26.4911 13.6363 26.5781C13.6972 26.6072 13.7553 26.6435 13.8104 26.6855C13.8453 26.7117 13.8772 26.7407 13.9077 26.7697C13.9106 26.7726 13.9135 26.777 13.9178 26.7799C14.1733 27.0295 14.2763 27.3763 14.2139 27.7072C14.1863 27.8509 14.1268 27.9917 14.0339 28.1194C14.031 28.1238 14.0296 28.1267 14.0267 28.131C13.8279 28.3893 13.5303 28.5301 13.227 28.5417C13.0543 28.5475 12.8787 28.5112 12.7205 28.43C12.6683 28.4038 12.616 28.3719 12.5667 28.3356C12.4898 28.2776 12.4245 28.2094 12.3693 28.1368C12.2373 27.9656 12.1647 27.7638 12.1545 27.5563C12.1444 27.3256 12.2111 27.089 12.3621 26.8873ZM18.8246 24.6102C17.62 25.3271 16.3313 25.941 14.9381 26.4214C14.8075 26.2124 14.6391 26.0238 14.4316 25.867C14.3997 25.8423 14.3663 25.822 14.3329 25.7988C14.2806 25.764 14.2284 25.7321 14.1747 25.7016C15.5389 23.4811 16.7318 22.5683 17.3124 22.68C17.6636 22.7468 17.935 23.3128 18.0583 24.2329C18.0641 24.2735 18.0757 24.3127 18.0888 24.349C18.1715 24.5652 18.3936 24.7045 18.6345 24.6741C18.7041 24.6654 18.768 24.6421 18.8246 24.6088V24.6102ZM1.04213 36.441C0.815732 35.3235 2.89105 33.4819 6.50182 31.453C6.69484 32.1496 7.37839 32.6343 8.54231 32.897C9.13008 34.0609 9.80927 34.3483 10.339 34.3483C10.5349 34.3483 10.7091 34.3091 10.8513 34.2597C12.2373 33.7808 13.2473 31.4443 13.3054 29.5605C13.8322 29.5315 14.3445 29.3051 14.7218 28.8958C15.6303 29.7056 16.922 30.3079 17.6244 30.5996C19.1003 31.2121 20.7272 31.6474 22.3222 31.8709C18.186 33.3179 13.6682 36.0114 10.7671 38.6165C2.3686 38.4945 1.16839 37.0578 1.04358 36.4425L1.04213 36.441ZM53.793 37.483L52.0921 37.528C52.1081 37.1594 52.1226 36.7908 52.1371 36.4207C52.2474 33.7097 52.3621 30.9102 52.6247 28.4372L54.4983 26.2676C54.7683 25.9555 55.0324 25.6537 55.2893 25.3591C55.5491 25.0616 55.803 24.7713 56.0498 24.484C54.9323 27.1833 53.9585 30.6403 53.793 37.483ZM54.5143 24.6828C54.256 24.9788 53.9904 25.2822 53.7205 25.5956L46.3727 34.1045C44.6224 36.1406 43.2118 38.3131 42.0798 40.0576C41.3411 41.1954 40.704 42.1779 40.2207 42.7221C38.7564 44.3795 36.4213 45.3939 33.079 45.8249C28.5264 46.404 22.7532 46.0426 17.6592 45.7248C16.3618 45.6435 15.1354 45.5666 13.957 45.5071C10.2287 44.9005 9.24908 43.7873 8.99656 43.1778C8.77597 42.6437 8.99221 42.22 9.14024 42.0139C9.14894 42.0008 9.15765 41.9892 9.16491 41.9747C10.7657 39.2768 16.6782 34.9651 22.4891 32.897C22.4731 33.2119 22.5311 33.5341 22.6661 33.8577C22.9288 34.489 23.4701 35.087 24.2001 35.6399C24.0129 35.6994 23.8416 35.7792 23.6907 35.8823C23.2321 36.1943 22.6081 36.9475 23.4034 38.5526C22.8693 39.7339 22.8896 40.6192 23.4614 41.1881C23.8387 41.564 24.3888 41.7091 25.0143 41.7091C26.6034 41.7091 28.6889 40.7672 29.7193 40.2462C29.8485 40.1809 29.937 40.0677 29.9776 39.94C30.3564 40.3885 30.9224 40.6744 31.5537 40.6744C32.1124 40.6744 32.6189 40.4509 32.9905 40.0881C33.0122 40.104 33.034 40.1185 33.0572 40.1316C34.0876 40.6511 36.1702 41.593 37.7623 41.593C38.3907 41.593 38.9436 41.4464 39.3238 41.0691C39.8985 40.4988 39.9203 39.6091 39.3862 38.4234C39.6968 37.7994 39.7897 37.3045 39.7621 36.9141C44.1885 33.7837 45.7515 28.1876 46.0955 26.7102C48.3885 19.4988 50.5277 16.7704 52.0892 14.7778C53.6508 12.7867 54.7291 11.4094 54.9221 7.29943C56.6651 9.24123 58.2397 11.1627 58.7694 13.9361C59.6402 18.8109 57.6012 21.1446 54.5158 24.6784L54.5143 24.6828Z" fill="#645050"/>
</g>
<defs>
<clipPath id="clip0_1853_166">
<rect width="60" height="46.3203" fill="white" transform="translate(0 0.839844)"/>
</clipPath>
</defs>
</svg>
