<svg width="60" height="64" viewBox="0 0 60 64" fill="none" xmlns="http://www.w3.org/2000/svg">
<g clip-path="url(#clip0_1853_162)">
<path d="M59.9868 45.2593C59.9341 44.9774 59.7395 44.7647 59.4774 44.707C59.4543 44.702 59.4312 44.6987 59.4081 44.6954C52.8147 44.0359 49.814 40.379 46.9122 36.8424C43.9263 33.2036 40.8447 29.4477 34.0485 29.1443C34.6965 27.9671 35.3197 26.8542 37.3213 25.7166C37.3329 25.71 37.3444 25.7034 37.356 25.6951C37.5126 25.5913 37.6643 25.4923 37.8127 25.3951C38.0699 25.2269 38.3139 25.0669 38.5464 24.907C38.5942 24.9087 38.6403 24.9103 38.6898 24.9103C39.1515 24.9103 39.6494 24.8031 40.1374 24.5773C41.4927 23.931 42.1885 22.6202 41.7219 21.5914C41.7219 21.5881 41.7186 21.5848 41.7169 21.5815C41.5059 21.1413 41.1069 20.8346 40.6139 20.6796C40.5826 20.4982 40.5397 20.307 40.4902 20.1091C40.4902 20.1058 40.4902 20.1042 40.4886 20.1009C40.3188 19.4265 40.0434 18.6615 39.6543 17.7712C39.5752 17.5865 40.1259 17.2683 40.5232 17.0606C40.632 17.8421 41.1135 18.462 41.7961 18.6731C42.3698 18.8544 42.8826 18.9435 43.3278 18.9435C43.9675 18.9435 44.4736 18.7588 44.8397 18.3878C45.8734 17.3458 45.3277 15.3145 44.9831 14.2247C45.2304 13.5784 45.758 12.8018 46.5972 11.8505C46.6302 11.8126 46.6583 11.7714 46.6813 11.7252C47.3029 10.4837 47.2452 9.21578 46.5198 8.15562C45.6838 6.93389 44.0664 6.21009 42.4984 6.35518C41.0294 6.49203 39.8159 7.36752 39.1449 8.76237C39.0212 8.86789 38.9602 8.9866 38.9388 9.10036C37.8852 10.7194 37.4928 12.0418 37.7401 13.1365C37.7648 13.2486 37.7995 13.3575 37.8374 13.4646C37.7319 13.524 37.6214 13.5883 37.5043 13.6592C36.6833 14.1489 35.9941 14.4951 35.3478 14.2758C35.3115 14.2643 35.2752 14.2478 35.2389 14.2313C34.9916 14.1225 34.7493 13.9279 34.5085 13.618C34.0815 13.0656 33.8688 12.6633 33.6248 12.1984C33.3264 11.6296 32.9867 10.9865 32.2085 10.0138C31.5787 9.20918 31.0824 8.09792 30.5565 6.92235C30.512 6.82178 30.4641 6.71791 30.4196 6.61568C30.4163 6.60909 30.4163 6.60249 30.413 6.5959C30.4081 6.58436 30.4015 6.57611 30.3965 6.56457C30.1344 5.98256 29.8607 5.38571 29.5474 4.77732C29.4518 4.408 29.4056 3.99086 29.3578 3.54899C29.2243 2.32561 29.0577 0.802158 27.5425 0.271258C27.4617 0.243229 27.3744 0.233336 27.2886 0.24158C26.6258 0.310828 25.9449 0.426241 25.5525 0.991765C25.1898 1.51772 25.1386 2.23328 25.4602 3.81444C25.2672 3.84082 25.0908 3.96283 25.0051 4.15409L23.7372 7.02128C23.6383 6.7987 23.5295 6.56952 23.4124 6.33539C23.5773 5.84736 23.4553 5.36263 23.0596 4.99166C22.1412 4.13265 19.6598 4.02713 18.0721 5.12521C17.2279 5.70887 15.9831 7.10207 17.1257 9.86209C17.1652 9.95772 17.2295 10.0418 17.312 10.1045C17.7786 10.4589 17.8759 12.5034 17.7077 13.4861C17.7011 13.4861 17.6945 13.4861 17.6879 13.4828C17.6747 13.4795 17.6599 13.4778 17.6467 13.4778C17.6351 13.4778 17.6252 13.4745 17.6137 13.4729C17.6137 13.4729 17.6121 13.4729 17.6104 13.4729C17.6005 13.4729 17.5906 13.4729 17.5807 13.4729C17.5675 13.4729 17.5527 13.4729 17.5395 13.4729C17.5296 13.4729 17.5181 13.4729 17.5082 13.4762C17.4966 13.4762 17.4835 13.4811 17.4719 13.4828C17.4587 13.4861 17.4472 13.4877 17.434 13.491C17.4241 13.4943 17.4142 13.496 17.4043 13.4993C17.3895 13.5042 17.3763 13.5091 17.3631 13.5157C17.3532 13.5207 17.3417 13.524 17.3318 13.5289C17.3285 13.5289 17.3268 13.5306 17.3235 13.5322C17.3186 13.5355 17.3136 13.5388 17.307 13.5421C17.2922 13.5504 17.2774 13.5586 17.2625 13.5685C17.2526 13.5751 17.2411 13.5817 17.2312 13.5899C17.223 13.5949 17.2164 13.6015 17.2098 13.6081C17.1982 13.618 17.1867 13.6279 17.1751 13.6394C17.1652 13.6493 17.157 13.6575 17.1471 13.6674C17.1405 13.674 17.1356 13.6823 17.129 13.6889C17.1191 13.7004 17.1108 13.7136 17.1009 13.7268C17.0943 13.7367 17.0861 13.7482 17.0795 13.7581C17.0746 13.7664 17.0696 13.7746 17.0663 13.7828C17.0581 13.7977 17.0531 13.8125 17.0465 13.8274C17.0432 13.8372 17.0366 13.8438 17.0333 13.8537C17.0333 13.857 17.0333 13.8587 17.0317 13.862C17.0284 13.8719 17.0268 13.8818 17.0235 13.8917C17.0218 13.8983 17.0185 13.9048 17.0169 13.9114C16.3145 16.6237 16.3804 19.4414 17.2147 22.5246C17.2213 22.5476 17.2295 22.5707 17.2378 22.5922C19.7472 28.7354 19.0481 29.4197 17.5131 30.9184C16.913 31.5037 16.1677 32.2341 15.4423 33.3717C15.4077 33.4262 15.3829 33.4839 15.3681 33.5465C15.1719 34.3429 15.4802 35.0617 16.2156 35.5877L12.1662 44.6493L2.74684 52.3391C2.66276 52.377 2.57867 52.4149 2.49458 52.4528C1.4707 52.9128 0.309978 53.4355 0.00990369 54.7281C-0.0115302 54.8172 -0.00988143 54.9111 0.0115524 55.0002C0.117073 55.4272 0.380875 55.9713 0.713924 56.6572C1.29429 57.8525 2.01644 59.3414 2.16648 60.7725C2.17967 60.9027 2.23573 61.0231 2.32641 61.1171C3.02054 61.8376 3.42119 61.864 4.26205 61.8574C4.70887 61.8541 5.32221 61.8475 6.31641 61.9612C6.33784 61.9629 6.36092 61.9645 6.38236 61.9645C6.42193 61.9645 6.45985 61.9612 6.49942 61.953C8.46969 61.5507 8.97915 60.4559 8.79944 59.5656C8.57026 58.4296 7.12595 57.3942 5.5349 57.7107C5.21833 57.7734 5.01389 58.0801 5.07654 58.3966C5.13919 58.7132 5.44751 58.9193 5.76242 58.855C6.71211 58.667 7.55298 59.2853 7.6552 59.7948C7.77721 60.3999 6.78136 60.6933 6.35268 60.7906C5.34364 60.6818 4.68908 60.6867 4.25381 60.69C3.65201 60.695 3.55968 60.6966 3.30413 60.4444C3.09144 58.8781 2.32971 57.3068 1.76583 56.1477C1.51357 55.63 1.29264 55.1716 1.18712 54.8584C1.38167 54.3044 1.93401 53.9928 2.78971 53.6004L4.68908 57.3398C4.76822 57.4964 4.91496 57.6102 5.08808 57.6464C5.12765 57.6547 5.16887 57.6596 5.21009 57.6596C5.34199 57.6596 5.47224 57.6151 5.57776 57.5294L16.8256 48.4018C16.8371 48.3936 16.847 48.3837 16.8569 48.3738L21.1651 44.3245C20.9261 44.8273 20.687 45.3302 20.4479 45.8314C18.9459 48.9789 17.3928 52.2336 16.2551 55.1716C16.2205 55.2607 16.209 55.358 16.2205 55.4536C16.4019 56.9309 17.3318 58.0421 18.9113 58.667C19.8527 59.0396 20.9393 59.2029 22.0274 59.2029C22.7809 59.2029 23.536 59.1237 24.2434 58.9819C24.1098 59.1649 23.9664 59.3513 23.846 59.5062C23.1849 60.3619 22.4429 61.3215 22.2302 62.3174C22.0687 62.4839 22.0126 62.69 22.0208 62.8631C22.0406 63.2423 22.3374 63.5473 22.8155 63.6825C22.992 63.732 23.1898 63.7584 23.4042 63.7584C24.5682 63.7584 26.2483 62.9637 27.9349 60.6851L27.9861 61.465C28.0058 61.7733 28.263 62.0107 28.5681 62.0107C28.5813 62.0107 28.5944 62.0107 28.606 62.0107C28.9275 61.9893 29.1715 61.7123 29.1501 61.3908L28.9704 58.6522C28.9638 58.5533 28.9308 58.4642 28.883 58.3851C29.0462 58.0273 29.2193 57.6827 29.3545 57.4403C33.76 59.5046 37.7154 59.1996 40.3996 58.4955C41.6576 58.1658 42.8744 57.6794 44.012 57.071L47.9905 61.8359C47.9905 61.8359 47.9987 61.8442 48.002 61.8491C48.5016 62.413 49.2056 62.7131 49.8651 62.7131C50.2954 62.7131 50.7076 62.5845 51.0308 62.3157C51.7101 61.7502 51.9755 60.5532 50.6779 58.8863C50.6614 58.8649 50.6417 58.8434 50.6219 58.8236C50.3267 58.5401 50.0151 58.2515 49.7118 57.9729C48.6302 56.9754 47.3095 55.7553 47.1117 54.926C48.1801 53.9862 49.0935 52.9244 49.7909 51.7851C52.4141 53.2261 54.5558 52.4875 55.9243 51.5708C58.5656 49.8 60.1566 46.1843 59.9835 45.2577L59.9868 45.2593ZM40.4622 22.8626C40.2809 23.1082 40.0022 23.3506 39.6411 23.5221C39.1201 23.7628 38.6041 23.7908 38.2578 23.6803C38.0715 23.621 37.933 23.5237 37.872 23.3968C37.7978 23.2368 37.8341 23.0555 37.8803 22.9335C37.9132 22.8444 37.961 22.7554 38.0188 22.668C38.2084 22.3861 38.5216 22.1272 38.8992 21.9541C39.1135 21.8519 39.3262 21.7909 39.5274 21.7579C39.5933 21.748 39.656 21.7398 39.7186 21.7365C39.7598 21.7332 39.8011 21.7299 39.8406 21.7299C40.2413 21.7299 40.5545 21.8651 40.6617 22.0827C40.6634 22.086 40.665 22.0909 40.6667 22.0959C40.7458 22.297 40.67 22.5839 40.4639 22.8642L40.4622 22.8626ZM44.0136 17.5684C43.7317 17.8536 43.0689 17.8503 42.1456 17.5601C41.8719 17.4761 41.6839 17.1677 41.6691 16.777C41.6625 16.5989 41.6905 16.4027 41.7581 16.1999C41.7598 16.195 41.7631 16.1917 41.7664 16.1867C41.7845 16.1488 41.7977 16.1109 41.8076 16.073C42.0549 15.4728 42.6584 14.815 43.7861 14.3022C43.7878 14.3071 43.7894 14.3121 43.7911 14.317C44.4934 16.4835 44.3005 17.2815 44.0153 17.5684H44.0136ZM42.6089 7.5192C43.7531 7.41203 44.965 7.94623 45.5585 8.81678C45.8883 9.29821 46.1702 10.0896 45.6706 11.1399C45.2667 11.6015 44.9287 12.0319 44.6501 12.4358C44.5759 12.2858 44.4868 12.1258 44.3912 11.9544C43.9972 11.2487 43.4003 10.1836 43.0145 8.48538C42.942 8.16057 42.7375 7.90996 42.4391 7.78136C42.2759 7.71046 42.0796 7.68078 41.8538 7.68903C42.0912 7.60164 42.3418 7.54393 42.6073 7.5192H42.6089ZM40.0105 9.60159C40.9552 9.06904 41.6312 8.8514 41.8999 8.84645C42.2643 10.3897 42.7771 11.4367 43.181 12.177C43.1068 12.2116 43.0376 12.2594 42.9799 12.327C41.4861 14.0714 40.3188 14.3484 39.9033 14.1093C39.3262 13.7729 38.9932 13.3723 38.8811 12.881C38.703 12.0912 39.0839 10.9882 40.0105 9.59994V9.60159ZM35.7402 15.5074C36.6915 15.5074 37.5653 14.9864 38.1061 14.6633C38.2166 14.5973 38.3485 14.5182 38.4639 14.4555C38.698 14.7012 38.9833 14.9221 39.3213 15.12C39.595 15.2766 39.9016 15.3525 40.2314 15.3525C40.4507 15.3525 40.6831 15.3162 40.9206 15.2502C40.848 15.3772 40.7837 15.5025 40.731 15.6278C40.6304 15.6987 40.4012 15.8141 40.2281 15.9015C39.468 16.2857 38.0517 17.0012 38.5859 18.2361C38.7689 18.6566 38.9223 19.0374 39.0509 19.387C37.7863 18.9583 36.4541 18.5346 33.9183 18.9022C34.037 17.5865 34.3371 16.3236 35.2208 15.4497C35.3956 15.4877 35.5687 15.5058 35.7402 15.5058V15.5074ZM31.2968 10.7392C32.009 11.6296 32.3074 12.1967 32.5943 12.7441C32.8416 13.2157 33.0989 13.7021 33.5902 14.3368C33.7682 14.5644 33.9496 14.7523 34.1343 14.9056C33.0296 16.2016 32.7823 17.969 32.7015 19.5716C32.6916 19.7497 32.7658 19.9228 32.901 20.0415C33.0362 20.1586 33.2159 20.2081 33.3923 20.1751C36.1886 19.6491 37.4433 20.0745 38.7706 20.5263C38.8876 20.5658 39.008 20.6054 39.1267 20.645C38.8843 20.6994 38.6403 20.7818 38.4029 20.8956C38.0913 21.039 37.811 21.222 37.5703 21.4314C34.5003 21.0489 32.535 21.0192 31.272 21.0011C30.573 20.9912 29.9118 20.9813 29.7634 20.8939C29.6299 20.767 29.4996 20.6466 29.371 20.5279C28.9901 19.1166 30.7362 17.5123 31.9596 16.8149C32.0948 16.7374 32.1937 16.6105 32.2349 16.4604C32.2761 16.3104 32.2547 16.1505 32.1755 16.0153L29.4881 11.3855L28.1443 8.17871L29.5738 7.58021C30.0998 8.75577 30.6092 9.86209 31.2951 10.7392H31.2968ZM28.4263 11.8719C28.4362 11.895 28.4477 11.9181 28.4592 11.9395L30.8813 16.1142C29.8261 16.8314 28.5203 18.0713 28.2119 19.4958C26.8138 18.3004 25.8245 17.6624 25.0529 17.2436L27.4601 9.56861L28.4246 11.8736L28.4263 11.8719ZM26.5137 1.65622C26.606 1.52267 26.9193 1.46001 27.2705 1.41879C27.9514 1.72711 28.0685 2.49049 28.1987 3.67595C28.2515 4.16068 28.3059 4.66355 28.4329 5.1318C28.4329 5.1318 28.4329 5.1318 28.4329 5.1351C28.4378 5.15323 28.4461 5.17137 28.4527 5.18786C28.4609 5.20764 28.4658 5.22743 28.4757 5.24556C28.4757 5.24556 28.4757 5.24556 28.4757 5.24721C28.6967 5.67259 28.8978 6.09632 29.0907 6.51511L27.6909 7.10042L27.1188 5.73525C26.7825 4.45581 26.179 2.136 26.5104 1.65457L26.5137 1.65622ZM24.3308 8.57276L25.7949 5.2604C25.8592 5.51596 25.9284 5.78471 26.0026 6.07159C26.0092 6.09797 26.0174 6.12435 26.029 6.14908L26.761 7.89512L23.9944 16.7143C23.2871 16.3813 22.8238 16.1439 22.1461 15.3195V12.6963C22.1973 12.6996 22.2484 12.7029 22.3028 12.7029C22.8782 12.7029 23.5921 12.4787 24.0686 11.8208C24.6143 11.0657 24.6935 9.9874 24.3143 8.60409C24.3192 8.5942 24.3258 8.5843 24.3308 8.57276ZM18.7382 6.08643C19.9088 5.27524 21.6235 5.40714 22.1824 5.78306C21.6119 5.89682 21.2344 6.27109 20.8898 6.61239C20.5452 6.95533 20.1874 7.30981 19.5642 7.50272C19.2559 7.59834 19.0844 7.9248 19.18 8.23312C19.2575 8.48373 19.4883 8.64366 19.7373 8.64366C19.795 8.64366 19.8527 8.63541 19.9104 8.61728C20.8074 8.33864 21.3086 7.84071 21.7125 7.44006C22.0192 7.13504 22.1923 6.97676 22.4083 6.9306C23.4437 9.0509 23.6663 10.6667 22.9936 11.2817C22.6622 11.585 22.2121 11.557 22.0588 11.501C22.0571 11.4977 22.0538 11.4944 22.0505 11.4911C22.0439 11.4812 22.0373 11.4729 22.0291 11.463C22.0142 11.4433 21.9994 11.4251 21.9829 11.4086C21.9747 11.3987 21.9648 11.3905 21.9549 11.3822C21.9384 11.3674 21.9219 11.3526 21.9038 11.3394C21.8922 11.3311 21.8823 11.3229 21.8708 11.3163C21.8527 11.3048 21.8329 11.2949 21.8131 11.285C21.8016 11.2784 21.79 11.2734 21.7768 11.2685C21.7521 11.2586 21.7241 11.2503 21.6977 11.2438C21.6911 11.2421 21.6828 11.2388 21.6763 11.2372C21.6416 11.2306 21.6054 11.2273 21.5674 11.2256C21.5658 11.2256 21.5641 11.2256 21.5608 11.2256C21.5526 11.2256 21.546 11.2273 21.5394 11.2273C21.513 11.2273 21.485 11.2306 21.4603 11.2355C21.4454 11.2388 21.4322 11.2421 21.4174 11.2454C21.4059 11.2487 21.3927 11.2503 21.3811 11.2536C21.3729 11.2569 21.3663 11.2602 21.3597 11.2635C21.3399 11.2701 21.3218 11.28 21.3036 11.2883C21.2871 11.2965 21.2707 11.3048 21.2558 11.3146C21.2393 11.3245 21.2245 11.3361 21.2097 11.346C21.1948 11.3575 21.1783 11.3691 21.1651 11.3822C21.1519 11.3938 21.1404 11.407 21.1289 11.4218C21.1157 11.4367 21.1041 11.4515 21.0926 11.4663C21.081 11.4812 21.0728 11.4977 21.0629 11.5125C21.053 11.529 21.0448 11.5438 21.0365 11.562C21.0283 11.5785 21.0217 11.5966 21.0151 11.6147C21.0085 11.6329 21.0019 11.651 20.9986 11.6691C20.9937 11.6873 20.992 11.7038 20.9887 11.7219C20.9854 11.7433 20.9838 11.7631 20.9821 11.7845C20.9821 11.7928 20.9805 11.7994 20.9805 11.8076V14.6864L18.8107 13.8851C19.063 12.7227 19.058 10.2083 18.1594 9.29492C17.5857 7.82752 17.7802 6.74758 18.7398 6.08313L18.7382 6.08643ZM16.4893 33.9109C17.1224 32.9365 17.7654 32.3083 18.3342 31.7527C20.2699 29.8615 21.0135 28.747 18.3359 22.1849C17.6417 19.6013 17.5247 17.2271 17.9814 14.9535C18.0523 14.9452 18.1182 14.9254 18.1809 14.8991L21.2113 16.0169C22.1016 17.1117 22.7595 17.4233 23.5822 17.8108C24.616 18.2971 26.0323 18.9649 28.977 21.7579C29.3941 22.142 29.9778 22.1503 31.2539 22.1684C32.4014 22.1849 34.1425 22.2113 36.7904 22.5147C36.7888 22.5196 36.7855 22.5262 36.7838 22.5312C36.6107 23.006 36.6206 23.4759 36.8168 23.8947C36.9108 24.0909 37.041 24.2607 37.1993 24.4009C37.1911 24.4058 37.1828 24.4124 37.1746 24.4173C37.0377 24.5064 36.8976 24.5987 36.7542 24.6943L28.5565 24.1123L26.8929 23.2467L26.8154 23.2055L22.1775 20.7934C21.8906 20.645 21.5394 20.7554 21.391 21.0423C21.2426 21.3276 21.3531 21.6804 21.64 21.8288L26.0372 24.1156L26.6192 30.2424C26.4379 31.1476 26.1889 32.0923 25.8855 33.0651C24.2335 35.3882 19.4818 35.8366 17.3334 34.8787C17.3103 34.8688 17.2922 34.8589 17.2708 34.849C17.251 34.8375 17.2312 34.8227 17.2081 34.8128C17.1966 34.8078 17.185 34.8062 17.1718 34.8012C16.4942 34.4533 16.4629 34.0972 16.4909 33.9076L16.4893 33.9109ZM27.4354 26.5327L27.2672 24.7586L27.7668 25.0175C27.6975 25.4841 27.5805 25.9672 27.4354 26.531V26.5327ZM16.0771 47.5099L5.40629 56.1691L3.79381 52.9953L13.0153 45.467C13.0153 45.467 13.017 45.4637 13.0186 45.4637C13.0466 45.4407 13.0714 45.4159 13.0928 45.3896C13.0978 45.383 13.1027 45.3747 13.1093 45.3681C13.1241 45.3483 13.139 45.3269 13.1522 45.3038C13.1588 45.2939 13.1637 45.284 13.1687 45.2725C13.172 45.2659 13.1769 45.2593 13.1785 45.2527L17.2658 36.107C18.0473 36.3758 19.0234 36.5209 20.0638 36.5209C21.7801 36.5209 23.6663 36.1268 25.1304 35.2612C24.3901 37.2612 23.4816 39.3502 22.5105 41.4606L16.0754 47.5082L16.0771 47.5099ZM27.2029 59.7156C25.4931 62.1591 24.0323 62.5944 23.3893 62.5944C23.3827 62.5944 23.3761 62.5944 23.3695 62.5944C23.5163 61.8508 24.2104 60.9522 24.7743 60.2234C25.2854 59.5623 25.6992 59.0264 25.813 58.5401C26.4263 58.3059 26.9523 58.0191 27.3381 57.6975C27.6744 57.4173 27.9185 57.104 28.0635 56.7742C28.1526 56.8237 28.24 56.8715 28.329 56.9193C27.8772 57.7107 27.2969 59.0067 27.2045 59.7173L27.2029 59.7156ZM48.9237 58.8319C49.2105 59.0973 49.5073 59.371 49.7859 59.6365C50.4982 60.5647 50.5543 61.1995 50.2888 61.4188C50.025 61.6381 49.3639 61.615 48.8857 61.0808L45.0408 56.4758C45.4266 56.2334 45.8009 55.9762 46.162 55.7058C46.6385 56.7231 47.7563 57.7553 48.9253 58.8319H48.9237ZM54.8773 50.847C53.2995 51.7257 51.626 51.607 49.9014 50.4908C49.8948 50.4859 49.8849 50.4826 49.8783 50.4793C49.87 50.4743 49.8618 50.4677 49.8535 50.4628C49.3276 50.1891 48.856 49.9006 48.4257 49.6005C46.5626 48.2963 45.5289 46.7514 44.7111 45.1736C44.4423 44.6559 44.1983 44.1349 43.9543 43.6171C42.8875 41.3451 41.7845 38.9973 38.8959 37.3964C38.614 37.2397 38.2578 37.342 38.1028 37.6239C37.9462 37.9058 38.0484 38.2603 38.3304 38.417C39.102 38.844 39.7285 39.3337 40.2578 39.8662C40.609 40.2207 40.9173 40.5933 41.1943 40.9824C41.8834 41.9502 42.383 43.0153 42.8974 44.1118C44.0202 46.5041 45.2881 49.2015 48.7786 51.2031C48.1125 52.2863 47.2337 53.2921 46.2015 54.1774C46.1521 54.2071 46.1109 54.245 46.0729 54.2863C45.4035 54.8468 44.6715 55.358 43.8949 55.8064C43.8817 55.813 43.8702 55.8213 43.857 55.8279C42.6913 56.494 41.4234 57.0216 40.1077 57.3661C37.5522 58.0372 33.7501 58.3142 29.5161 56.2186C29.4732 56.1906 29.4287 56.1675 29.3776 56.1494C28.8962 55.9053 28.4098 55.6333 27.9201 55.325C27.7222 55.2013 27.47 55.2063 27.2787 55.3382C27.0875 55.4701 26.9919 55.7042 27.038 55.9334C27.0924 56.2104 26.9424 56.5005 26.5896 56.7957C25.2541 57.9102 21.6482 58.4906 19.3449 57.5788C18.2237 57.1353 17.5708 56.4181 17.4027 55.447C18.5172 52.5913 19.9698 49.5494 21.5048 46.331C24.1956 40.6906 26.977 34.8589 27.8426 30.0363C28.0767 28.7288 28.324 27.766 28.5219 26.9911C28.6818 26.3629 28.817 25.8336 28.9028 25.3044L35.2043 25.7512C34.0535 26.7124 33.5226 27.672 33.0082 28.6085C32.8581 28.8822 32.7163 29.1394 32.5581 29.3999C32.4476 29.5813 32.4443 29.8071 32.5482 29.9901C32.652 30.1732 32.8466 30.2869 33.056 30.2869C33.0857 30.2836 33.1186 30.2869 33.1516 30.2869C40.0269 30.2869 42.9337 33.8285 46.0103 37.5777C48.9863 41.2034 52.0596 44.9493 58.7634 45.7935C58.4469 46.8405 57.1031 49.6054 54.8773 50.8437V50.847Z" fill="#645050"/>
<path d="M29.2179 40.7647C28.9046 40.6889 28.588 40.8785 28.5122 41.1918L25.7077 52.5699C25.6302 52.8831 25.8214 53.1997 26.1347 53.2755C26.1808 53.2871 26.2287 53.292 26.2748 53.292C26.537 53.292 26.7761 53.1139 26.8404 52.8485L29.6449 41.4704C29.7224 41.1571 29.5311 40.8406 29.2179 40.7647Z" fill="#645050"/>
<path d="M43.9461 51.851C44.0418 51.9104 44.1489 51.9384 44.2544 51.9384C44.449 51.9384 44.6403 51.8411 44.7507 51.6631C44.9205 51.3894 44.8365 51.03 44.5628 50.8585C44.1324 50.5914 43.745 50.316 43.3921 50.0341C41.5241 48.5337 40.6882 46.8355 40.1919 45.129C40.0369 44.5981 39.9149 44.0672 39.8044 43.5396C39.7385 43.2247 39.4302 43.0219 39.1136 43.0879C38.7987 43.1538 38.5959 43.4638 38.6619 43.7787C39.2191 46.4398 40.1326 49.4785 43.9461 51.8494V51.851Z" fill="#645050"/>
</g>
<defs>
<clipPath id="clip0_1853_162">
<rect width="60" height="63.5234" fill="white" transform="translate(0 0.238281)"/>
</clipPath>
</defs>
</svg>
