<svg width="88" height="60" viewBox="0 0 88 60" fill="none" xmlns="http://www.w3.org/2000/svg">
<g clip-path="url(#clip0_1853_168)">
<path d="M69.8324 51.4428H67.3815V41.7885C67.5544 41.6321 67.7127 41.4556 67.8455 41.2591C68.2895 40.604 68.4532 39.8162 68.3077 39.0393C68.1858 38.397 67.8619 37.8293 67.3815 37.3981V36.1372C68.2913 35.6313 68.9099 34.6579 68.9099 33.5407C68.9099 33.306 68.8808 33.0695 68.8244 32.8384C69.4412 32.2835 69.8088 31.4902 69.8288 30.6277C69.8288 29.4723 69.1537 28.4716 68.1767 27.9894C68.3495 27.7347 68.486 27.4636 68.5861 27.1779C68.9973 26.0007 68.7807 24.5742 67.9383 22.9385C67.8564 22.7784 67.7127 22.6619 67.5398 22.6128C67.4871 22.5982 67.4325 22.5928 67.3797 22.591C67.367 16.8104 65.1181 11.3883 61.0406 7.32167C59.3193 5.60406 57.3561 4.21395 55.2272 3.17865C55.2018 3.01854 55.1163 2.87298 54.9853 2.77109C54.7924 2.62189 54.6759 2.44721 54.5286 2.22341C53.8717 1.22815 53.1403 0.529456 49.7396 0.636807C46.2862 -0.303878 43.0693 -0.201985 40.4165 0.927927C39.3957 0.793284 38.1439 0.760533 36.954 1.38644C36.7156 1.43193 36.4772 1.47924 36.2407 1.532C36.1006 1.52472 35.9587 1.51563 35.815 1.50653C34.3248 1.41374 32.7818 1.3173 30.4383 3.55165C30.3492 3.63535 30.2891 3.7427 30.26 3.85551C30.1053 3.94467 29.9525 4.03382 29.8015 4.12662C28.526 3.56803 26.9813 3.9756 26.1625 5.16373C26.157 5.17101 26.1516 5.18011 26.1461 5.18921C26.0078 5.41119 25.8986 5.64408 25.8186 5.88426C25.0344 6.02072 24.3321 6.46286 23.8772 7.12698C23.8772 7.12698 23.8772 7.12698 23.8772 7.1288C23.5224 7.651 23.3495 8.25689 23.3677 8.87371C23.0893 8.6863 22.7946 8.53892 22.4816 8.43702C21.2953 8.04947 19.8815 8.28964 18.2767 9.15209C18.1184 9.23761 18.0038 9.38317 17.9583 9.55602C17.9128 9.72887 17.942 9.91264 18.0384 10.0637C18.9354 11.472 19.8906 12.3271 20.9441 12.6656C20.2636 12.8457 19.6614 13.2605 19.2575 13.8501C19.2575 13.8501 19.2575 13.8519 19.2556 13.8537C18.8062 14.5178 18.6443 15.3129 18.7989 16.0935C18.9409 16.814 19.3412 17.4363 19.9198 17.8602C19.5741 19.4086 19.3976 21.0062 19.3976 22.6328V51.4374H17.0377C16.681 51.4374 16.3936 51.7267 16.3936 52.0815C16.3936 52.4363 16.681 52.7256 17.0377 52.7256H19.3976V56.6685C19.3976 56.9014 19.5231 57.1161 19.7269 57.2307C20.8786 57.8748 22.034 58.1132 23.0584 58.1132C24.5322 58.1132 25.7367 57.6237 26.2644 57.1488C26.4008 57.0269 26.4773 56.8522 26.4773 56.6703V52.7274H57.0158L57.0031 52.8038C56.9703 52.9985 57.0286 53.195 57.1596 53.3424C57.7582 54.0083 59.0064 54.3013 60.3037 54.4032V56.6703C60.3037 56.8886 60.4147 57.0924 60.5984 57.2125C63.0584 58.7991 66.3553 57.5345 66.9922 57.2634C67.2305 57.1634 67.3852 56.9286 67.3852 56.6703V52.7274H69.8361C70.1927 52.7274 70.4802 52.4381 70.4802 52.0833C70.4802 51.7285 70.1927 51.4392 69.8361 51.4392L69.8324 51.4428ZM66.7374 24.4632C66.8502 24.3686 66.9703 24.2758 67.0995 24.183C67.2232 24.4832 67.316 24.7689 67.3815 25.0418C67.5362 25.6768 67.538 26.2372 67.3815 26.714C67.3779 26.7267 67.3743 26.7394 67.3706 26.7522C67.2505 27.0942 67.0468 27.4017 66.7593 27.6837C66.752 27.6837 66.7447 27.6837 66.7356 27.6837C66.5173 27.6928 66.3008 27.7238 66.0915 27.7784C66.0879 27.7784 66.0842 27.7784 66.0824 27.7802C65.9278 27.6201 65.7549 27.48 65.5693 27.3581C65.4601 26.9377 65.4456 26.5447 65.5293 26.1772C65.613 25.8078 65.8022 25.4512 66.0915 25.0982C66.268 24.8835 66.4809 24.6725 66.7356 24.4614L66.7374 24.4632ZM55.1672 4.61788C61.6574 8.02582 66.0933 14.8253 66.0933 22.6401V23.3297C65.0871 24.1157 64.4885 24.9599 64.2756 25.8915C64.2029 26.2118 64.1774 26.5429 64.1974 26.8813C64.161 26.8777 64.1228 26.8777 64.0864 26.8759C64.1119 26.1954 63.9882 25.5731 63.708 25.0164C63.2913 24.1812 62.5307 23.5025 61.4427 22.9876C60.9878 18.1514 59.4485 14.2776 56.8448 11.4501C56.3917 10.9589 55.9059 10.5076 55.3965 10.0891C55.1763 8.38608 55.0908 6.57203 55.1672 4.61606V4.61788ZM62.78 27.1142C62.6799 27.1579 62.5817 27.2089 62.4889 27.2634C62.3652 27.3344 62.2469 27.4163 62.1341 27.5054C62.0067 27.4508 61.8866 27.3908 61.7756 27.3289C61.712 27.2926 61.6501 27.2562 61.5919 27.218C61.3262 27.0433 61.1152 26.8377 60.9478 26.603C60.9296 26.5775 60.9096 26.552 60.8914 26.5265C60.6567 26.1645 60.522 25.715 60.4874 25.1728C60.4656 24.8217 60.482 24.4323 60.5438 24.0011C60.5457 24.0011 60.5493 24.0029 60.5511 24.0047C60.6676 24.052 60.7804 24.1011 60.8877 24.1521C61.1315 24.2667 61.3517 24.3886 61.55 24.5196C62.0195 24.8308 62.3561 25.191 62.558 25.595C62.7764 26.0316 62.851 26.5356 62.78 27.1161V27.1142ZM60.0853 22.5018C59.9689 22.4945 59.8506 22.52 59.7451 22.5746C58.002 19.3923 56.5246 16.0735 55.7403 12.1888C58.0675 14.6579 59.5595 18.1514 60.0853 22.5018ZM32.9056 3.27509C33.304 3.05311 33.6698 2.92029 34.0209 2.84751C34.5995 2.7256 35.1417 2.75653 35.7385 2.79474C35.9168 2.80566 36.0988 2.81657 36.2844 2.82385C36.2862 2.83477 36.2898 2.84569 36.2917 2.85478C36.6501 4.38135 37.0631 5.80784 37.5198 7.14518C37.5908 7.35078 37.6617 7.55638 37.7327 7.75835C37.8055 7.96031 37.8801 8.15682 37.9547 8.35515C41.1261 16.7613 46.1461 21.5611 51.0369 26.2336L51.4809 25.7678L51.9157 25.2929C46.9794 20.5786 42.2687 16.0771 39.2356 8.13135C39.1592 7.92938 39.0828 7.7256 39.0082 7.51999C38.9354 7.31621 38.8626 7.10879 38.7917 6.90136C38.3313 5.56403 37.9165 4.13208 37.5526 2.59277C37.5471 2.57276 37.5435 2.55275 37.538 2.53455C38.2658 2.14518 39.1301 2.05056 40.3401 2.21978C40.3455 2.24707 40.351 2.27618 40.3564 2.30347C40.6166 3.70449 41.0369 5.21104 41.5609 6.68666C41.6374 6.90136 41.7156 7.11606 41.7957 7.32895C41.8775 7.54547 41.9612 7.76017 42.0468 7.97305C42.9783 10.3002 44.1337 12.4527 45.28 13.8682C45.4074 14.0265 45.593 14.1066 45.7804 14.1066C45.9223 14.1066 46.066 14.0593 46.1843 13.9629C46.4609 13.7391 46.5045 13.3333 46.2807 13.0567C45.3 11.845 44.2902 9.99816 43.4423 7.97123C43.3532 7.75835 43.2658 7.54365 43.1803 7.32713C43.0966 7.11424 43.0147 6.89954 42.9347 6.68302C42.387 5.20558 41.9394 3.68812 41.6628 2.2871C41.6374 2.15973 41.6137 2.03237 41.5919 1.90682C41.5882 1.89045 41.5828 1.87771 41.5791 1.86133C41.8175 1.77946 42.0613 1.70668 42.3106 1.64117C44.4303 1.09168 46.8794 1.17538 49.4922 1.90136C49.5559 1.91956 49.6213 1.92684 49.6869 1.92502C52.72 1.81767 53.0766 2.35806 53.4551 2.92938C53.506 3.00762 53.5606 3.08768 53.6188 3.16956C53.708 3.29328 53.8062 3.42065 53.9299 3.54801C53.919 3.70267 53.9136 3.85369 53.9063 4.00653C53.8117 5.79692 53.8481 7.48178 53.9973 9.07567C54.0227 9.35406 54.0537 9.6288 54.0864 9.90173C54.1228 10.2038 54.1628 10.504 54.2065 10.8006C54.9871 16.0444 56.9685 20.302 59.2156 24.2594C59.1083 25.4712 59.3048 26.4483 59.8088 27.2234C59.9489 27.4381 60.1144 27.6364 60.3018 27.8202C60.4929 28.0058 60.7076 28.175 60.9459 28.326C61.0606 28.3988 61.1807 28.468 61.3062 28.5316C61.1152 28.9246 61.0042 29.365 61.0042 29.8308C61.0042 30.0673 61.0369 30.3166 61.1006 30.5586C61.0478 30.5986 60.9969 30.6404 60.9478 30.6823C60.8877 30.7332 60.8295 30.7878 60.7731 30.8442C60.7385 30.7842 60.7003 30.726 60.6621 30.6696C60.7167 30.6368 60.7676 30.6004 60.8131 30.5513C60.8768 30.4803 60.9205 30.4003 60.9478 30.3166C60.9896 30.1892 60.9878 30.0527 60.9478 29.9254C60.915 29.8198 60.8568 29.7216 60.7695 29.6415C60.6112 29.4978 60.4565 29.3504 60.3037 29.2012C56.4663 25.4676 54.0791 20.0618 52.9802 17.0997C51.6756 13.5899 51.0606 10.6586 50.9168 8.9665C50.895 8.70267 50.8841 8.46796 50.8823 8.26781C50.8823 8.01854 50.8968 7.81839 50.9278 7.67465C50.9332 7.651 50.9332 7.62552 50.935 7.60187C50.966 7.27982 50.7549 6.9796 50.431 6.91046C50.1417 6.8486 49.8579 6.99416 49.7269 7.24343C49.7014 7.29438 49.6778 7.34714 49.6668 7.40537C49.6377 7.53819 49.6195 7.69649 49.6086 7.8748C49.5977 8.0713 49.5977 8.2951 49.6068 8.54256C49.7687 12.5837 52.7909 23.1041 58.7116 29.4177C58.3768 29.3631 58.0329 29.3613 57.689 29.4268C56.9103 29.5724 56.2353 30.0164 55.7913 30.6696C55.6403 30.8897 55.5202 31.1281 55.4347 31.3792C55.1836 31.4192 54.9434 31.4956 54.7141 31.5975C46.6829 27.5236 39.2156 22.6128 33.7807 9.97451C33.7007 9.79074 33.6224 9.60333 33.5442 9.41592C33.5169 9.3486 33.4878 9.28309 33.4605 9.21577C33.4605 9.05748 33.4441 8.89918 33.4168 8.74452C33.324 8.18229 33.0711 7.64736 32.6745 7.21614C32.3543 6.35733 32.0413 5.46759 31.7374 4.5451C31.701 4.43229 31.6628 4.3213 31.6265 4.20849C32.0995 3.78637 32.5198 3.48615 32.9074 3.26963L32.9056 3.27509ZM56.1243 36.2045C56.0242 36.0662 55.8714 35.9716 55.7021 35.9461C55.442 35.9043 55.1909 35.8078 54.9962 35.6732C54.2411 35.1528 54.0409 34.1157 54.5522 33.3624C54.5522 33.3624 54.554 33.3588 54.5559 33.3588C54.6232 33.2569 54.7032 33.1659 54.7887 33.084C54.9798 32.9021 55.2091 32.7711 55.4601 32.7001C55.6002 32.6601 55.744 32.6383 55.8932 32.6383C55.9059 32.6383 55.9187 32.6383 55.9296 32.6383C56.1115 32.6419 56.2789 32.5673 56.399 32.4454C56.4918 32.3526 56.5591 32.2325 56.581 32.0942C56.621 31.8431 56.712 31.6102 56.8557 31.401C57.1068 31.0298 57.4871 30.7805 57.9256 30.6987C58.3604 30.6168 58.7971 30.7096 59.1628 30.9625C59.6359 31.2827 59.9143 31.8377 59.887 32.4145C59.8834 32.4963 59.8961 32.5764 59.9198 32.651C59.9107 32.7492 59.9034 32.8475 59.9034 32.9476C59.9034 33.4479 60.0289 33.9174 60.2491 34.3304C60.2655 34.3595 60.2818 34.3868 60.2982 34.4159C60.4674 34.7089 60.6858 34.9709 60.9423 35.1892C61.0206 35.2565 61.1024 35.3202 61.1879 35.3784C61.3026 35.4567 61.4245 35.5258 61.55 35.5877C61.5482 35.5913 61.5464 35.595 61.5427 35.5986C61.53 35.6204 61.5191 35.6404 61.5045 35.6623C61.3717 35.8588 61.1952 36.0207 60.9969 36.1408C60.9787 36.1517 60.9605 36.1645 60.9405 36.1754C60.744 36.2845 60.5257 36.3519 60.2964 36.3755C60.2818 36.3755 60.2673 36.3773 60.2527 36.3792C60.2254 36.381 60.1981 36.3846 60.169 36.3864C59.9616 36.3919 59.7778 36.4956 59.665 36.6521C59.5922 36.7522 59.5467 36.8722 59.5413 37.0033C59.5267 37.338 59.4303 37.6419 59.2556 37.8912C59.0282 38.226 58.6952 38.4607 58.3113 38.5644C58.2695 38.5753 58.2294 38.5862 58.1858 38.5935C57.7509 38.6754 57.3142 38.5826 56.9449 38.3279C56.4081 37.9694 56.1279 37.3235 56.2334 36.683C56.2607 36.5138 56.2207 36.341 56.1206 36.2009L56.1243 36.2045ZM24.6887 8.43884C24.7342 8.23324 24.8179 8.03673 24.9398 7.8566C25.1618 7.53455 25.4874 7.30711 25.8586 7.19976C26.0115 7.15609 26.1698 7.13062 26.3335 7.13062C26.6501 7.13062 26.9212 6.89954 26.9703 6.58659C27.0013 6.3919 27.0631 6.20449 27.1559 6.02436C27.1796 5.97705 27.2051 5.92975 27.2323 5.88426C27.4652 5.55311 27.7982 5.33113 28.1621 5.22924C28.5042 5.13462 28.8735 5.14736 29.2138 5.27836C29.3302 5.32385 29.4449 5.38026 29.554 5.45304C29.6505 5.51854 29.736 5.59496 29.816 5.67865C30.1254 6.00435 30.3 6.45558 30.2782 6.9232C30.2636 7.24889 30.4947 7.53273 30.8168 7.58732C31.0333 7.62371 31.2389 7.7074 31.4427 7.84569C31.4882 7.87662 31.5318 7.90937 31.5719 7.94394C32.0286 8.31876 32.2378 8.88644 32.1632 9.44321C32.1577 9.48688 32.1505 9.53237 32.1414 9.57603C32.0977 9.77436 32.0195 9.96905 31.9012 10.1528C31.5882 10.5913 31.097 10.8606 30.5839 10.8788C30.5784 10.8788 30.5711 10.8788 30.5657 10.8788C30.2254 10.8861 29.9507 11.1572 29.9379 11.4974C29.9379 11.5156 29.9343 11.532 29.9325 11.5502C29.9161 11.7922 29.8488 12.0233 29.736 12.238C29.7105 12.2889 29.6832 12.338 29.6523 12.3872C29.5595 12.5236 29.4485 12.6419 29.3248 12.742C29.1483 12.8857 28.9463 12.9894 28.7334 13.0513C28.6807 13.0658 28.6279 13.0786 28.5733 13.0895C28.3513 13.1313 28.1221 13.1295 27.8983 13.0804C27.7 13.0386 27.5071 12.9603 27.3288 12.8439C26.7938 12.4618 26.5264 11.8231 26.6301 11.1754C26.6574 11.0007 26.6119 10.8224 26.5045 10.6805C26.3972 10.5404 26.2353 10.4494 26.0588 10.4312C25.824 10.4075 25.5857 10.3184 25.3837 10.1783C25.2909 10.1164 25.2072 10.0455 25.1308 9.96723C24.9616 9.79619 24.8361 9.59241 24.7542 9.36497C24.7251 9.28309 24.6996 9.19758 24.6832 9.10842C24.6396 8.8828 24.645 8.65536 24.6941 8.43521L24.6887 8.43884ZM30.8477 15.3129C31.0297 15.9316 30.946 16.6175 30.5912 17.3981C29.7906 16.9996 29.2775 16.5156 29.03 15.9261C28.9409 15.7132 28.8881 15.4767 28.8663 15.222C28.8426 14.949 28.8572 14.6506 28.9117 14.3268C29.121 14.2795 29.3248 14.2103 29.5195 14.1193C29.6432 14.0629 29.7615 13.9956 29.8761 13.9228C30.3764 14.3577 30.704 14.8217 30.8495 15.3111L30.8477 15.3129ZM19.534 9.97269C20.5329 9.54146 21.3863 9.43593 22.0777 9.66337C22.4743 9.79256 22.8364 10.0436 23.1639 10.4039C23.2385 10.4858 23.3113 10.5768 23.3823 10.6714C23.2112 10.7078 23.0438 10.7569 22.8855 10.8206C22.4853 10.9807 22.1305 11.2281 21.8393 11.5429C21.7447 11.5356 21.6501 11.5247 21.5591 11.5047C20.8641 11.361 20.1981 10.857 19.534 9.97451V9.97269ZM25.1854 26.1463V56.341C24.5049 56.723 22.6836 57.2471 20.6803 56.2845V22.6401C20.6803 21.5284 20.7713 20.4367 20.9441 19.3722C21.1625 19.8672 21.5173 20.302 21.9904 20.6168C22.4834 20.957 23.0566 21.1335 23.6443 21.1335C23.8262 21.1335 24.01 21.1172 24.1938 21.0826C24.7997 20.968 25.3401 20.6732 25.7585 20.2438C25.3819 22.0688 25.1836 24.0429 25.1836 26.1499L25.1854 26.1463ZM25.9405 17.6055C25.6021 17.6128 25.3255 17.8839 25.3128 18.2223C25.2982 18.5571 25.2018 18.861 25.0271 19.1102C24.776 19.4814 24.3957 19.7307 23.9572 19.8144C23.5242 19.8963 23.0857 19.8035 22.7145 19.5487C22.1723 19.1867 21.8994 18.5553 22.0031 17.9021C22.0304 17.7274 21.9867 17.5491 21.8794 17.409C21.772 17.2689 21.6119 17.1779 21.4354 17.1597C21.4354 17.1597 21.4336 17.1597 21.4318 17.1597C21.2371 17.1379 21.0242 17.056 20.8186 16.9268C20.7968 16.9123 20.7731 16.9014 20.7513 16.885C20.5639 16.7613 20.4092 16.6048 20.2909 16.421C20.1781 16.25 20.0999 16.0571 20.058 15.8479C19.9707 15.4075 20.0635 14.9581 20.3164 14.5815C20.5311 14.2704 20.8441 14.0466 21.1989 13.9356C21.3626 13.8846 21.5337 13.8555 21.7083 13.8555C21.8029 13.8555 21.8939 13.8319 21.9758 13.7955C22.1668 13.7081 22.3106 13.5316 22.3452 13.3115C22.3743 13.1295 22.4307 12.9567 22.5144 12.7947C22.5453 12.7329 22.5817 12.6747 22.6199 12.6164C22.8637 12.2525 23.2385 12.0069 23.6734 11.9232C23.697 11.9177 23.7225 11.9159 23.7462 11.9123C24.0282 11.8704 24.312 11.9014 24.574 11.9996C24.696 12.0451 24.8142 12.1051 24.9252 12.1797C25.3983 12.5 25.6767 13.0622 25.6494 13.6499C25.6348 13.9756 25.8659 14.2594 26.1861 14.314C26.4154 14.3522 26.6319 14.4396 26.8266 14.5688C27.0941 14.7525 27.2906 15.0018 27.4107 15.2802C27.6326 15.7878 27.5999 16.3919 27.2706 16.8795C27.085 17.1543 26.812 17.3653 26.5027 17.4872C26.3226 17.5582 26.1315 17.5982 25.9369 17.6037L25.9405 17.6055ZM57.2305 51.4428H26.4736V26.1463C26.4736 23.2533 26.8412 20.6586 27.5453 18.3934C27.8564 18.1859 28.1275 17.9185 28.3422 17.6019C28.3859 17.5364 28.4259 17.469 28.4642 17.3999C28.9773 17.9785 29.7069 18.457 30.6494 18.8282C30.7258 18.8591 30.8059 18.8737 30.8859 18.8737C31.1115 18.8737 31.3262 18.7554 31.4445 18.5498C32.1905 17.2489 32.4052 16.0371 32.085 14.9454C31.8757 14.2376 31.4372 13.5862 30.7786 12.9985C30.9496 12.7147 31.077 12.409 31.1497 12.0924C31.8084 11.9468 32.4088 11.5702 32.8437 11.028C35.3837 16.7376 38.5478 21.3282 42.4252 24.9509C45.9259 28.2205 49.7578 30.4967 53.6042 32.4763C53.5642 32.5291 53.5224 32.58 53.486 32.6364C52.5817 33.9738 52.931 35.8078 54.2665 36.7285C54.4685 36.8668 54.6923 36.9814 54.9307 37.0669C54.9689 37.9967 55.4438 38.8701 56.2262 39.3923C56.7192 39.7325 57.2924 39.909 57.8801 39.909C58.0329 39.909 58.1876 39.8944 58.3404 39.8708C58.4641 40.3675 58.7134 40.8315 59.0882 41.2136C58.9954 41.3064 58.9318 41.4246 58.9081 41.5611L57.2323 51.4392L57.2305 51.4428ZM60.3 53.1295C59.554 53.0695 58.8863 52.9439 58.4587 52.7329C58.4132 52.711 58.3695 52.6874 58.3295 52.6619L58.5351 51.4447L60.0944 42.2489L60.2436 42.2289C60.2564 42.3253 60.2764 42.4181 60.2982 42.5127C60.4092 42.9785 60.6275 43.4134 60.9423 43.7754C60.9951 43.8355 61.0515 43.8919 61.1097 43.9483C61.1297 45.5513 61.0315 46.9541 60.9423 47.7074C60.9096 47.984 60.8786 48.1768 60.8532 48.2551C60.7585 48.4789 60.8004 48.7263 60.9423 48.9046C61.0024 48.9811 61.0788 49.0466 61.1716 49.0902C61.2607 49.1321 61.3535 49.1521 61.4463 49.1521C61.4936 49.1521 61.5409 49.1448 61.5864 49.1357C61.7738 49.0939 61.9412 48.9701 62.0286 48.7827C62.2396 48.3351 62.3797 46.4265 62.3979 44.6852C62.6454 44.7525 62.9019 44.7889 63.1603 44.7889C63.3532 44.7889 63.546 44.7707 63.7389 44.7325C63.939 44.6925 64.1301 44.6324 64.312 44.556L64.5959 51.4447L64.6486 52.7329L64.6541 52.8584C64.0901 53.0349 62.8492 53.1714 61.5864 53.1768C61.3717 53.1768 61.1552 53.175 60.9423 53.1677C60.724 53.1605 60.5075 53.1477 60.2982 53.1313L60.3 53.1295ZM66.0933 51.4428V56.2318C65.22 56.5375 63.1694 57.0997 61.5882 56.3027V54.4523C62.5489 54.4487 63.4259 54.3704 63.9572 54.294C65.4965 54.0757 65.764 53.77 65.895 53.5007C65.9405 53.4061 65.9641 53.3006 65.9587 53.1932L65.9405 52.7292L65.8877 51.441L65.562 43.5353C65.5711 43.5225 65.5821 43.5098 65.5911 43.4952C65.804 43.1914 65.9587 42.842 66.0442 42.48C66.0606 42.4763 66.077 42.4709 66.0915 42.4672V51.441L66.0933 51.4428ZM66.7793 40.5367C66.7665 40.5567 66.7502 40.5731 66.7374 40.5913C66.5682 40.8206 66.3462 40.9989 66.0933 41.1135C65.8986 41.2027 65.6876 41.2536 65.4692 41.2609C65.4674 41.2609 65.4656 41.2609 65.4638 41.2609C65.1545 41.2682 64.8997 41.4956 64.847 41.7922C64.8415 41.8195 64.8361 41.8486 64.8342 41.8777C64.8215 42.1907 64.716 42.5036 64.5267 42.7729C64.4485 42.8894 64.3575 42.9931 64.2538 43.0859C64.0409 43.2769 63.7807 43.4097 63.4896 43.4661C63.0493 43.5535 62.5981 43.4607 62.2232 43.2078C61.9157 42.9985 61.6974 42.6892 61.5864 42.3435C61.5573 42.2507 61.5318 42.1543 61.5191 42.0578C61.4973 41.8941 61.4973 41.7267 61.5246 41.5593C61.5337 41.5083 61.5337 41.4574 61.53 41.4083C61.5209 41.29 61.4809 41.1754 61.4099 41.0771C61.3153 40.9461 61.1734 40.8588 61.0151 40.8279C61.0042 40.826 60.9951 40.8224 60.9842 40.8206C60.9696 40.8188 60.9569 40.8151 60.9423 40.8115C60.704 40.7696 60.4929 40.6877 60.2982 40.5586C60.2909 40.5549 60.2855 40.5513 60.2782 40.5458C59.8652 40.2656 59.6177 39.8417 59.5559 39.3886C59.8433 39.1903 60.0944 38.9428 60.2964 38.6499C60.3037 38.6408 60.3109 38.6317 60.3164 38.6226C60.5256 38.3224 60.6748 37.9785 60.7567 37.6073C60.8186 37.5946 60.8786 37.5764 60.9405 37.5582C60.986 37.5455 61.0296 37.5327 61.0733 37.5182C61.1188 37.5145 61.1661 37.5109 61.2116 37.5127C61.3499 37.5145 61.4772 37.4727 61.5828 37.4035C61.6756 37.3417 61.752 37.2562 61.8011 37.1543C62.0995 36.9487 62.3615 36.6903 62.569 36.3846C62.5762 36.3755 62.5799 36.3646 62.5871 36.3555C62.6854 36.2063 62.7691 36.0517 62.8382 35.8934C62.8419 35.8934 62.8437 35.8934 62.8473 35.8934C63.0802 35.8934 63.3113 35.8624 63.5387 35.8078C63.6716 35.7751 63.8026 35.7369 63.9318 35.6877C64.0009 35.7533 64.0737 35.8133 64.1483 35.8715C64.3739 36.0462 64.6268 36.1863 64.8961 36.2918C64.9634 36.3919 65.0162 36.5011 65.0599 36.6139C65.1417 36.8268 65.1836 37.056 65.1727 37.2907C65.1581 37.6146 65.3855 37.8984 65.704 37.9549C65.8331 37.9785 65.9641 38.0204 66.0897 38.0786C66.1752 38.1168 66.2589 38.1605 66.3371 38.2132C66.4918 38.3188 66.6246 38.4479 66.7338 38.5935C66.8848 38.7936 66.9903 39.0284 67.0395 39.2813C67.1232 39.7198 67.0286 40.1656 66.7775 40.5385L66.7793 40.5367ZM66.8175 34.9781C66.792 34.9945 66.7647 35.0109 66.7374 35.0254C66.5755 35.1128 66.399 35.171 66.2116 35.1983C66.1734 35.2038 66.1334 35.2092 66.0933 35.211C66.0551 35.2129 66.0169 35.2165 65.9787 35.2165C65.8677 35.2147 65.7585 35.1983 65.653 35.1765C65.5857 35.1619 65.5202 35.1455 65.4565 35.1237C65.1163 35.0109 64.8197 34.8035 64.6195 34.5178C64.6032 34.4942 64.5813 34.476 64.5613 34.4541C64.4376 34.3213 64.2684 34.2449 64.0919 34.2449C64.0191 34.2449 63.9463 34.2594 63.8772 34.2831C63.8353 34.2976 63.7935 34.3158 63.7535 34.3413C63.5442 34.4723 63.3131 34.5542 63.0784 34.5869C63.002 34.5979 62.9274 34.6033 62.851 34.6033C62.7072 34.6033 62.569 34.5833 62.4361 34.5487C62.3943 34.5378 62.3524 34.5251 62.3106 34.5123C62.0759 34.4305 61.863 34.2995 61.6883 34.1284C61.6519 34.0939 61.6192 34.0575 61.5864 34.0193C61.4627 33.8737 61.3644 33.7081 61.2971 33.5262C61.2298 33.346 61.1898 33.1514 61.1898 32.9458C61.1898 32.8548 61.1989 32.7638 61.2134 32.6746C61.248 32.4581 61.3262 32.2525 61.4372 32.0669C61.4809 31.9942 61.53 31.9232 61.5846 31.8577C61.7374 31.6757 61.9285 31.5265 62.1486 31.4228C62.3033 31.35 62.4234 31.219 62.4816 31.0589C62.5398 30.8988 62.5307 30.7205 62.458 30.5658C62.3488 30.3329 62.2851 30.0655 62.2851 29.8326C62.2851 29.7143 62.2978 29.5997 62.3197 29.4887C62.3561 29.3104 62.4234 29.1412 62.5125 28.9883C62.5544 28.9174 62.5999 28.85 62.6508 28.7845C62.7545 28.6535 62.8764 28.5389 63.0129 28.4443C63.0511 28.4188 63.0893 28.3952 63.1294 28.3715C63.1348 28.3679 63.1421 28.3642 63.1476 28.3606C63.3641 28.2405 63.6097 28.1696 63.8717 28.1568C63.8954 28.1568 63.919 28.1532 63.9445 28.1532C64.1392 28.1532 64.3302 28.1896 64.5104 28.2551C64.8397 28.3752 65.1308 28.5971 65.3382 28.8992C65.5056 29.143 65.8149 29.2376 66.0897 29.1375C66.1079 29.1303 66.1261 29.1266 66.1443 29.1175C66.3226 29.0338 66.5246 28.9847 66.7338 28.9701C66.7756 28.9665 66.8175 28.9629 66.8593 28.9629C66.9721 28.9629 67.0831 28.9738 67.1905 28.9956C67.2542 29.0083 67.316 29.0247 67.3761 29.0447C68.0475 29.2613 68.5351 29.8835 68.5351 30.6077C68.5224 31.2008 68.2167 31.7412 67.72 32.056C67.4507 32.2252 67.3451 32.5673 67.4725 32.8584C67.5671 33.0731 67.6163 33.3078 67.6163 33.5353C67.6163 33.8519 67.5271 34.1484 67.3761 34.4014C67.236 34.6361 67.0413 34.8308 66.812 34.9727L66.8175 34.9781Z" fill="#645050"/>
<path d="M64.3304 37.5965H64.3285C63.4697 37.0142 62.3471 37.1143 61.5902 37.7711C61.4446 37.8967 61.3136 38.0404 61.199 38.206C61.0898 38.3716 61.0061 38.5481 60.9461 38.7282C60.7787 39.2158 60.786 39.7362 60.9461 40.2056C61.0189 40.4167 61.1207 40.615 61.2554 40.7951C61.3518 40.9261 61.4628 41.048 61.5902 41.1572C61.6575 41.2154 61.7303 41.2718 61.8067 41.3228C61.8285 41.3374 61.8486 41.3501 61.8704 41.3628C62.2325 41.5939 62.6437 41.714 63.064 41.714C63.2077 41.714 63.3515 41.6994 63.4952 41.6721C63.9719 41.5793 64.3977 41.3355 64.7215 40.9825C64.7943 40.9025 64.8653 40.8188 64.9272 40.7278C64.9999 40.6241 65.0618 40.5149 65.1146 40.4021C65.3092 39.9909 65.3711 39.5288 65.2874 39.0666C65.1782 38.4644 64.838 37.9422 64.3322 37.5965H64.3304ZM63.8664 39.9946C63.719 40.2111 63.4988 40.3585 63.2477 40.4076C62.9985 40.4567 62.7437 40.4039 62.5236 40.2529C62.0887 39.9673 61.9777 39.365 62.2689 38.9229C62.4563 38.6481 62.7638 38.4989 63.0731 38.4989C63.2568 38.4989 63.4424 38.5517 63.6062 38.6609C63.8245 38.8101 63.9719 39.0357 64.0192 39.2959C64.0647 39.5433 64.0119 39.789 63.8682 39.9946H63.8664Z" fill="#645050"/>
<path d="M53.3314 28.448L54.1411 29.0411C54.2558 29.1248 54.3886 29.1667 54.5214 29.1667C54.7197 29.1667 54.9144 29.0757 55.0418 28.9029C55.2529 28.6154 55.191 28.2133 54.9035 28.0022L54.0938 27.4091C53.8063 27.198 53.4042 27.2599 53.1932 27.5473C52.9821 27.8348 53.044 28.2369 53.3314 28.448Z" fill="#645050"/>
<path d="M48.184 15.8115C48.0003 15.5076 47.6036 15.4094 47.2998 15.5931C46.9959 15.7769 46.8976 16.1736 47.0814 16.4774L47.6036 17.3399C47.7255 17.54 47.9366 17.651 48.1549 17.651C48.2677 17.651 48.3842 17.6219 48.4879 17.5582C48.7917 17.3744 48.89 16.9778 48.7062 16.6739L48.184 15.8115Z" fill="#645050"/>
<path d="M61.5886 50.4694C61.5541 50.4112 61.5122 50.3548 61.4576 50.3075C61.3102 50.1783 61.1228 50.1328 60.9445 50.1583C60.7972 50.1783 60.6552 50.2474 60.5497 50.3693L60.4242 50.5131C60.3677 50.5768 60.3277 50.6514 60.3004 50.726C60.2531 50.8606 60.2549 51.0062 60.3004 51.1408C60.335 51.2463 60.395 51.3428 60.4842 51.421C60.4933 51.4301 60.5042 51.4356 60.5151 51.4428C60.6316 51.5338 60.7699 51.5793 60.9081 51.5793C60.9209 51.5793 60.9318 51.5757 60.9445 51.5757C61.0719 51.5684 61.1974 51.5247 61.303 51.4428C61.3357 51.4174 61.3667 51.3919 61.394 51.3591L61.5195 51.2154C61.5468 51.1845 61.5686 51.1517 61.5886 51.1172C61.7069 50.9152 61.7051 50.6677 61.5886 50.4676V50.4694Z" fill="#645050"/>
<path d="M26.9139 10.9625C27.3033 11.2191 27.7436 11.3428 28.1748 11.3428C28.9008 11.3428 29.6086 10.9971 30.0307 10.3585C30.371 9.85992 30.4965 9.25585 30.3819 8.66087C30.2691 8.07135 29.9361 7.56371 29.4467 7.23074C29.0828 6.98329 28.6643 6.85046 28.2331 6.84136C28.073 6.83772 27.911 6.85046 27.7491 6.88139C27.1577 6.99602 26.6428 7.33445 26.3008 7.83481C26.0533 8.20235 25.9314 8.6172 25.9205 9.03205C25.9041 9.77259 26.2498 10.5113 26.9121 10.9625H26.9139ZM27.3688 8.55716C27.5162 8.34064 27.74 8.19507 27.9965 8.14413C28.0584 8.13139 28.1221 8.12593 28.1839 8.12593C28.375 8.12593 28.5624 8.18234 28.7243 8.29333C28.7243 8.29333 28.7243 8.29333 28.7262 8.29515C28.9318 8.43343 29.0719 8.64813 29.1192 8.89922C29.1683 9.15577 29.1155 9.41414 28.9627 9.63794C28.677 10.0728 28.0766 10.1838 27.6326 9.89085C27.1941 9.59064 27.0759 8.9902 27.3688 8.55534V8.55716Z" fill="#645050"/>
<path d="M24.8218 13.9556C24.3233 13.6172 23.7228 13.4935 23.1297 13.6063C22.9987 13.6317 22.8731 13.6681 22.7512 13.7154C22.3236 13.8774 21.9579 14.1612 21.7014 14.5415C21.6231 14.6561 21.5595 14.7744 21.5049 14.8981C21.4739 14.9764 21.4448 15.0546 21.4157 15.131C21.241 15.6841 21.2902 16.2846 21.5394 16.8031C21.705 17.147 21.9579 17.4563 22.2927 17.6911C22.6784 17.944 23.1133 18.0659 23.5464 18.0659C24.276 18.0659 24.9947 17.7183 25.4332 17.0761C25.7643 16.5721 25.8862 15.9461 25.7643 15.3566C25.6442 14.7762 25.3113 14.2795 24.8218 13.9574V13.9556ZM24.3615 16.3574C24.0613 16.7959 23.4499 16.9123 23.0132 16.6248C22.5729 16.3173 22.4601 15.7078 22.764 15.2638C22.9022 15.0582 23.1169 14.9199 23.368 14.8708C23.4299 14.8581 23.4918 14.8526 23.5536 14.8526C23.7465 14.8526 23.9339 14.9109 24.0977 15.02C24.1013 15.0218 24.1031 15.0237 24.1068 15.0255C24.3087 15.1583 24.4488 15.3675 24.4998 15.6114C24.5525 15.8697 24.4998 16.1427 24.3615 16.3537V16.3574Z" fill="#645050"/>
<path d="M57.7839 36.8395C57.9186 36.8395 58.0532 36.8268 58.1897 36.8031C58.7919 36.694 59.3141 36.3537 59.6617 35.8443C59.7253 35.7515 59.7763 35.655 59.8236 35.555C59.92 35.3548 59.9837 35.1437 60.0165 34.9309C60.0528 34.6907 60.051 34.4469 60.011 34.2103C59.9109 33.6263 59.5871 33.0804 59.0594 32.7202C59.0558 32.7183 59.0539 32.7165 59.0503 32.7147C58.3207 32.2344 57.4328 32.2198 56.7232 32.6055C56.5157 32.7183 56.3247 32.8657 56.1573 33.0459C56.0772 33.1314 56.0008 33.2223 55.9317 33.3224C55.8753 33.4043 55.8261 33.4916 55.7825 33.579C55.5568 34.0248 55.4841 34.5269 55.5823 35.0237C55.6988 35.6132 56.0354 36.1172 56.5321 36.4465C56.9033 36.7049 57.3345 36.8377 57.7821 36.8377L57.7839 36.8395ZM56.9433 34.1467C56.9615 34.1139 56.9761 34.0793 56.9979 34.0484C57.1162 33.8737 57.2817 33.7518 57.4637 33.6845C57.5692 33.6463 57.682 33.6245 57.7948 33.6245C57.9804 33.6245 58.1678 33.6772 58.3371 33.7882C58.519 33.9138 58.6427 34.0939 58.7064 34.2904C58.7792 34.516 58.7701 34.7653 58.6682 34.9891C58.6464 35.0346 58.6264 35.0801 58.5972 35.1219C58.448 35.3421 58.2206 35.4895 57.9604 35.5368C57.713 35.5822 57.4673 35.5295 57.2672 35.3894C57.2617 35.3857 57.2563 35.3821 57.2508 35.3785C57.0416 35.2402 56.8978 35.0273 56.8487 34.7762C56.805 34.5597 56.8414 34.3413 56.9433 34.1485V34.1467Z" fill="#645050"/>
<path d="M66.0936 29.7289C66.0736 29.7144 66.0554 29.6998 66.0354 29.6852C65.7461 29.4833 65.4058 29.3468 65.0401 29.3013C64.9473 29.2904 64.8545 29.2813 64.7599 29.2813C64.427 29.2813 64.1122 29.3559 63.8265 29.4887C63.63 29.5797 63.4481 29.698 63.2861 29.8399C63.1151 29.9909 62.9659 30.1674 62.8476 30.3639C62.6384 30.7078 62.5146 31.1117 62.5146 31.543C62.5146 32.7802 63.5227 33.7882 64.7599 33.7882C64.7654 33.7882 64.7708 33.7882 64.7763 33.7882C65.011 33.7882 65.2366 33.7482 65.4495 33.6791C65.6569 33.6117 65.8498 33.5171 66.0263 33.397C66.05 33.3807 66.0718 33.3625 66.0954 33.3461C66.3611 33.1496 66.5831 32.8967 66.7395 32.6037C66.9088 32.289 67.0052 31.9269 67.0052 31.5448C67.0052 31.1627 66.9088 30.7951 66.7395 30.4785C66.5831 30.1838 66.3611 29.9291 66.0954 29.7307L66.0936 29.7289ZM65.4058 32.2435C65.2475 32.389 65.0401 32.4818 64.8109 32.4946C64.7927 32.4946 64.7763 32.5 64.7581 32.5C64.2304 32.5 63.801 32.0706 63.801 31.543C63.801 31.341 63.8611 31.1536 63.9648 30.9989C64.0867 30.8152 64.2723 30.6805 64.4852 30.615C64.5725 30.5877 64.6617 30.5695 64.7581 30.5695C65.2858 30.5695 65.7152 31.0062 65.7152 31.5448C65.7152 31.8213 65.5951 32.0706 65.4058 32.2453V32.2435Z" fill="#645050"/>
<path d="M76.6539 34.2031C76.7267 34.1721 76.7977 34.1357 76.865 34.0975C76.9105 34.0721 76.9523 34.0448 76.996 34.0156C77.0433 33.9847 77.087 33.952 77.1324 33.9192C77.3617 33.7427 77.5527 33.5262 77.7001 33.2751C77.7583 33.1732 77.8129 33.0695 77.8566 32.9585C77.9458 32.7311 77.9931 32.4945 78.0058 32.258C78.024 31.9087 77.9621 31.5575 77.8148 31.2282C77.7365 31.0517 77.6364 30.8916 77.5218 30.746C77.48 30.6932 77.4381 30.6423 77.3926 30.595C77.2198 30.4112 77.0178 30.2584 76.7976 30.1419C76.3282 29.8945 75.7787 29.8144 75.2438 29.9381C75.1073 29.9691 74.9727 30.0127 74.8417 30.071C73.7099 30.575 73.2005 31.9087 73.7063 33.044C73.9501 33.5917 74.3886 34.0138 74.9418 34.234C75.2074 34.3395 75.4858 34.3923 75.7624 34.3923C75.917 34.3923 76.0717 34.3759 76.2245 34.3432C76.3719 34.3104 76.5174 34.2649 76.6575 34.2012L76.6539 34.2031ZM75.4148 33.0386C75.1765 32.944 74.9872 32.762 74.8817 32.5237C74.6652 32.036 74.8817 31.4647 75.3639 31.25C75.4876 31.1954 75.6186 31.1681 75.7478 31.1681C76.119 31.1681 76.4756 31.3865 76.6375 31.7504C76.7431 31.9869 76.7485 32.2489 76.6557 32.4891C76.5629 32.7274 76.381 32.9167 76.1372 33.0222C75.9061 33.1241 75.6514 33.1296 75.4148 33.0368V33.0386Z" fill="#645050"/>
<path d="M15.7171 30.3184C15.4333 29.5888 14.882 29.0175 14.1651 28.7063C13.783 28.5317 13.3736 28.4498 12.9624 28.4516C12.9879 27.9003 12.8587 27.3435 12.5821 26.8522C12.7295 26.6667 12.855 26.4538 12.9624 26.2118C13.2844 25.4894 13.3081 24.6852 13.0261 23.9483C12.744 23.2096 12.1909 22.6255 11.4686 22.3035C11.4686 22.3035 11.4649 22.3035 11.4631 22.3017C10.7226 21.9778 9.88742 21.9742 9.14688 22.2744C8.93946 22.1052 8.7102 21.9669 8.48094 21.8723C7.75132 21.5466 6.94164 21.5266 6.2011 21.8159C5.46966 22.1015 4.89651 22.6547 4.58902 23.3715C4.27061 24.0975 4.25787 24.8908 4.52716 25.6022C3.58647 24.9218 2.26005 24.6652 0.57701 24.8435C0.398699 24.8617 0.236763 24.9545 0.129412 25.0964C0.0220613 25.2402 -0.0216069 25.4203 0.0111442 25.5968C0.338655 27.4199 0.988218 28.6372 1.99804 29.3213C2.0035 29.325 2.01078 29.3286 2.01624 29.3322C1.97803 29.4014 1.94164 29.4705 1.90889 29.5415C1.57046 30.3111 1.58502 31.2027 1.92708 31.9705C1.7797 32.1561 1.65598 32.3544 1.5559 32.5673C1.55226 32.5746 1.55045 32.5801 1.54681 32.5873C0.897243 34.0957 1.56318 35.8006 3.06245 36.4702C3.76114 36.7831 4.52898 36.8068 5.23858 36.5538C5.49513 36.8195 5.80445 37.036 6.15379 37.187V43.0786C5.96275 43.1004 5.78625 43.1259 5.6316 43.1496C3.58101 43.4789 2.57301 44.1084 2.62759 45.0164C2.62759 45.0164 2.62759 45.0182 2.62759 45.02V53.8337C2.62759 56.2227 5.0075 58.1659 7.93145 58.1659H8.95765C11.9416 58.1659 14.2797 56.2627 14.2797 53.8337V45.766C14.3725 45.6441 14.4271 45.5131 14.4489 45.3694C14.4708 45.2292 14.4762 44.9145 14.1869 44.6343C13.7848 43.6499 12.2601 43.1914 10.5552 43.0185V36.7831C10.577 36.7758 10.5988 36.7704 10.6207 36.7631C10.8809 37.0233 11.1847 37.2343 11.5195 37.3854C11.9071 37.5582 12.3165 37.6456 12.7277 37.6456C13.0897 37.6456 13.4518 37.5782 13.7975 37.4436C14.529 37.1579 15.1039 36.6048 15.4078 35.897C15.799 35.0418 15.7389 34.0484 15.2786 33.2333C15.4314 33.0422 15.5606 32.8275 15.6625 32.6001C15.9882 31.8704 16.0082 31.0608 15.7189 30.3202L15.7171 30.3184ZM5.9209 25.5076C5.58793 25.0327 5.5297 24.4268 5.76988 23.8828C5.94273 23.4825 6.26296 23.1732 6.67053 23.0131C7.0872 22.8512 7.54389 22.8621 7.9733 23.0531C8.1789 23.1386 8.38451 23.2897 8.53916 23.4716C8.74659 23.7136 9.09775 23.7664 9.36886 23.599C9.84557 23.3024 10.4351 23.2587 10.9464 23.4789C11.3539 23.6608 11.6651 23.9902 11.8234 24.405C11.9835 24.8217 11.9689 25.2766 11.787 25.6859C11.6742 25.9407 11.5341 26.1281 11.3594 26.2609C11.2175 26.3683 11.1247 26.5302 11.1065 26.7085C11.0883 26.8868 11.1429 27.0633 11.2611 27.198C11.5941 27.58 11.7342 28.0622 11.6669 28.5335C11.5195 28.4316 11.3594 28.3388 11.1829 28.2551C10.879 28.1204 10.5625 28.0404 10.2404 28.0113C10.5206 27.7893 10.7462 27.5 10.8972 27.1616C11.1411 26.6139 11.1574 26.0025 10.9445 25.4421C10.7298 24.8781 10.3095 24.4341 9.76187 24.1903C9.2142 23.9465 8.60285 23.9283 8.04062 24.143C7.47657 24.3577 7.03261 24.778 6.7888 25.3275C6.54499 25.877 6.53225 26.4902 6.75241 27.0542C6.95983 27.5819 7.34921 28.004 7.85321 28.2551C7.88414 28.2696 7.91144 28.286 7.94237 28.3006C8.09521 28.3679 8.25168 28.417 8.40998 28.4498C8.20619 28.5771 8.02242 28.73 7.85685 28.9028C7.80954 28.952 7.76405 29.0011 7.72039 29.052C7.34193 29.2631 6.88341 29.3104 6.45765 29.1903C6.38851 29.1703 6.32119 29.1485 6.25569 29.1212C6.25387 29.1212 6.25205 29.1194 6.25023 29.1175C6.22657 29.1066 6.20292 29.0939 6.17927 29.0811C6.17927 29.0684 6.17563 29.0557 6.17563 29.0429C6.15379 28.7354 6.11376 28.4461 6.05918 28.1696C5.94819 27.6164 5.76806 27.127 5.52242 26.7049C5.60248 26.5793 5.70074 26.4647 5.81536 26.3646C6.06828 26.1481 6.11376 25.7769 5.92454 25.5058L5.9209 25.5076ZM9.71638 26.6412C9.61267 26.8759 9.42526 27.0542 9.19055 27.1452C8.95583 27.2362 8.69746 27.2289 8.46274 27.1234C8.22621 27.0178 8.04426 26.8268 7.94782 26.5848C7.85321 26.3446 7.85867 26.0844 7.96238 25.8515C8.06609 25.6186 8.25532 25.4403 8.4955 25.3493C8.6083 25.3075 8.72475 25.2857 8.8412 25.2857C8.97585 25.2857 9.10867 25.3148 9.23603 25.3712C9.46893 25.4749 9.64724 25.6641 9.73822 25.9043C9.82919 26.1463 9.82191 26.4083 9.7182 26.643L9.71638 26.6412ZM9.05772 36.8814C9.12686 36.8941 9.196 36.9068 9.26515 36.9159V43.115H7.442V37.4309C8.02242 37.409 8.58465 37.2161 9.05772 36.8814ZM7.13451 32.3945C7.05627 32.5164 6.98531 32.6437 6.9289 32.7747C6.8725 32.9003 6.82883 33.0295 6.79244 33.1568C6.51769 33.3897 6.12832 33.4643 5.78261 33.3115C5.54972 33.2078 5.37141 33.0185 5.28043 32.7784C5.18946 32.5364 5.19673 32.2744 5.30045 32.0397C5.40598 31.8013 5.59521 31.6194 5.83356 31.5247C5.94455 31.4811 6.061 31.4592 6.17563 31.4592C6.30481 31.4592 6.43582 31.4865 6.55954 31.5411C6.7979 31.6448 6.97985 31.8322 7.07264 32.0724C7.11267 32.1779 7.13087 32.2871 7.13451 32.3963V32.3945ZM1.43218 26.0753C2.52388 26.0535 3.35176 26.2791 3.9067 26.7467C3.96129 26.7922 4.01042 26.8413 4.06136 26.8923C4.29608 27.1325 4.48167 27.429 4.61813 27.7857C4.62541 27.802 4.62905 27.8202 4.63633 27.8384C4.70365 28.0222 4.75823 28.2223 4.80008 28.4389C4.80372 28.4589 4.80736 28.4789 4.811 28.4989C4.81828 28.5426 4.82919 28.5862 4.83647 28.6317C4.60539 28.659 4.38887 28.6699 4.18509 28.6663C4.01406 28.6627 3.85394 28.6481 3.69928 28.6226C3.39542 28.5735 3.12614 28.4825 2.88414 28.3479C2.82774 28.317 2.77315 28.286 2.72039 28.2496C2.13451 27.853 1.71056 27.1379 1.434 26.0735L1.43218 26.0753ZM5.9773 35.4148C5.85539 35.2183 5.64433 35.1092 5.42963 35.1092C5.31864 35.1092 5.20765 35.1383 5.10576 35.1965C4.62905 35.4749 4.07592 35.5095 3.58829 35.2911C2.74222 34.9127 2.36558 33.9538 2.72585 33.1041C2.8241 32.8966 2.9642 32.7111 3.15161 32.5382C3.38451 32.3217 3.42636 31.9687 3.24804 31.7049C2.91871 31.2172 2.85685 30.5859 3.08611 30.0655C3.1225 29.9854 3.16617 29.9108 3.21347 29.8381C3.5428 29.9145 3.89579 29.9545 4.27061 29.9545C4.53079 29.9545 4.80372 29.9345 5.08756 29.8981C5.25132 30.0291 5.42963 30.1456 5.62432 30.2438C5.53516 30.2675 5.44782 30.2929 5.36049 30.3275C4.80736 30.5458 4.36886 30.9698 4.12504 31.5175C3.88123 32.0651 3.86486 32.6765 4.07774 33.2387C4.29244 33.8028 4.71275 34.2467 5.26224 34.4905C5.55336 34.6197 5.85721 34.6816 6.15743 34.6816C6.16107 34.6816 6.16471 34.6816 6.16835 34.6816C6.36668 34.6816 6.56136 34.6543 6.75059 34.6033C6.76515 34.6725 6.78152 34.7434 6.80336 34.8108C6.9289 35.2347 7.14724 35.6295 7.44746 35.9643C7.49659 36.0207 7.55117 36.0717 7.60576 36.1244C7.55299 36.1335 7.50023 36.139 7.44746 36.1426C7.23276 36.1554 7.01442 36.1281 6.80336 36.0553C6.76333 36.0407 6.72148 36.0262 6.68145 36.0098C6.47585 35.9207 6.30117 35.7951 6.15925 35.6423C6.09557 35.5731 6.03553 35.4985 5.98458 35.4167L5.9773 35.4148ZM12.9879 53.8337C12.9879 55.5131 11.1793 56.8777 8.95401 56.8777H7.92781C5.71347 56.8777 3.91216 55.5131 3.91216 53.8337V46.3228C6.35212 47.5218 10.8645 47.0051 12.5494 46.5884C12.7058 46.5502 12.8514 46.5102 12.986 46.4701V53.8319L12.9879 53.8337ZM11.5504 44.4814C12.5876 44.7052 12.9278 44.9927 12.9897 45.1092V45.1146C12.049 45.4876 9.2324 45.9716 6.67053 45.7005C5.46966 45.5731 4.56537 45.2966 4.06318 44.909C4.46165 44.6688 5.38232 44.4578 6.5086 44.3322C6.59593 44.3759 6.69237 44.4032 6.79608 44.4032H9.90743C10.0421 44.4032 10.1676 44.3613 10.2713 44.2886C10.7171 44.3322 11.1483 44.3941 11.5468 44.4814H11.5504ZM14.4835 32.0742C14.378 32.3089 14.2251 32.5127 14.0395 32.6601C13.9031 32.7693 13.8157 32.9294 13.7994 33.1041C13.783 33.2787 13.8394 33.4516 13.954 33.5844C14.3943 34.0921 14.4999 34.7726 14.2269 35.373C14.0541 35.7733 13.7339 36.0826 13.3263 36.2427C12.9096 36.4046 12.4529 36.3937 12.0453 36.21C11.7579 36.079 11.5068 35.8679 11.3175 35.6004C11.192 35.4221 10.9937 35.3257 10.7899 35.3257C10.7098 35.3257 10.6298 35.3421 10.5534 35.3712C10.5224 35.3839 10.4897 35.3985 10.4606 35.4167C10.3423 35.4876 10.2167 35.5422 10.0857 35.5804C10.0275 35.5986 9.96929 35.6132 9.90925 35.6241C9.72366 35.6568 9.53443 35.6587 9.34884 35.6277C9.31973 35.6223 9.29244 35.6168 9.26515 35.6095C9.15779 35.5859 9.05226 35.5549 8.95219 35.5095C8.87577 35.4749 8.80663 35.4349 8.73749 35.3912C8.42454 35.191 8.19346 34.8981 8.06973 34.5651C7.99331 34.3613 7.95692 34.143 7.9642 33.921C7.9642 33.8719 7.96966 33.8246 7.97512 33.7755C7.99513 33.6135 8.0388 33.4534 8.10794 33.2969C8.11158 33.2897 8.11522 33.2842 8.11886 33.2769C8.18254 33.1368 8.2717 33.004 8.37905 32.8857C8.40452 32.8566 8.43363 32.8311 8.46093 32.8038C8.47912 32.7875 8.4955 32.7693 8.51369 32.7529C8.61558 32.6656 8.68291 32.5509 8.71384 32.4272C8.76114 32.2489 8.73203 32.0542 8.61922 31.8941C8.37723 31.5502 8.28261 31.1372 8.34084 30.7278C8.36267 30.5731 8.4027 30.4203 8.4682 30.2711C8.4955 30.2074 8.52825 30.1474 8.56282 30.0873C8.59739 30.0291 8.63378 29.9745 8.67563 29.9218C8.76842 29.8017 8.87577 29.6961 8.99768 29.6088C9.05226 29.5688 9.10867 29.5324 9.16871 29.4996C9.2324 29.4632 9.29972 29.4305 9.36886 29.4032C9.52716 29.3413 9.69091 29.3049 9.85467 29.2922C10.124 29.2722 10.3932 29.3195 10.6425 29.4287C10.7808 29.4942 10.9009 29.5669 11.0046 29.6488C11.0901 29.7143 11.1647 29.7853 11.2248 29.8599C11.303 29.9563 11.4031 30.0255 11.5141 30.0637C11.6924 30.1255 11.8962 30.1092 12.0672 30.0036C12.2255 29.9054 12.3947 29.8362 12.5657 29.7926C12.926 29.6998 13.3008 29.7252 13.6338 29.8799C13.6392 29.8817 13.6429 29.8835 13.6483 29.8872C14.0486 30.06 14.3579 30.3803 14.5162 30.7878C14.6782 31.2045 14.6673 31.6612 14.4835 32.0742Z" fill="#645050"/>
<path d="M12.4544 30.5768C12.3252 30.5186 12.1924 30.4767 12.0578 30.444C11.6211 30.3403 11.1626 30.3676 10.7332 30.5295C10.6513 30.5604 10.5731 30.5968 10.4948 30.6369C10.2728 30.7515 10.0727 30.9025 9.90347 31.0826C9.85435 31.1336 9.80886 31.1882 9.76519 31.2446C9.65238 31.3883 9.55595 31.5448 9.48135 31.714C9.48135 31.714 9.48135 31.7176 9.47953 31.7176C9.33397 32.0524 9.27938 32.4036 9.2994 32.7475C9.31032 32.9276 9.34125 33.1041 9.39401 33.2733C9.46315 33.5026 9.57051 33.7191 9.70879 33.9174C9.77065 34.0048 9.83615 34.0903 9.90893 34.1685C10.0236 34.2922 10.1564 34.4014 10.3001 34.4978C10.3802 34.5506 10.4639 34.5997 10.553 34.6434C10.5803 34.658 10.6076 34.6725 10.6367 34.6853C10.9315 34.8163 11.239 34.8781 11.5428 34.8781C12.4017 34.8781 13.2223 34.3814 13.5916 33.5499C14.0956 32.4145 13.5862 31.0808 12.4544 30.5768ZM12.4144 33.0277C12.1979 33.5153 11.6466 33.7264 11.1589 33.5098C10.664 33.2897 10.4457 32.7311 10.6604 32.2362C10.7641 32.0033 10.9533 31.8268 11.1917 31.7358C11.4337 31.6449 11.6957 31.6521 11.9304 31.7558C12.4126 31.9705 12.6309 32.5419 12.4144 33.0295V33.0277Z" fill="#645050"/>
<path d="M87.3907 24.7089C87.4253 24.5324 87.3871 24.3505 87.2816 24.2049C87.176 24.0593 87.0159 23.9647 86.8376 23.9429C85.1382 23.7336 83.8518 23.9429 82.9129 24.5761C83.0112 24.0102 82.9493 23.4152 82.7073 22.8676C82.3944 22.1507 81.8158 21.5975 81.0789 21.3119C80.3402 21.0262 79.5359 21.0444 78.8027 21.3719C78.5571 21.4884 78.3369 21.6248 78.1458 21.7813C77.4017 21.4775 76.552 21.4847 75.8242 21.8177C74.3413 22.4818 73.6717 24.2267 74.3322 25.706C74.4322 25.9316 74.5632 26.1481 74.7179 26.3446C74.4322 26.8359 74.3012 27.3981 74.3285 27.9531C73.921 27.9531 73.5134 28.0331 73.1331 28.1987C73.1331 28.1987 73.1295 28.1987 73.1276 28.2005C72.4017 28.5244 71.8485 29.1103 71.5665 29.8508C71.2881 30.5859 71.3118 31.3828 71.632 32.0906C71.7321 32.3162 71.8631 32.5328 72.0177 32.7293C71.5483 33.5371 71.4883 34.5269 71.8849 35.3839C72.3635 36.4829 73.4442 37.1398 74.5869 37.1398C74.9835 37.1398 75.3893 37.0597 75.7787 36.8923C75.9333 36.8232 76.0789 36.7376 76.2172 36.643V43.0713C76.0261 43.095 75.8496 43.1186 75.695 43.1423C73.6444 43.4716 72.6364 44.1012 72.6928 45.0091C72.6928 45.0091 72.6928 45.0109 72.6928 45.0128V53.8264C72.6928 56.2154 75.0727 58.1587 77.9966 58.1587H79.0228C82.0068 58.1587 84.3449 56.2555 84.3449 53.8264V45.7587C84.4377 45.6368 84.4923 45.5058 84.5141 45.3621C84.5359 45.222 84.5414 44.9072 84.2521 44.627C83.85 43.6427 82.3252 43.1841 80.6204 43.0113V36.8541C80.8041 36.8104 80.9843 36.7522 81.1608 36.674C81.4992 36.5193 81.7994 36.3101 82.0505 36.0535C82.7528 36.2991 83.5334 36.2773 84.2321 35.9753C85.7113 35.3166 86.3918 33.5662 85.7496 32.0743C85.7441 32.0633 85.7405 32.0524 85.735 32.0415C85.6258 31.825 85.5076 31.6321 85.3766 31.4629C85.7241 30.7078 85.735 29.8363 85.3875 29.0448C85.3038 28.8574 85.2019 28.6809 85.0836 28.5171C85.1455 28.4825 85.2055 28.4498 85.2656 28.4116C86.3172 27.7456 87.0323 26.4975 87.3907 24.7034V24.7089ZM76.3554 22.9931C76.3554 22.9931 76.3591 22.9913 76.3627 22.9895C76.5702 22.893 76.7976 22.8475 77.025 22.8475C77.338 22.8475 77.6528 22.9367 77.9239 23.1095C78.2004 23.286 78.568 23.226 78.7736 22.9694C78.9082 22.8021 79.1047 22.6565 79.3431 22.5437C79.7488 22.3636 80.2019 22.3526 80.6167 22.5128C81.0298 22.6729 81.3554 22.9822 81.5301 23.3843C81.7667 23.9229 81.7102 24.5415 81.3809 24.9964C81.1844 25.2675 81.2299 25.6441 81.4846 25.8625C81.552 25.9207 81.6138 25.9862 81.6684 26.0553C81.441 26.5302 81.2808 27.0815 81.1881 27.7056C81.168 27.8348 81.1498 27.9622 81.1353 28.0968C81.1226 28.2315 81.1535 28.3606 81.2153 28.4716C81.2226 28.4862 81.2299 28.4989 81.239 28.5135C81.1808 28.5481 81.1226 28.5808 81.0589 28.6099C81.0534 28.6117 81.0498 28.6154 81.0461 28.6172C80.9806 28.6463 80.9133 28.67 80.846 28.69C80.4166 28.8173 79.949 28.7646 79.5578 28.5371C79.5177 28.4898 79.4741 28.4443 79.4304 28.4007C79.2648 28.2278 79.0792 28.075 78.8755 27.9476C79.0374 27.9167 79.1975 27.8676 79.354 27.7984C79.3886 27.7839 79.4195 27.7657 79.4541 27.7493C79.9635 27.4982 80.3529 27.0797 80.5585 26.5557C80.775 26.0007 80.7587 25.3912 80.5148 24.8417C80.271 24.294 79.8289 23.8701 79.2685 23.6518C78.7044 23.4298 78.0913 23.4443 77.5418 23.6882C76.9923 23.932 76.572 24.3759 76.3573 24.94C76.1444 25.5004 76.1608 26.1117 76.4046 26.6594C76.5592 27.0051 76.7903 27.2926 77.0705 27.5109C76.7448 27.5382 76.4191 27.6183 76.108 27.7584C75.9442 27.8348 75.7859 27.9294 75.6367 28.0349C75.5694 27.5692 75.7095 27.0852 76.0352 26.7194C76.1498 26.5903 76.2081 26.421 76.1972 26.25C76.1862 26.0772 76.1062 25.917 75.977 25.8042C75.7787 25.6314 75.6167 25.4167 75.513 25.182C75.1346 24.3341 75.5057 23.3734 76.3573 22.9913L76.3554 22.9931ZM81.4719 31.0317C81.7066 31.1226 81.894 31.301 81.9977 31.5357C82.1033 31.7704 82.1105 32.0342 82.0177 32.2744C81.9268 32.5146 81.7485 32.7038 81.5156 32.8075C81.279 32.913 81.017 32.9185 80.775 32.8257C80.6731 32.7857 80.5822 32.7275 80.5003 32.6565C80.4639 32.5346 80.422 32.4145 80.3711 32.2962C80.3147 32.1616 80.2455 32.0324 80.1655 31.9087C80.1764 31.5521 80.3875 31.21 80.7423 31.0535C80.8678 30.9971 81.0006 30.9698 81.1335 30.9698C81.2481 30.9698 81.3609 30.9916 81.4701 31.0335L81.4719 31.0317ZM78.8354 26.6194C78.3478 26.8359 77.7965 26.623 77.58 26.1372C77.4744 25.9025 77.4672 25.6387 77.56 25.3985C77.6509 25.1583 77.8292 24.9691 78.064 24.8654C78.1859 24.8108 78.3151 24.7835 78.4442 24.7835C78.5625 24.7835 78.6808 24.8053 78.7954 24.8508C79.0374 24.9454 79.2303 25.1292 79.334 25.3657C79.4377 25.6005 79.445 25.857 79.354 26.0899C79.263 26.3264 79.0792 26.5138 78.8336 26.6194H78.8354ZM75.9697 35.1074C75.7896 35.3785 75.5403 35.5914 75.2619 35.7187C74.4122 36.0844 73.4279 35.7042 73.0676 34.869C73.0658 34.8636 73.0621 34.8581 73.0603 34.8526C72.7965 34.2886 72.9075 33.5863 73.3351 33.1077C73.4497 32.9785 73.5079 32.8093 73.497 32.6383C73.4861 32.4654 73.406 32.3053 73.2768 32.1925C73.0785 32.0197 72.9166 31.805 72.8111 31.5666C72.6309 31.17 72.6182 30.7242 72.7747 30.3111C72.933 29.8945 73.2459 29.5633 73.6535 29.3814C73.9974 29.2322 74.3813 29.2067 74.7361 29.2922C74.9089 29.3341 75.0745 29.3996 75.2237 29.496C75.3966 29.6052 75.6022 29.6234 75.7823 29.5597C75.886 29.5233 75.9824 29.4596 76.0589 29.3723C76.128 29.2904 76.2099 29.2158 76.299 29.1467C76.4064 29.0612 76.5228 28.9865 76.6429 28.9301C76.8995 28.8155 77.1724 28.77 77.4435 28.7919C77.6018 28.8046 77.7601 28.841 77.9111 28.8992C77.9875 28.9283 78.0585 28.9647 78.1276 29.0047C78.1877 29.0393 78.2459 29.0757 78.3023 29.1176C78.4206 29.2067 78.5261 29.3104 78.6171 29.4287C78.6589 29.4833 78.6972 29.5397 78.7335 29.5997C78.7699 29.6616 78.8045 29.7271 78.8336 29.7944C78.8973 29.9363 78.9373 30.0874 78.9592 30.2384C79.0137 30.6441 78.9191 31.0644 78.679 31.4083C78.5716 31.563 78.5425 31.7467 78.5807 31.9196C78.6098 32.0506 78.679 32.1743 78.7881 32.2689C78.8081 32.2853 78.8245 32.3035 78.8445 32.3217C78.8736 32.349 78.9028 32.3745 78.9282 32.4018C79.0429 32.5255 79.1302 32.6547 79.1884 32.7984C79.1902 32.8039 79.1939 32.8093 79.1957 32.8148C79.2612 32.964 79.3049 33.1168 79.3267 33.2733C79.3267 33.2733 79.3267 33.2751 79.3267 33.2769C79.3558 33.4916 79.3431 33.71 79.2867 33.921C79.2703 33.9811 79.2521 34.043 79.2284 34.1012C79.1611 34.2722 79.0665 34.4287 78.9501 34.5652C78.8391 34.6962 78.7062 34.8071 78.557 34.8981C78.4915 34.9382 78.4242 34.9745 78.3514 35.0055C78.2186 35.0637 78.0803 35.1037 77.9421 35.1256C77.8001 35.1474 77.6564 35.151 77.5145 35.1365C77.4108 35.1256 77.3089 35.1074 77.2088 35.0764C77.0923 35.04 76.9795 34.9909 76.8704 34.9291C76.8613 34.9236 76.8522 34.92 76.8431 34.9145C76.6484 34.798 76.4173 34.798 76.2263 34.8908C76.128 34.94 76.0389 35.0109 75.9752 35.1092L75.9697 35.1074ZM79.334 36.8741V43.1132H77.5108V36.4283C77.7492 36.4429 77.9875 36.4247 78.2223 36.3792C78.4279 36.5266 78.6517 36.6521 78.8937 36.7449C79.0374 36.7995 79.1848 36.8414 79.334 36.8723V36.8741ZM83.0567 53.8337C83.0567 55.5131 81.2481 56.8777 79.0228 56.8777H77.9966C75.7823 56.8777 73.981 55.5131 73.981 53.8337V46.3228C76.421 47.5218 80.9333 47.0051 82.6182 46.5884C82.7747 46.5502 82.9202 46.5102 83.0549 46.4702V53.8319L83.0567 53.8337ZM81.6193 44.4815C82.6564 44.7053 82.9966 44.9927 83.0585 45.1092V45.1146C82.1178 45.4876 79.3012 45.9716 76.7394 45.7005C75.5385 45.5732 74.6342 45.2966 74.132 44.909C74.5305 44.6689 75.4512 44.4578 76.5774 44.3323C76.6648 44.3759 76.7612 44.4032 76.8649 44.4032H79.9763C80.1127 44.4032 80.2365 44.3614 80.3402 44.2886C80.7859 44.3323 81.2172 44.3941 81.6156 44.4815H81.6193ZM83.7153 34.8017C83.2241 35.0146 82.6546 34.98 82.1906 34.7107C81.894 34.5379 81.5137 34.6288 81.3263 34.9163C81.1626 35.1674 80.9151 35.3767 80.6331 35.5058C80.6295 35.5058 80.6258 35.5077 80.6222 35.5095C80.4148 35.6005 80.1964 35.6478 79.9781 35.6514C79.8853 35.6514 79.7925 35.6459 79.7015 35.6332C79.7998 35.5404 79.8944 35.444 79.9781 35.3384C80.1637 35.1092 80.3147 34.8508 80.4239 34.567C80.4839 34.416 80.5258 34.2613 80.5585 34.1048C80.5785 34.1103 80.6004 34.1139 80.6204 34.1194C80.7859 34.1576 80.9533 34.1794 81.1226 34.1794C81.4337 34.1794 81.743 34.1139 82.0359 33.9847C82.5854 33.7409 83.0057 33.297 83.2204 32.7329C83.4333 32.1725 83.4169 31.5611 83.1731 31.0135C82.9293 30.464 82.489 30.0437 81.9322 29.829C81.8431 29.7944 81.7521 29.7689 81.6611 29.7471C82.0505 29.5579 82.3871 29.2904 82.6546 28.9629C82.8238 28.9793 82.9912 28.9884 83.1531 28.9884C83.3514 28.9884 83.5443 28.9756 83.7299 28.9538C83.9337 29.1176 84.0974 29.3268 84.2066 29.5706C84.4431 30.111 84.3867 30.7169 84.0538 31.19C83.8627 31.4611 83.91 31.8323 84.1611 32.0488C84.3158 32.1816 84.4468 32.3599 84.5723 32.6055C84.9253 33.4498 84.5414 34.4323 83.7135 34.8017H83.7153ZM84.576 27.329C84.3922 27.4454 84.1921 27.5309 83.9755 27.5946C83.7554 27.6583 83.5152 27.6929 83.2586 27.7002C83.053 27.7056 82.8365 27.6947 82.6073 27.6638C82.5709 27.6583 82.5363 27.6565 82.4981 27.651C82.5218 27.5291 82.5472 27.4127 82.5763 27.2999C82.6054 27.1871 82.6382 27.0815 82.6746 26.9796C82.7947 26.6339 82.9493 26.3392 83.1422 26.0972C83.2477 25.9662 83.3624 25.8497 83.4897 25.7478C84.0429 25.3057 84.8544 25.111 85.9552 25.1601C85.6513 26.2118 85.1873 26.9414 84.5742 27.3308L84.576 27.329Z" fill="#645050"/>
<path d="M53.3497 55.9006C53.3497 55.5458 53.0622 55.2565 52.7056 55.2565H32.5582C32.2015 55.2565 31.9141 55.5458 31.9141 55.9006C31.9141 56.2554 32.2015 56.5447 32.5582 56.5447H52.7056C53.0622 56.5447 53.3497 56.2554 53.3497 55.9006Z" fill="#645050"/>
<path d="M49.0176 58.5134H36.2447C35.8881 58.5134 35.6006 58.8009 35.6006 59.1575C35.6006 59.5142 35.8899 59.8016 36.2447 59.8016H49.0176C49.3742 59.8016 49.6617 59.5123 49.6617 59.1575C49.6617 58.8027 49.3724 58.5134 49.0176 58.5134Z" fill="#645050"/>
<path d="M7.76567 54.2049C7.61101 54.2504 7.37994 54.2358 7.15432 54.143C7.06152 54.1048 6.97055 54.0557 6.88503 53.9902C6.77586 53.9065 6.69034 53.8064 6.62666 53.6918C6.52477 53.5117 6.47746 53.297 6.48656 53.0459C6.49929 52.6911 6.22273 52.3908 5.86611 52.3781C5.51312 52.3654 5.21108 52.6419 5.19835 52.9986C5.16742 53.8228 5.48583 54.536 6.09355 55.0073C6.51931 55.3384 7.05788 55.5168 7.56916 55.5168C7.76203 55.5168 7.95126 55.4913 8.12957 55.4385C8.46982 55.3384 8.66451 54.98 8.56443 54.6379C8.46436 54.2977 8.10592 54.1012 7.76385 54.2031L7.76567 54.2049Z" fill="#645050"/>
<path d="M77.831 54.1339C77.6818 54.1794 77.4453 54.1612 77.216 54.0648C77.1268 54.0284 77.0395 53.9793 76.9594 53.9174C76.8521 53.8337 76.7648 53.7354 76.7011 53.6245C76.5974 53.4443 76.5482 53.2278 76.5573 52.9749C76.5701 52.6201 76.2935 52.3199 75.9369 52.3071C75.5803 52.2962 75.2819 52.571 75.2691 52.9276C75.2382 53.7518 75.5602 54.4651 76.1734 54.9381C76.601 55.2675 77.1359 55.4476 77.6436 55.4476C77.8365 55.4476 78.0275 55.4221 78.204 55.3675C78.5442 55.2638 78.7371 54.9054 78.6334 54.5651C78.5297 54.2249 78.1694 54.032 77.831 54.1357V54.1339Z" fill="#645050"/>
<path d="M75.9135 50.5732C76.0191 50.5732 76.1264 50.5477 76.2265 50.4913C76.5376 50.3184 76.6486 49.9254 76.4758 49.6161L76.3866 49.4542C76.2137 49.143 75.8207 49.032 75.5114 49.2049C75.2003 49.3778 75.0893 49.7708 75.2621 50.0801L75.3513 50.242C75.4696 50.4531 75.6879 50.5732 75.9154 50.5732H75.9135Z" fill="#645050"/>
<path d="M5.82582 50.8788C5.91316 50.8788 6.00232 50.8607 6.08783 50.8224C6.41352 50.6769 6.55908 50.2966 6.41352 49.9727L6.34074 49.8108C6.197 49.4851 5.81491 49.3395 5.49103 49.4851C5.16534 49.6307 5.01978 50.0109 5.16534 50.3348L5.23812 50.4968C5.34547 50.7369 5.58019 50.8788 5.82764 50.8788H5.82582Z" fill="#645050"/>
<path d="M53.7753 58.7118L52.2997 58.6936C52.2997 58.6936 52.2943 58.6936 52.2906 58.6936C51.9395 58.6936 51.652 58.9774 51.6465 59.3304C51.6429 59.6852 51.9267 59.9782 52.2815 59.9818L53.7571 60C53.7571 60 53.7626 60 53.7662 60C54.1174 60 54.4049 59.7162 54.4103 59.3632C54.414 59.0066 54.1301 58.7154 53.7753 58.7118Z" fill="#645050"/>
</g>
<defs>
<clipPath id="clip0_1853_168">
<rect width="87.4036" height="60" fill="white"/>
</clipPath>
</defs>
</svg>
