<svg width="60" height="64" viewBox="0 0 60 64" fill="none" xmlns="http://www.w3.org/2000/svg">
<g clip-path="url(#clip0_1853_198)">
<path d="M56.4318 39.4488C56.1615 39.3375 55.8577 39.4312 55.6916 39.6591L55.5626 26.7471C55.5626 26.6641 55.5432 26.5846 55.5132 26.5104C55.5503 25.4929 54.296 24.7862 51.3299 24.1503C51.0844 24.0973 50.8406 24.198 50.6993 24.3888L50.5844 13.1586C50.5844 13.0579 50.5562 12.9625 50.512 12.8795C50.4608 12.0846 49.5686 11.2631 44.1612 10.5847C41.4671 10.2473 38.146 10.0177 34.5333 9.91521C34.9785 9.4135 35.3972 8.93829 35.7381 8.51078C37.0984 6.82016 38.3156 4.8098 37.026 2.70934C36.2098 1.37204 34.7612 0.582382 33.3267 0.698976C32.5724 0.75904 31.2811 1.12472 30.2617 2.74644C29.1894 1.06996 27.9263 0.714875 27.1985 0.665411C25.8594 0.575316 24.5239 1.33494 23.713 2.65634C22.4305 4.778 23.6901 6.99682 24.932 8.69273C25.1298 8.96302 25.303 9.20504 25.4655 9.4294C25.5838 9.59369 25.6969 9.75091 25.8082 9.9046C22.1143 10.0053 18.7154 10.2367 15.9684 10.5812C10.3842 11.2808 9.61576 12.134 9.61576 12.9519C9.61576 12.9731 9.61576 12.9943 9.61752 13.0155C9.61752 13.0208 9.61576 13.0279 9.61576 13.0332L9.5027 23.9736C5.16045 24.7845 4.47679 25.666 4.46089 26.438C4.45205 26.4804 4.44499 26.5246 4.44499 26.5687L4.36019 34.1933C4.33899 34.2745 4.33369 34.3629 4.34959 34.4512C4.35136 34.4671 4.35489 34.4795 4.35666 34.4953L4.29483 40.1272L4.27186 42.2701C4.27186 42.4096 4.31603 42.5368 4.39022 42.641C4.45382 42.7912 4.57395 42.9184 4.73824 42.982C9.81361 44.9676 19.6605 45.4305 27.0466 45.4711C27.2568 45.4711 27.4652 45.4729 27.6719 45.4729C27.8203 45.4729 27.9705 45.4729 28.1171 45.4729C28.1772 45.4729 28.2372 45.4729 28.2973 45.4729C29.5286 45.4729 30.6733 45.4605 31.6927 45.4428C31.9064 45.4393 32.1149 45.4358 32.318 45.4305C32.5336 45.4269 32.742 45.4216 32.9434 45.4163C33.1943 45.411 33.4345 45.404 33.6624 45.3987C38.8968 45.2609 44.0711 44.9446 48.2349 44.5083C54.7959 43.8211 55.3065 43.2275 55.5238 42.9749C55.6545 42.823 55.7163 42.6463 55.7181 42.4661C55.7181 42.4591 55.7199 42.4502 55.7199 42.4432V42.4149L55.6987 40.3992C55.764 40.484 55.8488 40.5565 55.9566 40.6006C57.8044 41.362 58.822 42.1906 58.746 42.876C58.6259 43.966 55.8771 45.6866 48.5246 46.9515C43.9845 47.7341 38.5328 48.1828 32.9416 48.3011C32.7332 48.3047 32.5247 48.3082 32.3163 48.3117C32.1078 48.3153 31.8994 48.3188 31.6909 48.3206C30.5603 48.3347 29.4261 48.3347 28.2955 48.3206C28.0871 48.3188 27.8786 48.3153 27.6702 48.3117C27.4617 48.3082 27.2533 48.3047 27.0448 48.2994C21.6585 48.1881 16.3959 47.7676 11.9476 47.0363C4.2807 45.7749 1.39764 44.0101 1.25632 42.8831C1.17506 42.2312 2.09544 41.4345 3.78252 40.6996C4.01748 40.5971 4.1588 40.3675 4.15704 40.1254C4.15704 40.0424 4.14114 39.9576 4.10581 39.8763C3.96801 39.5601 3.5988 39.4153 3.28258 39.5531C0.954234 40.5724 -0.146343 41.7454 0.0161819 43.042C0.364197 45.8297 6.58608 47.4267 11.7462 48.2764C16.3217 49.029 21.6285 49.46 27.0466 49.5748V57.1517C27.0183 57.1499 26.9883 57.1464 26.9582 57.1482C24.9161 57.2541 18.1819 57.7488 17.2244 59.6779C17.0248 60.0807 17.0583 60.5152 17.318 60.8968C18.4433 62.5857 24.6105 63.3418 29.9844 63.3418C30.0886 63.3418 30.1911 63.3418 30.2953 63.3418C34.521 63.317 41.9123 62.7305 42.815 60.6725C42.9723 60.3015 42.9369 59.9022 42.7126 59.5507C41.5802 57.7629 35.4572 57.2771 32.9434 57.1535V49.5766C38.5682 49.4565 44.0658 48.9936 48.7384 48.1898C53.7042 47.3348 59.6894 45.7449 59.9897 43.0191C60.1381 41.6835 58.9403 40.4823 56.4336 39.4506L56.4318 39.4488ZM5.52437 41.9432L5.5438 40.1272L5.565 38.2476C5.90948 38.7581 6.31049 39.069 6.77864 39.1944C8.31732 39.6061 9.76238 37.8589 11.2922 36.0093C11.4919 35.7673 11.6897 35.527 11.8876 35.2956C11.9035 35.2779 11.9176 35.2585 11.93 35.2391C12.3434 34.6225 12.9564 33.8894 13.5323 33.8859H13.5358C14.3149 33.8859 15.1999 35.1808 15.9825 36.322L16.0744 36.4545C16.9029 37.7211 17.8692 38.4012 18.9468 38.4772C20.7399 38.6009 22.3422 37.0127 23.3933 35.8061C24.5009 34.5218 25.4037 33.6898 26.2092 33.8046C26.7992 33.8876 27.7673 34.5625 29.0304 37.2954C29.4456 38.4277 29.9932 39.3605 30.631 40.076C31.5761 41.1341 32.7208 41.7118 33.9397 41.7118C34.392 41.7118 34.8566 41.6323 35.323 41.4698C35.9642 41.2384 36.5666 40.7508 37.0878 40.0636C37.5241 39.4877 37.9039 38.7722 38.2007 37.9419C38.6618 36.6117 39.054 36.3202 39.2465 36.2672C39.667 36.1471 40.4425 36.7831 41.1915 37.3978C41.4265 37.5904 41.6703 37.79 41.9317 37.9932C44.1841 39.6944 45.525 39.0602 49.0987 34.6049C49.7842 33.7605 50.6127 33.2658 51.2663 33.3153C51.7256 33.3506 52.1319 33.6633 52.4764 34.2498C52.669 34.5748 52.9145 34.907 53.176 35.2567C53.5664 35.7832 54.0081 36.3803 54.4161 37.1399L54.4444 40.03L54.4656 42.2118C54.3331 42.2718 54.137 42.3354 53.8809 42.4025C51.4236 43.042 43.474 43.9112 33.2349 44.1638C33.136 44.1656 33.0406 44.1674 32.9434 44.1709C32.7349 44.1762 32.5265 44.1797 32.318 44.185C32.1096 44.1886 31.9011 44.1939 31.6927 44.1974C30.5356 44.2186 29.4032 44.2292 28.2973 44.2327C28.0871 44.2327 27.8804 44.2327 27.6719 44.2327C27.4635 44.2327 27.2533 44.2327 27.0466 44.2327C18.2596 44.1939 11.2481 43.5579 6.99946 42.4078C6.46419 42.263 5.97131 42.1093 5.52613 41.9485L5.52437 41.9432ZM27.9917 12.5845C28.1153 12.7223 28.2867 12.793 28.4581 12.793C28.6065 12.793 28.7548 12.74 28.875 12.634C29.0216 12.5032 29.0905 12.316 29.0799 12.134C29.0728 11.9962 29.0234 11.862 28.9244 11.7507C28.716 11.5157 28.5287 11.3055 28.3591 11.1076C28.1648 10.8833 27.9917 10.6784 27.8362 10.4893C27.6543 10.2685 27.4935 10.0671 27.3434 9.87104C27.043 9.48239 26.7833 9.12201 26.4795 8.6998C26.3152 8.47191 26.1403 8.22812 25.9407 7.9543C24.4179 5.87151 24.0717 4.48122 24.7818 3.30644C25.3365 2.40196 26.2534 1.85432 27.1137 1.91261C28.1206 1.98151 29.041 2.84713 29.7017 4.34872C29.8024 4.57661 30.0268 4.72147 30.2741 4.72147C30.2776 4.72147 30.2794 4.72147 30.2829 4.72147C30.5338 4.71794 30.7581 4.56424 30.8535 4.33282C31.4471 2.87716 32.3604 2.02744 33.4274 1.94088C34.3902 1.86138 35.3866 2.41785 35.9589 3.35767C36.5613 4.33812 36.5878 5.4546 34.763 7.72288C34.4167 8.15746 33.9751 8.65564 33.5069 9.18208C33.3038 9.40996 33.1006 9.64139 32.8992 9.87104C32.719 10.0777 32.5424 10.2827 32.371 10.4876C32.1961 10.696 32.0283 10.9027 31.8693 11.1059C31.7368 11.2772 31.6079 11.4468 31.4913 11.6129C31.4065 11.733 31.3729 11.8708 31.38 12.0068C31.3906 12.1906 31.4789 12.3707 31.6414 12.4838C31.9241 12.6834 32.3145 12.6145 32.5124 12.3319C32.7791 11.9538 33.1059 11.5475 33.4592 11.1324C37.1284 11.2119 40.5556 11.4221 43.3485 11.7401C47.3251 12.1959 48.6695 12.7099 49.104 12.9519C48.673 13.1957 47.3322 13.7151 43.3538 14.1727C39.7182 14.5913 34.9979 14.821 30.0621 14.821C25.1263 14.821 20.406 14.5913 16.7704 14.1727C12.7921 13.7151 11.4512 13.1957 11.0202 12.9519C11.4548 12.7099 12.7991 12.1941 16.7757 11.7401C19.5881 11.4186 23.047 11.2083 26.7462 11.1306C27.0748 11.5352 27.4688 11.998 27.9899 12.581L27.9917 12.5845ZM49.4468 24.3411C49.3708 24.4011 49.3107 24.4771 49.2719 24.5601C49.1323 24.6167 48.9132 24.6785 48.6271 24.7403C48.4946 24.7703 48.3479 24.7986 48.1854 24.8286C45.6857 25.295 39.7341 25.8603 32.3375 26.0317C23.5116 26.2348 16.3658 25.8003 12.1543 24.8286C11.7215 24.7279 11.3187 24.622 10.9495 24.5124C10.9495 24.4965 10.9513 24.4824 10.9513 24.4665C10.9513 24.4312 10.9513 24.3941 10.9442 24.357C10.9213 24.2156 10.8506 24.0973 10.7534 24.0054L10.7835 21.0446C10.893 20.9934 10.9884 20.9104 11.0555 20.7991C11.3682 20.2779 11.7092 19.861 12.0095 19.4918C12.2391 19.2109 12.4546 18.9442 12.6172 18.6845C12.8645 18.2994 13.1454 18.1015 13.4722 18.0768C13.9545 18.0415 14.5692 18.3824 15.0833 18.9707C17.9381 22.1788 19.0758 22.6558 20.8883 21.4086C21.0914 21.2655 21.2875 21.1206 21.4748 20.9793C22.0207 20.5712 22.639 20.1101 22.9251 20.1931C23.0276 20.2232 23.3014 20.3892 23.6477 21.2937C24.1494 22.6187 25.0291 23.5938 25.9937 23.9012C26.3982 24.0337 26.7851 24.0937 27.1526 24.0937C29.0587 24.0937 30.4313 22.4597 31.0903 20.8415C31.8428 19.3593 32.5689 18.529 33.189 18.4354C33.7843 18.3453 34.4556 18.9018 35.3406 19.8239C36.655 21.216 37.8298 21.859 38.9339 21.7831C39.8101 21.723 40.5944 21.2195 41.2551 20.2956L41.3099 20.2232C41.9194 19.4123 42.6083 18.4955 43.1825 18.4955C43.1825 18.4955 43.1842 18.4955 43.186 18.4955C43.5941 18.4972 44.0375 18.9883 44.3378 19.3982C44.3519 19.4176 44.3678 19.4371 44.3855 19.4547C44.5427 19.6243 44.7017 19.7992 44.8625 19.9741C46.0549 21.2849 47.288 22.6399 48.567 22.2759C48.8885 22.1841 49.1729 21.9898 49.4238 21.693L49.4503 24.3375L49.4468 24.3411ZM49.3849 18.3011C49.339 18.37 49.3054 18.4478 49.2895 18.5343C48.885 20.7267 48.3674 21.0358 48.219 21.0782C47.6837 21.2301 46.5407 19.9706 45.7829 19.1367C45.6274 18.9654 45.4737 18.7958 45.32 18.6315C44.6346 17.704 43.9368 17.2518 43.1878 17.2465H43.1754C41.9794 17.2465 41.1279 18.3789 40.3047 19.4741L40.2411 19.5589C39.7924 20.1843 39.3366 20.5058 38.8438 20.5376C38.146 20.5836 37.2715 20.0571 36.2416 18.9654C35.2876 17.9708 34.2524 17.0151 32.9999 17.2023C31.9135 17.3649 30.9472 18.3488 29.9579 20.3027C29.9491 20.3186 29.942 20.3345 29.9349 20.3521C29.7265 20.8733 28.5711 23.4348 26.3735 22.7141C25.7729 22.5233 25.174 21.8096 24.8118 20.8503C24.3985 19.7692 23.9074 19.1791 23.2696 18.9954C22.3881 18.7393 21.579 19.3417 20.724 19.9812C20.5438 20.1154 20.3583 20.2532 20.1711 20.3857C19.2507 21.0181 18.832 21.3079 16.0196 18.1492C15.2458 17.2624 14.2619 16.7695 13.3803 16.8349C12.8733 16.872 12.149 17.1052 11.559 18.0203C11.4336 18.2199 11.2498 18.446 11.0379 18.7075C10.9637 18.7993 10.8842 18.8965 10.8029 18.9989L10.8506 14.261C11.7657 14.6426 13.3291 15.01 15.9648 15.3421C19.7329 15.8173 24.7394 16.0788 30.0621 16.0788C35.3848 16.0788 40.3895 15.8173 44.1594 15.3421C46.864 15.0012 48.4363 14.6249 49.3425 14.2327L49.3849 18.3029V18.3011ZM9.65816 25.3939C9.77122 25.5158 9.93197 25.5953 10.1104 25.5971H10.1175C10.144 25.5971 10.1705 25.5918 10.197 25.5883C14.5851 27.0386 22.6266 27.3301 28.3768 27.3301C30.1222 27.3301 31.6573 27.3036 32.8144 27.2736C36.9924 27.1676 41.1173 26.9238 44.4314 26.5899C47.8869 26.2419 49.2436 25.9257 49.8266 25.6801C49.9043 25.7137 49.9891 25.7349 50.0792 25.7349H50.0863C50.4201 25.7314 50.6869 25.4664 50.7028 25.1378C50.7894 25.2526 50.9148 25.3392 51.0667 25.3727C53.3898 25.8709 54.0434 26.309 54.2165 26.4733C53.9409 26.7259 52.457 27.6817 45.3854 28.4183C35.5668 29.4447 21.4465 29.3405 12.5359 28.1763C7.14078 27.482 5.98014 26.7047 5.74872 26.4769C5.92715 26.3037 6.66028 25.802 9.4656 25.2562C9.5186 25.3127 9.58219 25.3604 9.65462 25.3939H9.65816ZM6.7645 28.3176C8.07 28.7345 9.95847 29.1038 12.3769 29.4147C17.2315 30.0489 23.6141 30.3722 30.0215 30.3722C35.482 30.3722 40.9601 30.1372 45.5161 29.662C48.5458 29.3458 50.9307 28.9536 52.6054 28.4943C53.3138 28.3 53.8791 28.0968 54.3207 27.8795L54.3896 34.7992C54.3172 34.7003 54.2448 34.6031 54.1776 34.5112C53.9268 34.1738 53.7095 33.8806 53.5523 33.6138C52.8509 32.4196 51.973 32.114 51.3582 32.0681C50.2912 31.9868 49.0793 32.6404 48.1236 33.8188C44.4844 38.3553 43.9191 37.9296 42.6896 37.0004C42.4476 36.8131 42.2109 36.6188 41.983 36.4315C40.9407 35.5765 39.9549 34.7674 38.9056 35.0642C38.1248 35.285 37.5241 36.0694 37.0189 37.5286C36.5949 38.7122 35.9837 39.622 35.33 40.0689C35.1887 40.1661 35.0456 40.242 34.9025 40.2933C33.9751 40.6165 33.189 40.4611 32.5389 40.0742C31.1468 39.2457 30.3819 37.359 30.1946 36.8449C30.1893 36.829 30.1822 36.8131 30.1752 36.7972C28.935 34.1014 27.7285 32.757 26.3823 32.568C24.8631 32.3525 23.6035 33.6474 22.4464 34.9882C21.0755 36.5622 19.9644 37.2971 19.0316 37.2318C18.3656 37.1858 17.7226 36.6947 17.1113 35.762L17.0124 35.6189C16.009 34.1526 14.972 32.6387 13.534 32.6387C13.5305 32.6387 13.527 32.6387 13.5234 32.6387C12.6136 32.644 11.7586 33.257 10.9071 34.5165C10.7146 34.7444 10.5202 34.9794 10.3259 35.2143C9.28717 36.4704 7.86508 38.1928 7.10015 37.9879C6.82457 37.9137 6.1356 37.4137 5.60563 34.4017L5.67806 27.9043C6.02254 28.0703 6.40059 28.2063 6.76097 28.3212L6.7645 28.3176ZM41.6509 60.2043C41.2763 60.8403 37.5489 62.0486 30.2882 62.0893C23.3668 62.1264 18.9238 61.0223 18.3603 60.2026C18.6377 59.7397 21.0967 58.7027 27.0236 58.3954C27.0324 58.3954 27.0395 58.3918 27.0466 58.3918V59.2027C27.0466 59.5489 27.3275 59.8281 27.6719 59.8281C28.0164 59.8281 28.2973 59.5472 28.2973 59.2027V49.5943C28.8573 49.6013 29.4173 49.6049 29.9773 49.6049C30.5373 49.6049 31.1203 49.5996 31.6927 49.5925V59.2009C31.6927 59.5472 31.9735 59.8263 32.318 59.8263C32.6625 59.8263 32.9434 59.5454 32.9434 59.2009V58.3989C38.6053 58.678 41.3682 59.6814 41.6509 60.2008V60.2043Z" fill="#645050"/>
</g>
<defs>
<clipPath id="clip0_1853_198">
<rect width="60" height="62.6834" fill="white" transform="translate(0 0.658325)"/>
</clipPath>
</defs>
</svg>
