<svg width="60" height="48" viewBox="0 0 60 48" fill="none" xmlns="http://www.w3.org/2000/svg">
<g clip-path="url(#clip0_1853_189)">
<path d="M30.9399 1.91626C18.7329 1.91626 8.80127 11.8227 8.80127 24.0009C8.80127 36.1791 18.7329 46.1035 30.9399 46.1035C43.1469 46.1035 53.0785 36.1881 53.0785 24.0009C53.0785 11.8137 43.1469 1.91626 30.9399 1.91626ZM30.9399 44.8289C19.4367 44.8289 10.0776 35.486 10.0776 24.0009C10.0776 12.5157 19.4349 3.19079 30.9399 3.19079C42.4448 3.19079 51.804 12.5265 51.804 24.0009C51.804 35.4752 42.4448 44.8289 30.9399 44.8289Z" fill="#645050"/>
<path d="M28.5704 10.107C34.6766 9.0755 40.8531 12.2258 43.5911 17.7704C43.7477 18.0854 44.1294 18.215 44.4444 18.0602C44.7594 17.9036 44.8891 17.5219 44.7342 17.2069C43.2581 14.2186 40.9053 11.837 37.9314 10.3212C34.9575 8.80367 31.6469 8.29602 28.358 8.85228C25.0691 9.40853 22.1096 10.9765 19.7982 13.3869C17.4867 15.7992 16.0484 18.8217 15.6379 22.1304C15.2365 25.4337 15.8954 28.7083 17.5407 31.6012C19.1915 34.5012 21.6793 36.7425 24.736 38.08C24.8189 38.116 24.9053 38.134 24.9917 38.134C25.2365 38.134 25.4705 37.9918 25.5767 37.7524C25.7171 37.4301 25.5713 37.0539 25.2491 36.9135C19.5893 34.4382 16.1582 28.422 16.9053 22.287C17.6667 16.1502 22.4624 11.1421 28.5704 10.1106V10.107Z" fill="#645050"/>
<path d="M45.5626 26.062C45.217 25.9972 44.884 26.2258 44.8192 26.5715C43.4834 33.7308 37.0028 38.6669 29.7481 38.0494C29.4006 38.0206 29.0892 38.2798 29.0586 38.6309C29.028 38.9819 29.289 39.2897 29.64 39.3203C30.0757 39.3581 30.5113 39.3761 30.9452 39.3761C34.3007 39.3761 37.568 38.278 40.2647 36.224C43.3088 33.9054 45.37 30.5607 46.0721 26.8055C46.1369 26.4599 45.9083 26.1268 45.5626 26.062Z" fill="#645050"/>
<path d="M44.8784 24.1611V24.2871C44.8784 24.6399 45.1646 24.9243 45.5157 24.9243C45.8667 24.9243 46.1529 24.6399 46.1529 24.2871V24.1611C46.1529 23.8082 45.8685 23.5238 45.5157 23.5238C45.1628 23.5238 44.8784 23.8082 44.8784 24.1611Z" fill="#645050"/>
<path d="M7.59693 3.25017C7.54833 2.90093 7.2279 2.65971 6.87866 2.70651C6.52943 2.75512 6.2864 3.07555 6.33501 3.42479C7.43132 11.36 6.92006 15.531 4.81385 15.8226C4.46462 15.8712 4.22159 16.1935 4.2702 16.5409C4.2954 16.7173 4.39081 16.8649 4.52402 16.9639C4.50062 17.3366 4.53663 18.2889 4.64464 21.2034C4.73645 23.693 4.86606 27.0035 4.99567 30.3141C5.2279 36.2493 5.48892 42.9657 5.47992 43.531C5.47992 43.54 5.47992 43.549 5.47812 43.558C5.46012 43.8586 4.93267 44.2277 4.2576 44.2709C3.89396 44.2943 3.04248 44.2439 2.82105 43.2934L3.85076 17.1386C3.85436 17.0486 3.83816 16.9621 3.80755 16.8829C3.91016 16.7875 3.98397 16.6561 4.00557 16.5067C4.05418 16.1575 3.81115 15.837 3.46192 15.7884C1.94617 15.5778 0.430416 13.2214 1.81655 3.19256C1.86516 2.84333 1.62033 2.5229 1.2729 2.47429C0.923665 2.42569 0.603233 2.67051 0.554628 3.01795C-0.0538327 7.38338 -0.160043 10.7479 0.232396 13.0215C0.594232 15.1152 1.39711 16.4077 2.62124 16.8793C2.59423 16.9441 2.57623 17.0143 2.57443 17.09L1.54293 43.324C1.54113 43.3726 1.54293 43.423 1.55373 43.4698C1.80215 44.7533 2.79765 45.5508 4.11898 45.5508C4.19099 45.5508 4.2648 45.549 4.33861 45.5436C5.65094 45.459 6.68784 44.6381 6.74905 43.6372H6.73825C6.76345 43.2718 6.72745 42.3285 6.61944 39.3816C6.52763 36.8901 6.39801 33.5778 6.2684 30.2673C6.03798 24.3411 5.77515 17.6336 5.78415 17.0576C5.79135 16.9945 5.78775 16.9333 5.77695 16.8721C8.18739 15.837 8.74545 11.5562 7.59873 3.25197L7.59693 3.25017Z" fill="#645050"/>
<path d="M2.69326 10.6849C2.70586 10.6849 2.71847 10.6849 2.72927 10.6849C3.0641 10.6849 3.34493 10.422 3.36473 10.0836L3.75717 3.1421C3.77697 2.79107 3.50874 2.49044 3.15771 2.47063C2.80847 2.45083 2.50604 2.71906 2.48624 3.07009L2.0938 10.0116C2.074 10.3626 2.34223 10.6633 2.69506 10.6831L2.69326 10.6849Z" fill="#645050"/>
<path d="M5.36282 10.6849C5.37362 10.6849 5.38622 10.6849 5.39703 10.6849C5.74806 10.6651 6.01809 10.3663 5.99829 10.0134L5.62385 3.07193C5.60585 2.7209 5.30702 2.45447 4.95238 2.47067C4.60135 2.49047 4.33132 2.7893 4.35112 3.14214L4.72556 10.0836C4.74356 10.4239 5.02439 10.6867 5.36102 10.6867L5.36282 10.6849Z" fill="#645050"/>
<path d="M59.8577 42.5121C59.7821 40.6885 59.6777 38.2637 59.5732 35.8388C59.3878 31.5292 59.1772 26.6525 59.1808 26.1917C59.1808 26.1809 59.1808 26.1701 59.1826 26.1593L60.0017 2.82532C60.0035 2.75331 59.9945 2.6795 59.9729 2.6111C59.6525 1.5994 58.6264 0.83432 57.5859 0.83252H57.5822C57.0782 0.83252 55.8523 1.03054 55.269 2.85952C55.2654 2.87212 55.2618 2.88472 55.2582 2.89913C53.0368 11.7686 53.4976 21.8748 55.2006 26.2709L55.197 26.4275C55.1934 26.4527 55.188 26.4779 55.1862 26.5031C55.1862 26.5409 55.1862 26.5769 55.1934 26.6129L54.7596 45.3996C54.7596 45.459 54.765 45.5184 54.7812 45.576C55.0422 46.5661 56.0269 47.1674 57.3392 47.1674C57.4652 47.1674 57.5931 47.162 57.7245 47.1511C58.783 47.0611 59.8865 46.5661 59.9657 45.666H59.9549C59.9765 45.3582 59.9459 44.6273 59.8595 42.5139L59.8577 42.5121ZM57.9171 26.116C57.8991 26.4401 57.9297 27.1908 58.0143 29.2286C58.0899 31.0503 58.1943 33.4716 58.2987 35.8946C58.4805 40.125 58.6876 44.8991 58.693 45.5202C58.5453 45.693 57.7821 45.9846 56.954 45.8622C56.6678 45.8208 56.1835 45.6948 56.0341 45.3204L56.4535 27.1926L57.0782 27.2178C57.0782 27.2178 57.0962 27.2178 57.1052 27.2178C57.4454 27.2178 57.7281 26.9495 57.7407 26.6075C57.7551 26.2565 57.4814 25.9594 57.1304 25.945L56.4301 25.9162C54.7578 21.7578 54.3815 11.6534 56.4877 3.22856C56.6552 2.71191 56.981 2.10705 57.5804 2.10705C58.0341 2.10705 58.5345 2.46528 58.72 2.90453L57.9063 26.1142H57.9171V26.116Z" fill="#645050"/>
</g>
<defs>
<clipPath id="clip0_1853_189">
<rect width="60" height="46.3348" fill="white" transform="translate(0 0.83252)"/>
</clipPath>
</defs>
</svg>
