<svg width="60" height="62" viewBox="0 0 60 62" fill="none" xmlns="http://www.w3.org/2000/svg">
<g clip-path="url(#clip0_1853_145)">
<path d="M28.4388 4.21253C28.4388 4.21253 28.4343 4.19876 28.4327 4.19111C28.4251 4.16509 28.416 4.13907 28.4038 4.11458C28.4023 4.11152 28.4007 4.10693 28.3992 4.10386C28.3855 4.07631 28.3688 4.05183 28.352 4.02734C28.3474 4.02122 28.3413 4.01509 28.3368 4.00744C28.32 3.98601 28.3002 3.96459 28.2789 3.94622C28.2758 3.94316 28.2743 3.94163 28.2713 3.93857C28.2713 3.93857 28.2713 3.93857 28.2698 3.93704C26.1571 2.11723 18.0464 0.236197 15.3154 0.932591C15.2986 0.937183 15.2818 0.943305 15.2651 0.949427C15.2605 0.950958 15.2559 0.952488 15.2514 0.954019C15.2224 0.966263 15.1935 0.980038 15.1661 0.996874C15.163 0.998404 15.16 0.999935 15.1569 1.00147C15.1539 1.003 15.1508 1.00606 15.1478 1.00912C15.1204 1.02748 15.0945 1.04738 15.0732 1.06881C15.0716 1.07034 15.0701 1.0734 15.0671 1.07493C15.0473 1.09483 15.029 1.11779 15.0122 1.14074C15.0077 1.14687 15.0031 1.15452 14.9985 1.16217C14.9818 1.18819 14.9665 1.21421 14.9544 1.24176C14.9528 1.24482 14.9513 1.24941 14.9498 1.25247C14.9422 1.26931 14.9361 1.28768 14.93 1.30604L7.8382 25.5008C6.97762 28.3935 7.20457 31.098 8.51448 33.5361C9.53499 35.4355 10.9987 36.79 12.1045 37.6854L8.94553 51.4893C8.10018 54.4983 6.36836 55.0386 4.79951 55.1687L0.507268 55.4105C0.220915 55.4258 -0.00146484 55.6646 -0.00146484 55.9508C-0.00146484 57.7722 2.78286 59.1267 5.11937 59.9409C7.8184 60.8822 11.2333 61.5449 13.8181 61.6291C14.0131 61.6352 14.2019 61.6383 14.3832 61.6383C16.8324 61.6383 18.1088 61.0659 18.1819 59.9348C18.1956 59.7267 18.089 59.5292 17.9062 59.4267L14.1791 57.3359C12.5295 56.1896 11.6476 54.9728 12.0147 52.1888L15.163 38.4292C19.2953 37.8308 23.5145 36.19 24.3065 29.2889L28.4449 4.43905C28.4449 4.43905 28.4449 4.42834 28.4464 4.42222C28.4464 4.41303 28.448 4.40538 28.4495 4.3962C28.4525 4.37018 28.4525 4.34263 28.4495 4.31661C28.4495 4.31202 28.4495 4.30743 28.4495 4.30283C28.4464 4.27222 28.4419 4.24314 28.4343 4.21253H28.4388ZM26.7649 4.24314C26.0993 4.32732 24.966 4.34263 23.3073 4.11764C20.7926 3.7748 17.9672 2.97127 16.5582 1.8601C19.3228 1.7499 24.4802 3.03708 26.7634 4.24314H26.7649ZM23.2449 29.122C23.2434 29.1312 23.2418 29.1404 23.2403 29.1496C22.5153 35.512 18.6861 36.8773 14.6558 37.4053C14.4319 37.4344 14.2507 37.5997 14.2004 37.8216L10.9622 51.9714C10.9591 51.9883 10.9561 52.0036 10.953 52.0204C10.5037 55.36 11.6826 56.9242 13.5911 58.2436C13.6049 58.2527 13.6201 58.2619 13.6338 58.2711L16.9223 60.1154C16.5552 60.3695 15.6169 60.6052 13.8546 60.547C9.12374 60.394 2.332 58.3231 1.23076 56.4544L4.87414 56.2477C6.57094 56.1085 8.94705 55.4917 9.98736 51.7679C9.99041 51.7602 9.99193 51.751 9.99346 51.7434L13.2317 37.5936C13.2789 37.3885 13.2027 37.1757 13.0382 37.0456C8.94401 33.8192 7.57926 30.1444 8.87089 25.8069L10.5068 20.2265C11.9233 21.5704 16.0145 22.5805 16.9969 22.807C18.7013 23.2019 20.7545 23.5325 22.3279 23.5325C23.1139 23.5325 23.7795 23.4499 24.2212 23.2509L23.2434 29.1205L23.2449 29.122ZM11.1769 19.3985C11.7847 19.1705 14.0435 19.1154 17.661 19.9495C21.2724 20.7852 23.2784 21.8244 23.7247 22.2958C23.123 22.53 20.8657 22.5928 17.2406 21.754C13.6186 20.9168 11.6171 19.873 11.1769 19.3985ZM24.5045 21.5596C24.1649 21.2046 23.5937 20.8449 22.7742 20.4668C21.5054 19.8837 19.7767 19.3251 17.9047 18.8919C16.9421 18.67 12.9819 17.8175 11.0688 18.3226L15.6946 2.53659C17.9047 4.45436 23.0027 5.38186 25.7626 5.38186C25.8662 5.38186 25.9668 5.38186 26.0627 5.37727C26.541 5.36503 26.9172 5.32217 27.2173 5.26401L24.503 21.5581L24.5045 21.5596Z" fill="#645050"/>
<path d="M17.9427 33.6493C16.5642 34.4774 14.9863 34.5447 13.6109 33.8315C11.9415 32.9667 10.8753 31.0949 10.6849 28.6996C10.662 28.4011 10.4 28.1777 10.1046 28.2022C9.80754 28.2251 9.58669 28.4868 9.60953 28.7853C9.82887 31.5632 11.1068 33.7534 13.1158 34.7957C13.8942 35.1982 14.7395 35.3987 15.591 35.3987C16.5871 35.3987 17.5893 35.1248 18.4956 34.5799C18.7515 34.4269 18.8337 34.0932 18.6814 33.8361C18.5291 33.5789 18.1971 33.4948 17.9412 33.6493H17.9427Z" fill="#645050"/>
<path d="M20.0172 32.3009C19.7521 32.1632 19.4277 32.2673 19.2906 32.5336L19.2754 32.5627C19.1383 32.829 19.2419 33.155 19.5069 33.2927C19.5861 33.3341 19.6699 33.3524 19.7536 33.3524C19.9486 33.3524 20.1375 33.2453 20.2334 33.0586L20.2487 33.0295C20.3858 32.7632 20.2822 32.4372 20.0172 32.2994V32.3009Z" fill="#645050"/>
<path d="M59.8613 54.2458C59.7715 54.0591 59.5826 53.9412 59.377 53.9412H55.1091C53.1092 53.7591 51.746 53.1362 50.7163 50.5235L46.7622 36.9706C48.1102 35.9375 49.8497 34.384 50.7255 32.2688C51.6653 30.0021 51.5266 27.4629 50.3005 24.5059L41.7968 0.790249C41.7968 0.790249 41.7922 0.779536 41.7891 0.774944C41.7861 0.767291 41.7815 0.758108 41.7785 0.750455C41.7678 0.725967 41.7556 0.703009 41.7404 0.680051C41.7373 0.67699 41.7358 0.672398 41.7343 0.669337C41.7175 0.644848 41.6977 0.62189 41.6764 0.598932C41.6719 0.59281 41.6658 0.588218 41.6597 0.582096C41.6399 0.56373 41.6185 0.545363 41.5957 0.530058C41.5926 0.528528 41.5896 0.525466 41.5866 0.523936C41.5622 0.5071 41.5348 0.493325 41.5074 0.481081C41.4997 0.47802 41.4921 0.474959 41.483 0.471898C41.4571 0.461184 41.4297 0.453531 41.4023 0.447409C41.3992 0.447409 41.3962 0.445879 41.3931 0.444348C38.6773 -0.105115 30.693 2.24579 28.6428 4.19876C28.6291 4.21253 28.6169 4.22631 28.6047 4.24008C28.6032 4.24314 28.6002 4.24467 28.5971 4.24773C28.5773 4.27222 28.559 4.29977 28.5438 4.32885C28.5423 4.33191 28.5392 4.33497 28.5377 4.33803C28.5362 4.3411 28.5347 4.34416 28.5331 4.34875C28.5179 4.37783 28.5057 4.40844 28.4966 4.43752C28.4966 4.44058 28.4951 4.44517 28.4935 4.44823C28.4859 4.47578 28.4814 4.50333 28.4783 4.53088C28.4783 4.54007 28.4768 4.54772 28.4753 4.5569C28.4737 4.58751 28.4737 4.61812 28.4753 4.6472C28.4753 4.65179 28.4768 4.65639 28.4768 4.65945C28.4783 4.67781 28.4814 4.69618 28.4859 4.71455L34.0728 29.2858C34.7278 32.2367 36.2418 34.485 38.5722 35.9727C40.3939 37.1344 42.3359 37.5981 43.7403 37.8354L47.7066 51.4143C48.4118 54.4616 47.1704 55.7809 45.8742 56.661L42.2446 58.992C42.0039 59.1466 41.9247 59.4634 42.0648 59.7144C42.569 60.6128 43.8393 60.971 45.4752 60.971C48.954 60.971 54.0779 59.3455 56.9536 57.8318C59.4059 56.5401 60.3823 55.334 59.8568 54.2473L59.8613 54.2458ZM40.2386 1.44838C39.7116 1.84326 38.755 2.40191 37.2441 3.00953C34.938 3.93703 31.9937 4.65945 30.1888 4.39007C32.5527 2.93453 37.6705 1.52032 40.2386 1.44838ZM31.0631 5.53185C34.0728 5.53185 38.2113 3.9753 40.1974 2.77536C40.5767 2.54731 40.8844 2.32997 41.1281 2.12029L46.7089 17.6843C44.9025 17.0981 40.6285 18.2874 39.6308 18.5812C38.685 18.8613 34.8192 20.0658 33.4011 21.4464L29.7547 5.40941C30.1553 5.49206 30.594 5.53032 31.0616 5.53032L31.0631 5.53185ZM46.3693 18.6914C45.958 19.195 44.0221 20.3582 40.4609 21.3974C36.8998 22.4504 34.6471 22.5285 34.0302 22.3341C34.4491 21.8336 36.388 20.6719 39.937 19.6235C43.4905 18.5766 45.7493 18.5001 46.3693 18.6929V18.6914ZM56.4571 56.8707C54.2607 58.0278 51.0712 59.0976 48.3326 59.595C45.6534 60.0817 44.1059 59.921 43.4022 59.5369L46.4713 57.5655C47.8726 56.6135 49.6334 54.9146 48.7576 51.1526C48.7545 51.1434 48.753 51.1327 48.7499 51.1235L44.6846 37.2017C44.6252 36.9997 44.4562 36.8512 44.2505 36.8191C39.0962 36.0171 36.1139 33.4749 35.1314 29.047L33.8474 23.3993C34.1475 23.4713 34.51 23.505 34.9212 23.505C36.5404 23.505 38.8769 22.9999 40.7656 22.4412C42.6055 21.904 44.2978 21.2444 45.5315 20.5832C46.4043 20.1148 46.9816 19.6847 47.2801 19.273L49.2937 24.8886C49.2968 24.8962 49.2998 24.9054 49.3028 24.913C51.7643 30.8393 49.0835 33.9034 45.8209 36.3293C45.6397 36.464 45.5605 36.6997 45.6244 36.9171L49.6897 50.8541C49.6943 50.8694 49.6989 50.8847 49.705 50.9C50.9341 54.0392 52.7269 54.8182 55.039 55.0248C55.0543 55.0248 55.071 55.0264 55.0863 55.0264H58.8545C58.6641 55.4197 57.9802 56.0702 56.4586 56.8722L56.4571 56.8707Z" fill="#645050"/>
<path d="M47.7981 31.9765C47.9459 31.7163 47.856 31.3857 47.5971 31.2372C47.3397 31.0888 47.0091 31.1791 46.8614 31.4393C46.0693 32.8351 44.7305 33.6677 43.186 33.7244C41.3004 33.7948 39.4589 32.6836 38.1246 30.6801C37.9586 30.4322 37.6235 30.3648 37.3767 30.5317C37.13 30.6985 37.063 31.0352 37.229 31.2832C38.7308 33.5346 40.8312 34.811 43.0215 34.811C43.0901 34.811 43.1586 34.811 43.2256 34.808C45.1219 34.7391 46.8309 33.6815 47.7981 31.9765Z" fill="#645050"/>
<path d="M48.0372 30.3587C48.3358 30.3587 48.5764 30.1169 48.5764 29.8169V29.7863C48.5764 29.4863 48.3358 29.2444 48.0372 29.2444C47.7387 29.2444 47.498 29.4863 47.498 29.7863V29.8169C47.498 30.1169 47.7387 30.3587 48.0372 30.3587Z" fill="#645050"/>
<path d="M22.6464 7.24146C21.4934 7.24146 20.5566 8.18427 20.5566 9.34135C20.5566 10.4984 21.4949 11.4412 22.6464 11.4412C23.7979 11.4412 24.7362 10.4984 24.7362 9.34135C24.7362 8.18427 23.7979 7.24146 22.6464 7.24146ZM22.6464 10.3592C22.0889 10.3592 21.635 9.90306 21.635 9.34288C21.635 8.78271 22.0889 8.32661 22.6464 8.32661C23.2039 8.32661 23.6578 8.78271 23.6578 9.34288C23.6578 9.90306 23.2039 10.3592 22.6464 10.3592Z" fill="#645050"/>
<path d="M17.827 12.0841C16.8659 12.0841 16.083 12.8708 16.083 13.8366C16.083 14.8023 16.8659 15.589 17.827 15.589C18.7881 15.589 19.571 14.8023 19.571 13.8366C19.571 12.8708 18.7881 12.0841 17.827 12.0841ZM17.827 14.5054C17.4599 14.5054 17.1614 14.2054 17.1614 13.8366C17.1614 13.4677 17.4599 13.1677 17.827 13.1677C18.1941 13.1677 18.4926 13.4677 18.4926 13.8366C18.4926 14.2054 18.1941 14.5054 17.827 14.5054Z" fill="#645050"/>
<path d="M41.0491 28.043C42.0102 28.043 42.7931 27.2563 42.7931 26.2906C42.7931 25.3248 42.027 24.5381 41.0491 24.5381C40.0712 24.5381 39.3203 25.3079 39.3203 26.2906C39.3203 27.2732 40.0956 28.043 41.0491 28.043ZM41.0491 25.6217C41.4284 25.6217 41.7147 25.9094 41.7147 26.2906C41.7147 26.6717 41.4223 26.9594 41.0491 26.9594C40.6759 26.9594 40.3987 26.6594 40.3987 26.2906C40.3987 25.9217 40.679 25.6217 41.0491 25.6217Z" fill="#645050"/>
<path d="M36.411 13.0009C37.3721 13.0009 38.155 12.2142 38.155 11.2484C38.155 10.2827 37.3721 9.49597 36.411 9.49597C35.4499 9.49597 34.667 10.2827 34.667 11.2484C34.667 12.2142 35.4499 13.0009 36.411 13.0009ZM36.411 10.5796C36.7781 10.5796 37.0766 10.8796 37.0766 11.2484C37.0766 11.6173 36.7781 11.9173 36.411 11.9173C36.0439 11.9173 35.7454 11.6173 35.7454 11.2484C35.7454 10.8796 36.0439 10.5796 36.411 10.5796Z" fill="#645050"/>
<path d="M41.0491 16.2854C42.2022 16.2854 43.1389 15.3426 43.1389 14.1855C43.1389 13.0284 42.2006 12.0856 41.0491 12.0856C39.8976 12.0856 38.9746 13.0284 38.9746 14.1855C38.9746 15.3426 39.9053 16.2854 41.0491 16.2854ZM41.0491 13.1677C41.6066 13.1677 42.0605 13.6238 42.0605 14.184C42.0605 14.7442 41.6066 15.2003 41.0491 15.2003C40.4917 15.2003 40.053 14.7442 40.053 14.184C40.053 13.6238 40.5008 13.1677 41.0491 13.1677Z" fill="#645050"/>
</g>
<defs>
<clipPath id="clip0_1853_145">
<rect width="60" height="61.2766" fill="white" transform="translate(0 0.361694)"/>
</clipPath>
</defs>
</svg>
