<svg width="60" height="70" viewBox="0 0 60 70" fill="none" xmlns="http://www.w3.org/2000/svg">
<g clip-path="url(#clip0_1853_200)">
<path d="M41.3428 45.99C41.3428 48.079 43.0424 49.7786 45.1314 49.7786C45.2577 49.7786 45.381 49.7725 45.5042 49.7603C45.8694 49.7238 46.2178 49.6356 46.5449 49.5047C47.9356 48.9433 48.9185 47.58 48.9185 45.9915C48.9185 43.9024 47.219 42.2029 45.1299 42.2029C43.0409 42.2029 41.3413 43.9024 41.3413 45.9915L41.3428 45.99ZM47.8413 45.99C47.8413 47.0855 47.222 48.006 46.3076 48.4381C45.9911 48.5872 45.6396 48.677 45.2653 48.6952C45.2197 48.6968 45.1756 48.7013 45.1299 48.7013C43.6358 48.7013 42.4186 47.4856 42.4186 45.99C42.4186 44.4943 43.6343 43.2786 45.1299 43.2786C46.6256 43.2786 47.8413 44.4943 47.8413 45.99Z" fill="#645050"/>
<path d="M6.33255 42.2014C4.24349 42.2014 2.54395 43.901 2.54395 45.99C2.54395 47.5785 3.52837 48.9418 4.91753 49.5032C5.24466 49.6356 5.59461 49.7239 5.95978 49.7604C6.08302 49.7725 6.20627 49.7786 6.33255 49.7786C8.42161 49.7786 10.1212 48.0791 10.1212 45.99C10.1212 43.901 8.42161 42.2014 6.33255 42.2014ZM6.33255 48.7014C6.28691 48.7014 6.24278 48.6968 6.19714 48.6953C5.82588 48.677 5.47441 48.5842 5.15641 48.4306C4.24958 47.9908 3.62119 47.0642 3.62119 45.9915C3.62119 44.4974 4.83689 43.2802 6.33255 43.2802C7.82822 43.2802 9.04392 44.4959 9.04392 45.9915C9.04392 47.4872 7.82822 48.7029 6.33255 48.7029V48.7014Z" fill="#645050"/>
<path d="M58.075 9.47629C57.2564 8.51469 56.2522 7.80413 55.1674 7.39332C54.8463 6.03459 54.2118 4.75499 53.2868 3.66557C51.7774 1.88538 49.6975 0.862915 47.581 0.862915C45.4646 0.862915 43.6098 1.74236 42.1705 3.34149C40.4785 5.22058 39.6736 7.86195 39.9597 10.5901C40.439 15.1653 42.8506 18.7896 45.9438 19.8851L45.5939 21.6029C45.5711 21.714 45.5848 21.8281 45.6304 21.9315C45.9271 22.5904 46.6574 22.8064 47.4045 22.814C47.7103 26.0792 46.5509 28.0572 45.4235 29.2455C45.3931 25.7993 44.4832 23.1335 42.6573 21.1403C39.6599 17.8675 34.2828 16.343 25.7364 16.343C17.19 16.343 11.8038 17.8691 8.80331 21.1449C6.65948 23.485 5.77699 26.7517 6.10107 31.1155C2.45397 33.4952 0.529233 37.6474 0.0332145 43.9618C-0.138718 47.3517 0.342085 49.3997 1.59278 50.6002C2.41441 51.3883 3.47644 51.752 4.76213 52.0076C4.83668 53.6402 5.25206 55.2439 6.00826 56.6544C6.05695 56.7441 6.12846 56.8187 6.21823 56.8689C6.93944 57.2767 7.86149 57.6768 9.09088 57.6768C9.74362 57.6768 10.4861 57.5627 11.3291 57.2782C12.5158 57.1489 12.951 54.8757 13.0469 53.1031C14.2869 53.1944 15.5224 53.2568 16.7092 53.2963C16.6514 53.7984 16.5859 54.2732 16.4992 54.7007C16.4581 54.9031 16.5372 55.1115 16.7016 55.2363C16.7974 55.3093 16.9115 55.3458 17.0272 55.3458C17.1109 55.3458 17.1945 55.3261 17.2721 55.2865C20.4811 53.6478 21.6298 53.8608 23.9212 54.2838L24.332 54.3599C24.4872 54.3888 24.647 54.3462 24.7687 54.2473C24.8904 54.1484 24.9635 53.9993 24.9665 53.8426C24.9711 53.6524 24.9757 53.4607 24.9817 53.269C25.2739 53.2583 25.5234 53.2461 25.7197 53.237C26.275 53.2629 27.2306 53.3024 28.46 53.3283C28.498 53.3329 28.536 53.3344 28.5756 53.3344C28.5923 53.3344 28.6106 53.3329 28.6288 53.3313C31.147 53.38 34.7469 53.3724 38.4123 53.097C38.5081 54.8726 38.9479 57.1504 40.1453 57.2797C40.9852 57.5627 41.7231 57.6768 42.3743 57.6768C43.6007 57.6768 44.5212 57.2782 45.2409 56.8704C45.3292 56.8202 45.4022 56.7457 45.4509 56.6559C46.2223 55.2165 46.6407 53.5763 46.7016 51.9118C50.7078 50.7767 51.8398 48.4092 51.3635 43.3227C50.8462 37.973 49.2501 34.2392 46.3729 31.8671C49.0371 31.791 51.9645 30.2543 53.5926 26.6011C53.8878 26.5524 54.1571 26.4794 54.3594 26.4048C54.9711 26.1781 55.0396 25.8464 54.9787 25.5969L54.6729 24.0267C55.5051 23.6767 56.3435 23.0651 57.0891 22.2404C58.0796 21.1434 59.3698 19.1791 59.8887 16.0554C59.8887 16.0554 59.8887 16.0554 59.8887 16.0539C60.2736 13.6864 59.6118 11.29 58.0704 9.47934L58.075 9.47629ZM46.8872 21.6698C46.8081 21.6455 46.7457 21.6181 46.6985 21.5846L46.9907 20.1529L47.0987 19.6234L47.1291 19.4712L47.2052 19.0954L47.3132 18.5674C47.3193 18.537 47.3208 18.5081 47.3224 18.4792C47.3269 18.3499 47.2843 18.2281 47.2082 18.1308C47.1322 18.0334 47.0241 17.9603 46.8933 17.933C46.7898 17.9117 46.6894 17.9238 46.5981 17.9573C46.4292 18.0197 46.2968 18.1642 46.2588 18.3529L46.1629 18.82C43.5231 17.8082 41.4614 14.5658 41.0339 10.4775C40.7798 8.05214 41.4858 5.71507 42.9738 4.06269C44.2063 2.69484 45.8434 1.94016 47.5841 1.94016C49.3247 1.94016 51.1642 2.82265 52.4682 4.36243C53.1498 5.1658 53.6519 6.08785 53.9638 7.06771C54.0247 7.2579 54.0764 7.44962 54.1236 7.64437C54.1692 7.83608 54.2088 8.02932 54.2392 8.2256C54.3123 8.6851 54.3427 9.15069 54.3336 9.62084C54.3305 9.80951 54.3199 9.99818 54.3016 10.1884C54.2849 10.3725 54.2636 10.5566 54.2331 10.7407C54.2316 10.7529 54.2301 10.765 54.2286 10.7772C54.2118 10.8776 54.1921 10.975 54.1738 11.0739C53.3857 15.3296 51.1505 17.9269 49.1954 18.8094L49.1208 18.4214C49.0645 18.1292 48.783 17.9375 48.4909 17.9938C48.2383 18.0425 48.0633 18.2586 48.0542 18.5051C48.0542 18.5446 48.0542 18.5842 48.0633 18.6252L48.1577 19.1197L48.1668 19.17L48.2581 19.6477L48.36 20.1803L48.4924 20.8725L48.6233 21.5527C48.5487 21.5755 48.4605 21.5998 48.3661 21.6227C48.3555 21.6257 48.3448 21.6272 48.3342 21.6303C48.0162 21.7018 47.613 21.7566 47.2585 21.7337C47.1261 21.7246 46.9998 21.7063 46.8872 21.6729V21.6698ZM54.4142 22.6756C54.3579 22.3834 54.0734 22.1932 53.7828 22.2495C53.5302 22.2982 53.3552 22.5158 53.3476 22.7638C53.3476 22.8034 53.3476 22.8414 53.3567 22.8825L53.4313 23.2629L53.5348 23.7939L53.6382 24.3249L53.8558 25.4402C53.4815 25.5497 52.8105 25.6593 52.389 25.53C52.3556 25.5193 52.3099 25.5041 52.2688 25.4813L52.5077 24.3051L52.6158 23.7756L52.7223 23.2492L52.8044 22.8429C52.8105 22.8125 52.8136 22.7806 52.8136 22.7501C52.8212 22.493 52.6447 22.2602 52.3845 22.2069C52.0924 22.1476 51.8078 22.3363 51.75 22.6269L51.68 22.9677C50.971 22.6816 50.3122 22.2069 49.7279 21.5846L49.4023 19.8881C50.3456 19.5093 51.2951 18.82 52.1578 17.8675C53.5971 16.2775 54.65 14.0759 55.1643 11.6156C55.1826 11.5258 55.2008 11.4345 55.2191 11.3432C55.4869 11.5562 55.7227 11.7905 55.9205 12.0294C56.129 12.282 56.2933 12.5391 56.4044 12.7856C56.4941 12.9849 56.6904 13.1021 56.8958 13.1021C56.9704 13.1021 57.0449 13.0869 57.118 13.0549C57.3888 12.9332 57.509 12.6137 57.3873 12.3429C57.0145 11.5167 56.2933 10.7133 55.3865 10.1412C55.423 9.64518 55.4199 9.15221 55.3758 8.6638C56.0681 9.02288 56.7102 9.53259 57.2564 10.1747C58.5908 11.7449 59.1659 13.8233 58.8312 15.8774C58.1982 19.6858 56.1974 22.0822 54.4659 22.9327L54.4157 22.6756H54.4142ZM46.6924 50.801C46.3653 50.9015 46.0108 50.9912 45.6319 51.0734C44.9609 51.2195 44.2093 51.3397 43.3649 51.4416C43.3573 51.4416 43.3496 51.4431 43.342 51.4446C42.9282 51.5116 42.5082 51.574 42.0853 51.6318C41.7307 51.6805 41.3732 51.7246 41.0141 51.7672C40.5044 51.8265 39.9901 51.8783 39.4758 51.9254C39.1167 51.9589 38.7561 51.9894 38.3971 52.0152C35.7481 52.2161 33.1265 52.2769 30.9294 52.2754C31.0374 52.2085 31.1455 52.14 31.2565 52.07C32.527 51.2727 34.1094 50.2807 35.8789 49.7055C36.0463 49.6508 36.1772 49.5184 36.2274 49.3495C36.2791 49.1806 36.2441 48.998 36.1346 48.8596C35.5442 48.111 35.0801 47.4065 34.6967 46.7416C35.0375 46.7994 35.3875 46.8298 35.7481 46.8298C36.1711 46.8298 36.6093 46.7872 37.0642 46.6975C37.0657 46.6975 37.0672 46.6975 37.0688 46.696C37.1068 46.6883 37.1448 46.6746 37.1798 46.6594C37.192 46.6549 37.2027 46.6473 37.2133 46.6412C37.2377 46.6275 37.262 46.6123 37.2848 46.5955C37.297 46.5864 37.3077 46.5773 37.3183 46.5681C37.3259 46.5605 37.335 46.556 37.3426 46.5484C37.3563 46.5347 37.3655 46.5195 37.3776 46.5058C37.3853 46.4966 37.3944 46.486 37.402 46.4769C37.4248 46.4434 37.4461 46.4069 37.4613 46.3673C37.8661 45.3342 38.1567 44.2737 38.3392 43.1903C40.9821 41.0967 41.8631 38.1739 42.5965 35.747C43.091 34.1083 43.5261 32.6674 44.3645 31.7971C47.8579 33.9029 49.737 37.6581 50.2939 43.4231C50.7062 47.8325 49.9272 49.8044 46.6924 50.801ZM26.4804 52.1902C26.3968 52.1476 26.3024 52.1263 26.202 52.1324C26.1898 52.1324 26.0209 52.143 25.7212 52.1582C25.4245 52.1445 25.2571 52.1339 25.245 52.1324C25.1658 52.1278 25.0882 52.1415 25.0183 52.1689C25.1126 49.5336 25.3028 46.7416 25.7836 43.8096C26.3116 45.427 26.5961 47.0718 26.873 48.6785C27.0738 49.844 27.2808 51.0445 27.579 52.2282C27.1651 52.2161 26.7954 52.2039 26.482 52.1917L26.4804 52.1902ZM23.9075 53.1853C22.2293 52.8764 20.9938 52.6923 19.0478 53.3466C18.6415 53.4835 18.2048 53.6539 17.7256 53.8715C17.7499 53.6935 17.7712 53.5094 17.7925 53.3253C17.8123 53.1503 17.8321 52.9723 17.8503 52.7927C17.8686 52.6147 17.8868 52.4352 17.9051 52.2526C17.9051 52.248 17.9051 52.245 17.9051 52.2404C18.112 50.1818 18.3463 47.8675 19.3019 45.6674C19.3277 45.6081 19.3551 45.5472 19.381 45.4879C19.7644 45.2612 20.1372 45.0086 20.5008 44.7377C21.3803 44.0835 22.2141 43.3227 23.0387 42.5711C23.1879 42.4341 23.3415 42.2957 23.4937 42.1572C23.7234 42.0249 23.9623 41.8834 24.2088 41.7342C24.4036 41.8301 24.6044 41.9199 24.8113 41.9914L24.9407 42.3763C24.755 43.3531 24.6029 44.3148 24.4781 45.2596C24.4599 45.3996 24.4431 45.5396 24.4249 45.6796C24.1403 47.9588 24.0095 50.1422 23.9364 52.2282C23.9304 52.4093 23.9243 52.5904 23.9182 52.7714C23.9136 52.9099 23.9091 53.0499 23.906 53.1883L23.9075 53.1853ZM13.0666 52.0243C12.7076 51.997 12.347 51.9681 11.9879 51.9361C11.4721 51.8905 10.9593 51.8372 10.4496 51.7794C10.0905 51.7383 9.73297 51.6927 9.37845 51.6455C8.86722 51.577 8.36055 51.5009 7.86453 51.4173C7.4811 51.3549 7.11137 51.3001 6.75381 51.2453C6.43429 51.1966 6.12694 51.151 5.83024 51.1038C5.45595 51.043 5.09991 50.9806 4.76517 50.9091C3.75335 50.6915 2.92869 50.3902 2.34138 49.8257C1.33564 48.8596 0.956783 47.0687 1.11046 44.0333C1.59126 37.9198 3.48252 33.9729 7.09616 31.7956C7.93604 32.6659 8.37272 34.1068 8.86722 35.7485C9.60364 38.1921 10.4922 41.1348 13.1731 43.2314C13.3573 44.2128 13.6326 45.1744 14.0009 46.1132C14.0039 46.1208 14.0085 46.1269 14.0115 46.1345C14.0237 46.1619 14.0374 46.1878 14.0541 46.2121C14.0617 46.2243 14.0693 46.2349 14.0785 46.2471C14.0845 46.2547 14.0876 46.2623 14.0937 46.2699C14.1058 46.2836 14.1195 46.2943 14.1317 46.3049C14.1439 46.3156 14.1545 46.3277 14.1667 46.3384C14.191 46.3567 14.2154 46.3734 14.2428 46.3871C14.2534 46.3932 14.2626 46.3993 14.2732 46.4038C14.3112 46.4221 14.3508 46.4358 14.3919 46.4434C14.3919 46.4434 14.3934 46.4434 14.3949 46.4434C14.8499 46.5347 15.2881 46.5773 15.7126 46.5773C16.5068 46.5773 17.2493 46.4266 17.9538 46.171C17.225 48.2449 17.015 50.3339 16.8339 52.1324C16.8309 52.1628 16.8279 52.1932 16.8248 52.2237C15.6061 52.1841 14.3386 52.1217 13.0651 52.0259L13.0666 52.0243ZM12.8977 24.6581C14.7799 22.5508 18.9793 21.5268 25.7395 21.5268C32.4996 21.5268 36.6853 22.5508 38.566 24.6566C39.5336 25.7399 39.9475 27.1732 39.8273 29.0234C39.7086 29.0006 39.5899 28.9777 39.4682 28.9564C34.009 27.832 21.8291 27.0986 11.8205 28.9853C11.7581 28.996 11.6988 29.0097 11.6364 29.0203C11.5162 27.1717 11.9301 25.7384 12.8962 24.6566L12.8977 24.6581ZM37.3472 42.5802C37.2787 43.0762 37.1829 43.5662 37.0657 44.05C36.9683 44.4502 36.8558 44.8473 36.7249 45.2383C36.4115 44.9903 36.1178 44.8077 35.8211 44.6617C35.3373 44.4243 34.8489 44.2843 34.26 44.1154C34.2433 44.1109 34.225 44.1048 34.2083 44.1002C33.9375 44.0226 33.6423 43.9374 33.3091 43.8309C33.0976 43.764 32.8724 43.6879 32.6274 43.6012C32.4083 43.5236 32.1755 43.4368 31.926 43.3379C31.1881 43.0458 30.3071 42.6532 29.2314 42.1009C29.204 42.0766 29.1766 42.0507 29.1492 42.0264C28.7856 41.6947 28.4097 41.3523 28.0339 41.0222L27.8894 40.3664C28.0811 40.4835 28.2652 40.6144 28.4569 40.7513C29.1127 41.2184 29.8339 41.7312 31.0602 41.7784C31.1226 41.7814 31.1835 41.7829 31.2474 41.7829C31.3935 41.7829 31.5487 41.7738 31.7084 41.7601C31.894 41.7449 32.0888 41.719 32.2957 41.684C32.3733 41.6703 32.4494 41.6582 32.5285 41.6414C32.8207 41.5821 33.0078 41.296 32.9469 41.0054C32.8876 40.7133 32.6016 40.5277 32.3109 40.587C32.0401 40.6433 31.7997 40.6753 31.576 40.6935C31.3813 40.7087 31.2018 40.7118 31.0374 40.7026C30.9583 40.6981 30.8822 40.692 30.8092 40.6813C30.3953 40.6281 30.0636 40.4957 29.7563 40.3207C29.5281 40.1899 29.3105 40.0377 29.0807 39.8734C28.8556 39.7137 28.6197 39.5463 28.3565 39.3911C28.4097 39.382 28.4615 39.3713 28.5132 39.3591C28.7886 39.2983 29.0549 39.21 29.3135 39.105C29.8445 38.889 30.3436 38.5999 30.8351 38.3154C31.9001 37.6976 32.9059 37.1164 34.1961 37.2549C34.4913 37.2868 34.7576 37.0723 34.7895 36.7771C34.8215 36.4819 34.6069 36.2157 34.3118 36.1837C32.6715 36.0072 31.4087 36.7375 30.2949 37.3827C29.3668 37.9198 28.5497 38.393 27.6018 38.3762C27.5866 38.2636 27.5683 38.151 27.547 38.04C29.1583 35.9479 33.3715 34.2818 36.6427 35.0867C37.4415 37.6931 37.6759 40.199 37.3487 42.5756L37.3472 42.5802ZM19.4708 44.1504C19.2897 44.2752 19.1056 44.3939 18.92 44.5065C18.8013 44.578 18.6826 44.6465 18.5624 44.7119C18.1607 44.9295 17.7484 45.1105 17.3224 45.2429C16.8811 45.3813 16.4277 45.4681 15.953 45.4909C16.2208 45.3205 16.4764 45.1851 16.732 45.0679C17.1915 44.8564 17.654 44.7058 18.1972 44.5293C18.2992 44.4958 18.4057 44.4608 18.5137 44.4258C18.5898 44.4015 18.6659 44.3756 18.745 44.3498C18.9823 44.2691 19.238 44.1809 19.5134 44.0774C19.5575 44.0607 19.6016 44.0439 19.6473 44.0272C19.5879 44.0698 19.5286 44.1109 19.4692 44.152L19.4708 44.1504ZM14.4725 44.0911C14.3432 43.6042 14.2413 43.1097 14.1621 42.6106C13.7726 40.1488 13.9902 37.547 14.8225 34.8356C18.0907 34.0353 22.2962 35.6938 23.9106 37.7783C23.8299 37.9898 23.7676 38.1997 23.7219 38.4082C22.7573 38.4401 21.9311 37.9624 20.9892 37.4161C19.8755 36.771 18.6126 36.0392 16.9709 36.2172C16.6757 36.2491 16.4612 36.5154 16.4931 36.8106C16.5251 37.1057 16.7913 37.3188 17.0865 37.2883C18.3783 37.1483 19.3825 37.7311 20.4476 38.3488C21.2236 38.7992 22.0193 39.2587 22.9277 39.4246C22.6675 39.5767 22.4347 39.741 22.211 39.8993C21.9752 40.0666 21.7485 40.2249 21.5035 40.3603C21.1597 40.549 20.7793 40.6874 20.2833 40.7239C19.9181 40.7513 19.4905 40.7239 18.9687 40.619C18.6765 40.5611 18.3935 40.7498 18.3342 41.0404C18.2764 41.3326 18.465 41.6156 18.7556 41.6749C19.2288 41.7692 19.6473 41.8118 20.02 41.8118C20.2133 41.8118 20.3928 41.7997 20.5617 41.7799C20.9482 41.7342 21.2814 41.6399 21.5781 41.5182C22.068 41.3173 22.4606 41.0404 22.8303 40.7787C23.0646 40.6129 23.2883 40.4562 23.5256 40.3207L23.4374 40.7224L23.4267 40.7681C23.2335 40.9385 23.0387 41.1119 22.847 41.2854C22.6599 41.3934 22.4788 41.4954 22.3023 41.5912C21.7181 41.9123 21.1992 42.1755 20.7275 42.3961C20.3456 42.5756 19.9957 42.7278 19.6716 42.8587C18.9717 43.1417 18.3905 43.3318 17.8625 43.5038C17.4532 43.6377 17.0713 43.7609 16.6924 43.9131C16.2725 44.0804 15.8556 44.2798 15.4052 44.5628C15.1953 44.6951 14.9762 44.8473 14.7479 45.0207C14.6445 44.7134 14.5501 44.4045 14.468 44.0926L14.4725 44.0911ZM24.7079 40.7772C24.7079 40.7772 24.7079 40.7681 24.7079 40.7635C24.6942 40.5551 24.682 40.3496 24.6729 40.1458C24.6698 40.0743 24.6683 40.0027 24.6668 39.9328C24.6668 39.9084 24.6668 39.8856 24.6668 39.8612C24.6653 39.7121 24.6668 39.5645 24.6729 39.417C24.6729 39.4078 24.6729 39.3987 24.6729 39.388C24.6805 39.2344 24.6957 39.0822 24.7185 38.9301C24.7231 38.8996 24.7276 38.8692 24.7322 38.8388C24.7992 38.4538 24.9209 38.0719 25.1339 37.6931C25.1385 37.6855 25.1415 37.6794 25.1461 37.6718C25.426 37.5896 25.7303 37.5516 26.3633 37.7372C26.3724 37.7676 26.38 37.7965 26.3876 37.8254C26.4272 37.9685 26.4622 38.11 26.4896 38.2499C26.5261 38.434 26.5504 38.6197 26.5641 38.8083C26.5641 38.8099 26.5641 38.8129 26.5641 38.8159C26.5763 38.9894 26.5809 39.1674 26.5763 39.3531C26.5763 39.3591 26.5763 39.3652 26.5763 39.3698C26.5763 39.3698 26.5763 39.3728 26.5763 39.3744C26.5763 39.3896 26.5763 39.4033 26.5748 39.4185C26.5687 39.5706 26.558 39.7258 26.5398 39.8901C26.5094 40.1747 26.4607 40.482 26.3937 40.8198C26.31 40.8822 26.2279 40.9309 26.1442 40.9704C25.9799 41.0465 25.8171 41.0785 25.6421 41.0724C25.6269 41.0724 25.6117 41.0709 25.5964 41.0693C25.4321 41.0556 25.2587 41.01 25.0669 40.9354C25.0517 40.9294 25.0365 40.9233 25.0228 40.9172C24.9239 40.8776 24.8205 40.8305 24.7094 40.7757L24.7079 40.7772ZM33.7214 45.3524C33.5784 45.2961 33.4369 45.2353 33.2969 45.1699C33.0367 45.0466 32.7811 44.9066 32.527 44.7545C32.4707 44.721 32.4159 44.686 32.3596 44.651C32.4083 44.6678 32.457 44.686 32.5042 44.7012C32.7491 44.7849 32.9743 44.8564 33.1858 44.9218C33.4308 44.9964 33.656 45.0634 33.866 45.1227C33.8979 45.1318 33.9299 45.1409 33.9603 45.1501C34.047 45.1744 34.1277 45.1988 34.2083 45.2216C34.7484 45.3783 35.1577 45.5122 35.564 45.7465C35.0284 45.7267 34.5172 45.6263 34.0242 45.462C33.9222 45.4285 33.8203 45.3905 33.7199 45.3509L33.7214 45.3524ZM27.4588 45.9382C27.3888 45.6065 27.3112 45.2733 27.2275 44.9401C26.9886 43.9831 26.6904 43.023 26.2842 42.069C26.555 41.9899 26.8304 41.8468 27.1073 41.6247C27.1317 41.6582 27.1575 41.6901 27.1895 41.7175C27.6003 42.0751 28.0172 42.4539 28.4189 42.8221C28.463 42.8632 28.5071 42.9028 28.5512 42.9439C28.5604 42.953 28.5695 42.9606 28.5786 42.9697C29.2572 43.589 29.945 44.2098 30.6601 44.7666C31.0922 45.1029 31.535 45.4163 31.9929 45.6917C32.3992 45.9367 32.8176 46.1512 33.2497 46.3277C33.6545 47.1311 34.1596 48.0029 34.8397 48.9356C33.2391 49.5579 31.8393 50.4359 30.6844 51.1601C29.9541 51.6181 29.061 52.178 28.6943 52.2434C28.3671 51.0095 28.1465 49.7329 27.9335 48.4944C27.789 47.6515 27.6414 46.7979 27.4588 45.9398V45.9382ZM37.58 34.4826C37.5252 34.3122 37.3898 34.1814 37.2194 34.1312C33.6864 33.092 29.2542 34.6941 27.1271 36.8912C27.0799 36.8532 27.0267 36.8197 26.9673 36.7999C25.7866 36.3967 25.2267 36.5139 24.6668 36.6934L24.6272 36.7056C24.5724 36.7238 24.5222 36.7497 24.4751 36.7832C22.4088 34.5131 17.8579 32.815 14.2443 33.874C14.0724 33.9242 13.937 34.0566 13.8822 34.2255C13.0666 36.7649 12.7593 39.2192 12.951 41.5699C11.2028 39.7623 10.5135 37.48 9.89577 35.4336C9.41649 33.8436 8.95851 32.3251 8.06841 31.2661C9.22782 30.7108 10.5379 30.306 12.0122 30.0459C16.3988 29.2181 21.2053 28.9017 25.6634 28.9017C31.2413 28.9017 36.2745 29.3977 39.2582 30.0139C39.2643 30.0139 39.2704 30.0169 39.2765 30.0169C40.7996 30.2756 42.1507 30.6819 43.342 31.2463C43.342 31.2707 43.3451 31.2965 43.3481 31.3209C42.4885 32.3768 42.0366 33.8695 41.5649 35.4336C40.9502 37.4709 40.264 39.7441 38.531 41.5486C38.677 39.2831 38.3621 36.9201 37.5785 34.4811L37.58 34.4826ZM9.59907 21.8722C12.3439 18.8763 17.6221 17.4202 25.7379 17.4202C33.8538 17.4202 39.1228 18.8748 41.8631 21.8676C43.6616 23.8304 44.471 26.5707 44.331 30.2132C44.2443 30.2786 44.1621 30.3395 44.0861 30.3943C43.1229 29.9165 42.0594 29.5377 40.8893 29.2516C41.0658 27.0241 40.5668 25.2835 39.3663 23.94C37.2407 21.5588 32.9089 20.4496 25.7364 20.4496C18.5639 20.4496 14.2184 21.5588 12.0913 23.9415C10.8924 25.2835 10.3933 27.0241 10.5698 29.2501C9.30542 29.5574 8.16427 29.9759 7.13876 30.5084C6.94248 26.7213 7.74889 23.8882 9.59755 21.8722H9.59907ZM6.88618 56.0077C6.36582 54.9898 5.95805 53.6676 5.85154 52.1978C6.09195 52.2358 6.33996 52.2724 6.59405 52.3104C6.94705 52.3636 7.31373 52.4184 7.68803 52.4793C8.2373 52.5721 8.79875 52.6558 9.36628 52.7303C9.40279 53.9582 9.60364 55.5482 10.1301 56.4885C8.68463 56.7791 7.68347 56.4368 6.88618 56.0077ZM11.218 56.1842C10.9761 55.9666 10.5181 54.862 10.4466 52.8612C10.9532 52.9175 11.4629 52.9692 11.9742 53.0149C11.8859 54.9061 11.4508 55.9651 11.218 56.1842ZM41.0156 52.8521C40.9456 54.8453 40.4922 55.959 40.2518 56.1842C40.016 55.9727 39.5747 54.9153 39.4865 53.0073C39.9977 52.9616 40.5074 52.9099 41.0156 52.8521ZM44.5775 56.0077C43.7818 56.4368 42.7821 56.7776 41.3412 56.487C41.8646 55.5436 42.0639 53.9476 42.0974 52.7197C42.5721 52.6558 43.0423 52.5873 43.5064 52.5112C44.2732 52.4184 44.9731 52.3074 45.6152 52.1735C45.5102 53.6524 45.1024 54.9822 44.579 56.0077H44.5775ZM45.3961 30.7412C46.7913 29.5742 48.8987 27.1823 48.4757 22.6984C48.7298 22.6436 48.958 22.5767 49.136 22.5082C49.8314 23.202 50.618 23.7239 51.4609 24.0343L51.1597 25.5147C51.1368 25.6273 51.1505 25.743 51.1977 25.848C51.4153 26.3211 51.8717 26.5463 52.3875 26.6255C50.7108 29.9226 47.7956 31.047 45.3946 30.7412H45.3961Z" fill="#645050"/>
<path d="M56.5779 15.6309C56.6008 15.6309 56.6251 15.6309 56.6479 15.6264L56.7681 15.6111C57.0633 15.5731 57.2718 15.3023 57.2322 15.0071C57.1942 14.7119 56.9233 14.5035 56.6281 14.543L56.5079 14.5582C56.2128 14.5963 56.0043 14.8671 56.0439 15.1623C56.0789 15.4331 56.3101 15.6309 56.5779 15.6309Z" fill="#645050"/>
<path d="M51.0349 6.54282C51.1993 6.75736 51.3347 6.97342 51.4381 7.18339C51.4534 7.21534 51.4686 7.24729 51.4838 7.27772C51.5736 7.47704 51.7698 7.59572 51.9752 7.59572C52.0483 7.59572 52.1243 7.58051 52.1959 7.54855C52.4119 7.45118 52.5306 7.23056 52.5093 7.00689C52.5032 6.94907 52.491 6.89278 52.4667 6.838C51.604 4.91174 49.0509 3.10112 46.4262 3.53324C46.1326 3.58193 45.9332 3.85885 45.9819 4.1525C46.0306 4.44616 46.306 4.64548 46.6012 4.59679C46.8705 4.55266 47.1368 4.53897 47.397 4.54962C48.9246 4.61505 50.2787 5.55535 51.0349 6.54282Z" fill="#645050"/>
<path d="M51.9421 9.37129C51.863 9.34086 51.7748 9.32565 51.685 9.33782L51.5648 9.35304C51.2696 9.38955 51.0596 9.65734 51.0946 9.95252C51.1281 10.2264 51.3609 10.4257 51.6287 10.4257C51.65 10.4257 51.6728 10.4257 51.6941 10.4211L51.8143 10.4059C51.8234 10.4059 51.831 10.4014 51.8402 10.3998C52.0471 10.3649 52.2069 10.2157 52.2647 10.0256C52.2799 9.97534 52.286 9.92209 52.286 9.86883C52.286 9.84753 52.286 9.82775 52.286 9.80645C52.2616 9.60104 52.1232 9.43976 51.9436 9.37129H51.9421Z" fill="#645050"/>
<path d="M31.0073 64.8159C30.3987 64.4964 29.571 64.5557 28.9928 65.1963C28.8924 65.3073 28.7981 65.4351 28.7144 65.5843C28.5683 65.8429 28.6611 66.1716 28.9198 66.3176C29.18 66.4637 29.5071 66.3709 29.6532 66.1122C29.889 65.6908 30.2526 65.6375 30.5067 65.7699C30.8826 65.9677 31.0697 66.558 30.6376 67.4375C30.3972 67.9411 29.5649 68.1891 28.7828 67.9913C28.2351 67.8529 26.9737 67.2899 27.0894 65.0654C27.0894 65.0548 27.0894 65.0426 27.0894 65.0319L27.059 62.1456L27.0285 58.5168L27.0133 56.6255C27.0103 56.3288 26.7653 56.0823 26.4701 56.0914C26.1719 56.0945 25.933 56.3364 25.9361 56.6346L25.9817 62.1562L26.0121 65.0274C25.8904 67.4846 27.2263 68.7095 28.5181 69.0366C28.792 69.1066 29.0658 69.1385 29.3336 69.1385C30.3378 69.1385 31.2432 68.673 31.6083 67.9076C32.3508 66.3922 31.8183 65.2434 31.0073 64.8174V64.8159Z" fill="#645050"/>
<path d="M23.6751 55.781C23.3829 55.8495 23.2019 56.1416 23.2704 56.4337C23.5792 57.7529 23.3358 59.2166 22.6191 60.3486C22.1931 61.0212 21.4034 61.8839 20.0569 62.173C19.2185 62.3571 18.2706 62.1821 17.5829 61.718C17.2071 61.4639 16.7308 61.0044 16.603 60.2543C16.53 59.7978 16.6487 59.2957 16.9149 58.9427C17.1142 58.678 17.3729 58.5243 17.6879 58.4863C17.8826 58.4604 18.1108 58.5213 18.2432 58.6339C18.3391 58.716 18.3512 58.7952 18.3528 58.8484C18.3528 58.8545 18.3528 58.8606 18.3528 58.8651C18.3528 58.8697 18.3528 58.8758 18.3512 58.8819C18.0911 58.9123 17.8841 59.1269 17.8704 59.3962C17.8567 59.6959 18.088 59.95 18.3878 59.9637C18.6586 59.9743 18.9173 59.8754 19.112 59.6792C19.3311 59.457 19.4528 59.1345 19.4376 58.8134C19.4254 58.4254 19.252 58.0679 18.9492 57.8077C18.584 57.4943 18.0454 57.3421 17.5524 57.4075C16.9484 57.479 16.428 57.7833 16.0476 58.287C15.6034 58.8773 15.4101 59.6761 15.5319 60.4308C15.6855 61.327 16.1846 62.0832 16.9758 62.6172C17.6666 63.0828 18.5186 63.3308 19.3722 63.3308C19.6795 63.3308 19.9884 63.2989 20.2882 63.2335C21.6241 62.9474 22.7774 62.1288 23.5366 60.9283C24.4069 59.5544 24.7021 57.7818 24.3278 56.1842C24.2593 55.8921 23.9672 55.711 23.6751 55.7795V55.781Z" fill="#645050"/>
<path d="M35.2615 56.5951C34.7548 56.3425 34.1447 56.3029 33.6319 56.4886C33.2044 56.6438 32.8727 56.9496 32.6962 57.3498C32.5303 57.7012 32.5151 58.1181 32.6521 58.4696C32.7753 58.783 33.0127 59.0234 33.32 59.1436C33.3367 59.1497 33.3535 59.1558 33.3702 59.1604C33.6563 59.241 33.9667 59.2106 34.1995 59.0767C34.3957 58.9656 34.5357 58.7846 34.5935 58.57C34.6696 58.2825 34.4992 57.9873 34.2116 57.9112C34.0017 57.8549 33.7886 57.931 33.6593 58.0862C33.6593 58.0831 33.6563 58.0786 33.6547 58.0755C33.6243 57.9994 33.6319 57.8884 33.6715 57.8062C33.6745 57.8001 33.6776 57.794 33.6791 57.788C33.7369 57.6541 33.8449 57.5567 34.0001 57.5004C34.2344 57.4152 34.5403 57.438 34.7807 57.5582C35.1748 57.7545 35.3497 58.0923 35.4258 58.3403C35.5643 58.7876 35.5064 59.3277 35.2737 59.7492C34.9039 60.4126 34.3136 60.6926 33.883 60.8097C33.1268 61.0166 32.2595 60.898 31.5672 60.4963C30.3774 59.7872 29.6881 58.3753 29.8129 56.8979C29.8372 56.6012 29.6181 56.341 29.3214 56.3166C29.0247 56.2908 28.7645 56.5114 28.7402 56.8081C28.582 58.6933 29.4751 60.5039 31.0225 61.4259C31.657 61.7957 32.398 61.9874 33.1298 61.9874C33.4828 61.9874 33.8343 61.9417 34.1705 61.8504C35.0606 61.607 35.7864 61.0471 36.2185 60.2741C36.5943 59.594 36.6841 58.7526 36.4589 58.0238C36.2626 57.3908 35.8397 56.8842 35.266 56.5981L35.2615 56.5951Z" fill="#645050"/>
<path d="M6.19738 44.3375C5.27838 44.3375 4.52979 45.0846 4.52979 46.0036C4.52979 46.6609 4.9056 47.2299 5.45183 47.5069C5.67702 47.621 5.92807 47.6864 6.19586 47.6864C6.31758 47.6864 6.43626 47.6727 6.55038 47.6484C7.3081 47.4856 7.87715 46.81 7.87715 46.0036C7.87715 45.0846 7.12247 44.3375 6.19586 44.3375H6.19738ZM6.34801 46.5894C6.29932 46.6016 6.25063 46.6107 6.19738 46.6107C6.14413 46.6107 6.09544 46.6016 6.04827 46.5894C5.79265 46.5224 5.60855 46.2912 5.60855 46.0051C5.60855 45.6795 5.8733 45.4148 6.1989 45.4148C6.52451 45.4148 6.80295 45.6841 6.80295 46.0051C6.80295 46.2866 6.60972 46.5224 6.34801 46.5894Z" fill="#645050"/>
<path d="M43.5235 46.0661C43.5235 46.9075 44.1397 47.6043 44.94 47.726C45.0222 47.7382 45.1044 47.7473 45.1896 47.7473C45.4908 47.7473 45.7723 47.6667 46.0158 47.5282C46.5255 47.2392 46.8709 46.6929 46.8709 46.0661C46.8709 45.1394 46.1162 44.3848 45.1896 44.3848C44.263 44.3848 43.522 45.1394 43.522 46.0661H43.5235ZM45.1911 45.462C45.5243 45.462 45.7951 45.7328 45.7951 46.0661C45.7951 46.3019 45.6582 46.5027 45.4619 46.6032C45.3798 46.6442 45.2885 46.6701 45.1896 46.6701C45.1241 46.6701 45.0618 46.6564 45.0024 46.6366C44.7696 46.556 44.5992 46.3323 44.5992 46.0661C44.5992 45.7328 44.864 45.462 45.1896 45.462H45.1911Z" fill="#645050"/>
</g>
<defs>
<clipPath id="clip0_1853_200">
<rect width="60" height="68.2741" fill="white" transform="translate(0 0.862915)"/>
</clipPath>
</defs>
</svg>
