<svg width="224" height="53" viewBox="0 0 224 53" fill="none" xmlns="http://www.w3.org/2000/svg">
<g clip-path="url(#clip0_1764_1623)">
<path d="M116.674 34.8753C116.359 34.8753 116.122 34.8693 115.977 34.8572C115.595 34.8208 115.311 34.4818 115.347 34.0944C115.383 33.713 115.722 33.4285 116.11 33.4648C118.133 33.6585 145.836 31.8727 154.82 30.3169C173.52 27.0782 187.738 23.2159 200.932 17.7797C203.676 16.6477 206.366 15.2372 208.964 13.869C209.673 13.4998 210.382 13.1244 211.091 12.7552C211.436 12.5796 211.854 12.7128 212.03 13.0518C212.205 13.3968 212.072 13.8146 211.733 13.9901C211.024 14.3533 210.321 14.7287 209.613 15.0979C206.984 16.4782 204.264 17.9068 201.459 19.0631C188.168 24.5356 173.853 28.4342 155.05 31.685C146.738 33.1258 121.683 34.8693 116.667 34.8693L116.674 34.8753Z" fill="#645050"/>
<path d="M121.156 33.5616C120.781 33.5616 120.472 33.2589 120.46 32.8836C120.326 28.0103 122.871 23.2824 125.027 20.1769C127.578 16.5084 131.109 12.9548 134.465 10.6847C137.082 8.91703 140.263 7.82737 143.316 6.91326C143.364 6.90115 143.437 6.87694 143.522 6.84667C145.036 6.35027 145.902 6.16866 146.423 6.53188C146.654 6.68928 146.787 6.94353 146.793 7.222C146.805 7.60944 146.502 7.93028 146.114 7.94239C145.909 7.94239 145.733 7.86974 145.606 7.74262C145.381 7.76683 144.921 7.86369 143.952 8.17848C143.849 8.2148 143.764 8.23902 143.71 8.25718C140.771 9.14102 137.706 10.1823 135.241 11.847C129.54 15.6972 121.623 24.7595 121.847 32.8472C121.859 33.2347 121.556 33.5555 121.168 33.5616C121.162 33.5616 121.156 33.5616 121.15 33.5616H121.156Z" fill="#645050"/>
<path d="M123.071 34.0096C122.374 34.0096 121.714 33.9007 121.132 33.6282C120.781 33.4648 120.629 33.0531 120.793 32.702C120.956 32.3509 121.368 32.1996 121.72 32.363C123.361 33.1258 126.293 32.018 128.232 31.2855C128.498 31.1826 128.747 31.0918 128.971 31.007C136.325 28.3313 141.753 19.5292 144.17 12.8096C144.739 11.2296 145.236 8.95948 145.412 7.14943C145.448 6.76805 145.787 6.48353 146.175 6.51985C146.557 6.55617 146.842 6.89518 146.805 7.28261C146.623 9.19558 146.09 11.6049 145.485 13.2818C142.843 20.6189 137.246 29.4754 129.45 32.3146C129.225 32.3933 128.983 32.4902 128.723 32.587C127.142 33.1863 124.973 34.0096 123.065 34.0096H123.071Z" fill="#645050"/>
<path d="M154.777 30.9404C154.402 30.9404 154.093 30.6378 154.08 30.2624C154.032 28.4766 154.614 26.8663 155.183 25.3045C155.371 24.7899 155.559 24.2572 155.722 23.7365C158.787 13.9538 164.397 7.48241 173.92 2.76659L174.513 2.46996C176.585 1.44083 178.724 0.36933 181.11 0.00610881C181.492 -0.0483743 181.85 0.211934 181.904 0.587262C181.965 0.968644 181.698 1.32581 181.322 1.3803C179.148 1.71325 177.106 2.73027 175.137 3.71702L174.544 4.01365C165.39 8.54786 159.999 14.7589 157.055 24.1482C156.879 24.6991 156.685 25.2439 156.491 25.7706C155.946 27.278 155.431 28.7006 155.474 30.214C155.486 30.6014 155.183 30.9223 154.795 30.9283C154.789 30.9283 154.783 30.9283 154.777 30.9283V30.9404Z" fill="#645050"/>
<path d="M155.625 31.007C155.286 31.007 154.989 30.7588 154.935 30.4138C154.874 30.0324 155.141 29.6752 155.516 29.6207C157.134 29.3725 158.842 28.2829 160.357 27.3143C160.726 27.0782 161.084 26.8481 161.435 26.6363C167.462 22.9677 172.006 18.3427 177.125 10.6788C178.354 8.84449 179.433 4.78852 180.081 2.36705C180.275 1.63455 180.426 1.05945 180.547 0.684125C180.662 0.31485 181.056 0.115079 181.426 0.230099C181.795 0.345119 181.995 0.738608 181.88 1.10788C181.771 1.45294 181.614 2.04015 181.432 2.72422C180.765 5.23044 179.645 9.42564 178.288 11.4536C173.048 19.3053 168.377 24.0453 162.162 27.8288C161.823 28.0347 161.471 28.2587 161.108 28.4887C159.484 29.5299 157.637 30.7043 155.728 30.9949C155.692 30.9949 155.656 31.001 155.619 31.001L155.625 31.007Z" fill="#645050"/>
<path d="M153.747 52.3946C153.541 52.3946 153.341 52.3038 153.202 52.1343C152.693 51.5047 152.178 50.8388 151.682 50.191C150.44 48.5747 149.161 46.9099 147.732 45.5479C143.195 41.2255 136.555 38.0534 129.025 36.6126C128.492 36.5097 127.59 36.2736 126.548 36.0012C125.009 35.6017 122.222 34.8752 121.411 34.8752C121.405 34.8752 121.398 34.8752 121.392 34.8752C121.247 34.9902 121.059 35.0447 120.865 35.0145C120.484 34.96 120.217 34.6089 120.272 34.2275C120.302 33.9974 120.429 33.7977 120.629 33.6645C121.199 33.2831 122.374 33.4708 126.905 34.6512C127.929 34.9176 128.807 35.1476 129.292 35.2384C137.076 36.7277 143.97 40.0269 148.695 44.5309C150.203 45.9656 151.518 47.6788 152.79 49.3314C153.305 50.0034 153.79 50.633 154.286 51.2504C154.529 51.5531 154.48 51.989 154.183 52.2311C154.056 52.334 153.899 52.3885 153.747 52.3885V52.3946Z" fill="#645050"/>
<path d="M147.072 53C146.423 53 145.769 52.9698 145.103 52.8971C141.099 52.4734 131.188 50.8389 125.633 44.8276C123.325 42.3334 121.877 38.4591 120.72 35.3535L120.55 34.8995C120.417 34.5363 120.599 34.1368 120.962 34.0036C121.326 33.8704 121.726 34.052 121.859 34.4152L122.029 34.8693C123.149 37.8658 124.537 41.5949 126.663 43.8892C131.897 49.5494 141.408 51.1113 145.254 51.5229C147.459 51.759 149.513 51.5108 151.894 51.2203C152.469 51.1537 153.063 51.081 153.675 51.0144C154.056 50.972 154.402 51.2505 154.444 51.6319C154.486 52.0133 154.208 52.3583 153.826 52.4007C153.22 52.4673 152.633 52.54 152.063 52.6065C150.3 52.8184 148.713 53.0121 147.084 53.0121L147.072 53Z" fill="#645050"/>
<path d="M191.173 40.3539C190.967 40.3539 190.767 40.2631 190.628 40.0936C185.581 33.8462 171.121 31.3823 162.477 31.6305C161.75 31.6487 161.023 31.6305 160.314 31.6063C158.606 31.5518 156.994 31.5034 155.462 32.0119C155.092 32.133 154.699 31.9332 154.577 31.57C154.456 31.2068 154.656 30.8072 155.02 30.6861C156.789 30.0989 158.606 30.1534 160.357 30.2079C161.041 30.2321 161.756 30.2503 162.434 30.2321C170.764 29.996 186.066 32.2238 191.712 39.2158C191.954 39.5185 191.906 39.9543 191.609 40.1965C191.482 40.2994 191.324 40.3539 191.173 40.3539Z" fill="#645050"/>
<path d="M178.56 42.3878C170.231 42.3878 161.344 40.711 154.632 32.4114C154.389 32.1087 154.438 31.6728 154.735 31.4307C155.038 31.1885 155.474 31.237 155.716 31.5336C162.992 40.5354 173.102 41.3224 182.025 40.9047C182.243 40.8926 182.48 40.8865 182.728 40.8744C185.09 40.7776 189.046 40.6141 190.718 39.2702C191.021 39.0281 191.457 39.0765 191.7 39.3731C191.942 39.6758 191.893 40.1117 191.597 40.3538C189.567 41.9944 185.49 42.1578 182.788 42.2668C182.54 42.2789 182.31 42.2849 182.092 42.297C180.929 42.3515 179.753 42.3878 178.56 42.3878Z" fill="#645050"/>
<path d="M184.43 24.3116C184.388 24.3116 184.339 24.3116 184.291 24.2994C183.915 24.2268 183.667 23.8575 183.74 23.4761C184.17 21.321 186.859 19.3717 189.028 17.8099C189.676 17.3438 190.288 16.9018 190.7 16.5447C196.322 11.7259 204.857 8.38431 214.731 7.13726C215.458 7.04645 216.294 6.87089 217.173 6.68928C219.214 6.26553 221.534 5.78728 223.376 6.15656C223.752 6.2292 224 6.59848 223.927 6.97986C223.855 7.35519 223.485 7.60339 223.103 7.53074C221.534 7.22201 219.366 7.66998 217.451 8.06347C216.543 8.25113 215.683 8.42669 214.901 8.5296C205.293 9.74034 197.024 12.967 191.603 17.6101C191.142 18.0036 190.506 18.4637 189.834 18.948C187.974 20.2919 185.424 22.1383 185.103 23.7546C185.036 24.0876 184.745 24.3176 184.418 24.3176L184.43 24.3116Z" fill="#645050"/>
<path d="M191.579 26.8057C189.386 26.8057 187.774 26.4485 185.933 26.0369C185.333 25.9037 184.709 25.7644 184.031 25.6313C183.655 25.5586 183.407 25.1893 183.479 24.814C183.552 24.4387 183.922 24.1905 184.297 24.2631C184.994 24.4024 185.624 24.5416 186.236 24.6748C188.223 25.1167 189.792 25.4678 192.112 25.4012C204.985 25.0501 211.103 18.6453 218.845 10.5455C220.111 9.21972 221.426 7.84554 222.807 6.4653C223.079 6.19288 223.522 6.19288 223.794 6.4653C224.067 6.73771 224.067 7.17963 223.794 7.45205C222.425 8.82623 221.117 10.1883 219.857 11.5141C212.206 19.517 205.603 26.4303 192.148 26.7996C191.954 26.7996 191.76 26.8057 191.573 26.8057H191.579Z" fill="#645050"/>
<path d="M155.801 30.9464C155.722 30.9464 155.649 30.9343 155.571 30.9101C155.207 30.783 155.013 30.3834 155.141 30.0202C155.88 27.9135 165.675 13.651 172.436 8.81415C172.751 8.59016 173.187 8.66281 173.411 8.9776C173.635 9.29239 173.562 9.72826 173.247 9.95224C166.832 14.5349 157.146 28.5068 156.455 30.4803C156.352 30.7709 156.086 30.9464 155.795 30.9464H155.801Z" fill="#645050"/>
<path d="M121.526 33.6948C121.405 33.6948 121.277 33.6645 121.162 33.5919C120.835 33.3921 120.726 32.9623 120.926 32.6354C127.032 22.556 133.193 17.9734 136.149 15.7699C136.349 15.6246 136.531 15.4853 136.701 15.3582C137.01 15.1282 137.446 15.1887 137.676 15.4974C137.906 15.8062 137.846 16.242 137.537 16.4721C137.367 16.6053 137.179 16.7384 136.979 16.8898C134.09 19.0388 128.08 23.5186 122.113 33.3619C121.98 33.5798 121.75 33.7009 121.514 33.7009L121.526 33.6948Z" fill="#645050"/>
<path d="M178.536 38.6406C178.506 38.6406 178.469 38.6406 178.439 38.6346C178.118 38.5922 177.748 38.5559 177.318 38.5195C174.489 38.2653 169.219 37.7931 155.977 32.369C155.619 32.2237 155.45 31.8181 155.595 31.4609C155.74 31.1038 156.146 30.9343 156.504 31.0796C169.552 36.425 174.683 36.885 177.446 37.1332C177.894 37.1756 178.282 37.2059 178.633 37.2604C179.015 37.3149 179.281 37.666 179.227 38.0474C179.178 38.3985 178.881 38.6467 178.536 38.6467V38.6406Z" fill="#645050"/>
<path d="M143.152 48.9319C143.056 48.9319 142.965 48.9137 142.868 48.8714C142.335 48.6353 141.65 48.4173 140.857 48.1691C137.064 46.9705 130.722 44.9667 121.902 35.5956C121.635 35.3172 121.653 34.8753 121.932 34.6089C122.211 34.3425 122.653 34.3607 122.919 34.6392C131.491 43.7439 137.616 45.6811 141.275 46.8373C142.111 47.1037 142.831 47.3277 143.431 47.594C143.782 47.7514 143.946 48.1631 143.789 48.5142C143.673 48.7745 143.419 48.9319 143.152 48.9319Z" fill="#645050"/>
<path d="M107.327 34.8753C102.311 34.8753 77.2616 33.1318 68.9443 31.691C50.1408 28.4342 35.8262 24.5416 22.5353 19.0691C19.7305 17.9129 17.0166 16.4842 14.3875 15.104C13.6788 14.7347 12.9761 14.3593 12.2673 13.9961C11.922 13.8206 11.7887 13.3968 11.9705 13.0578C12.1461 12.7127 12.5702 12.5796 12.9094 12.7612C13.6182 13.1305 14.327 13.4997 15.0357 13.8751C17.6345 15.2432 20.3242 16.6537 23.0684 17.7857C36.2623 23.2219 50.4861 27.0902 69.1805 30.3229C78.1582 31.8787 105.867 33.6645 107.89 33.4708C108.278 33.4345 108.617 33.713 108.653 34.1004C108.69 34.4818 108.411 34.8269 108.023 34.8632C107.878 34.8753 107.642 34.8813 107.327 34.8813V34.8753Z" fill="#645050"/>
<path d="M102.844 33.5616C102.844 33.5616 102.832 33.5616 102.826 33.5616C102.438 33.5495 102.135 33.2286 102.147 32.8472C102.371 24.7595 94.4537 15.6971 88.7533 11.847C86.2878 10.1822 83.2286 9.13496 80.2845 8.25717C80.2299 8.23901 80.1512 8.2148 80.0422 8.17847C79.079 7.86368 78.6125 7.76682 78.3884 7.74261C78.2551 7.86974 78.0794 7.94843 77.8795 7.94238C77.4918 7.93027 77.1889 7.60943 77.201 7.22199C77.2071 6.94352 77.3464 6.69532 77.5706 6.53187C78.0915 6.1626 78.9578 6.35026 80.4723 6.84666C80.5631 6.87693 80.6358 6.90115 80.6782 6.91325C83.7253 7.82736 86.9117 8.91702 89.5287 10.6847C92.8908 12.9548 96.4164 16.5023 98.9668 20.1769C101.123 23.2824 103.668 28.0103 103.534 32.8836C103.522 33.2649 103.213 33.5616 102.838 33.5616H102.844Z" fill="#645050"/>
<path d="M100.929 34.0096C99.0272 34.0096 96.8524 33.1863 95.2713 32.5869C95.0108 32.4901 94.7685 32.3993 94.5444 32.3145C86.748 29.4754 81.1506 20.6188 78.5093 13.2817C77.9036 11.6049 77.3765 9.19551 77.1887 7.28255C77.1524 6.90117 77.4311 6.55611 77.8188 6.51979C78.2004 6.48346 78.5457 6.76193 78.582 7.14937C78.7577 8.95337 79.2545 11.2296 79.8239 12.8096C82.241 19.5292 87.6688 28.3252 95.023 31.0069C95.2532 31.0917 95.5015 31.1825 95.762 31.2854C97.7005 32.0179 100.626 33.1318 102.274 32.363C102.626 32.1995 103.037 32.3509 103.201 32.702C103.365 33.0531 103.213 33.4647 102.862 33.6282C102.28 33.9006 101.62 34.0096 100.923 34.0096H100.929Z" fill="#645050"/>
<path d="M69.2226 30.9404C69.2226 30.9404 69.2105 30.9404 69.2044 30.9404C68.8167 30.9282 68.5138 30.6074 68.5259 30.226C68.5683 28.7065 68.0534 27.2839 67.5082 25.7826C67.3144 25.2559 67.1205 24.7111 66.9448 24.1602C64.0068 14.771 58.6093 8.55989 49.4559 4.02568L48.8623 3.72905C46.8874 2.7423 44.8459 1.72528 42.6772 1.39233C42.2956 1.33179 42.0351 0.974624 42.0957 0.599295C42.1562 0.217913 42.5137 -0.0423953 42.8892 0.0181415C45.276 0.387416 47.4205 1.45286 49.4862 2.48199L50.0799 2.77862C59.6028 7.49444 65.2123 13.9658 68.2776 23.7486C68.4411 24.2692 68.635 24.8019 68.8167 25.3165C69.3801 26.8783 69.9677 28.4947 69.9192 30.2744C69.9071 30.6558 69.5982 30.9525 69.2226 30.9525V30.9404Z" fill="#645050"/>
<path d="M68.3747 31.007C68.3383 31.007 68.302 31.007 68.2656 31.0009C66.3574 30.7103 64.5159 29.5299 62.8863 28.4947C62.5289 28.2646 62.1775 28.0406 61.8322 27.8348C55.6169 24.0513 50.9463 19.3112 45.7063 11.4596C44.3494 9.43163 43.2347 5.23642 42.5623 2.7302C42.3806 2.04613 42.2231 1.45892 42.114 1.11386C41.9989 0.74459 42.1988 0.357154 42.5684 0.23608C42.9379 0.12106 43.3256 0.320832 43.4468 0.690107C43.5679 1.06544 43.7194 1.64053 43.9132 2.36698C44.5614 4.78845 45.6397 8.84442 46.8694 10.6787C51.9883 18.3426 56.5316 22.9677 62.5592 26.6362C62.9045 26.8481 63.2679 27.0781 63.6375 27.3142C65.1459 28.2767 66.8602 29.3725 68.4777 29.6207C68.8593 29.6812 69.1198 30.0323 69.0592 30.4137C69.0047 30.7588 68.7079 31.007 68.3686 31.007H68.3747Z" fill="#645050"/>
<path d="M70.2524 52.3946C70.1009 52.3946 69.9434 52.3462 69.8162 52.2372C69.5133 51.9951 69.4709 51.5531 69.7132 51.2565C70.21 50.639 70.6946 50.0095 71.2095 49.3375C72.4817 47.6788 73.7962 45.9656 75.3046 44.5309C80.0297 40.0269 86.9235 36.7216 94.7078 35.2385C95.1924 35.1477 96.0769 34.9176 97.0946 34.6513C101.626 33.4708 102.801 33.2892 103.37 33.6645C103.57 33.7977 103.698 33.9975 103.728 34.2275C103.782 34.6089 103.516 34.96 103.134 35.0145C102.94 35.0387 102.753 34.9842 102.607 34.8752C102.601 34.8752 102.595 34.8752 102.589 34.8752C101.777 34.8752 98.9907 35.6017 97.452 36.0012C96.404 36.2736 95.5014 36.5097 94.9743 36.6126C87.4505 38.0534 80.8051 41.2256 76.2678 45.5479C74.8381 46.91 73.5539 48.5747 72.3181 50.1911C71.8213 50.8388 71.3064 51.5047 70.7976 52.1343C70.6582 52.3038 70.4583 52.3946 70.2524 52.3946Z" fill="#645050"/>
<path d="M76.9343 53.0001C75.3048 53.0001 73.7176 52.8063 71.9548 52.5945C71.3854 52.5279 70.7978 52.4552 70.192 52.3886C69.8103 52.3463 69.5317 52.0012 69.5741 51.6198C69.6165 51.2384 69.9618 50.96 70.3434 51.0023C70.9553 51.0689 71.5489 51.1416 72.1244 51.2082C74.5052 51.4927 76.5588 51.7409 78.7638 51.5108C82.6105 51.1052 92.1213 49.5434 97.3553 43.8772C99.4755 41.5828 100.869 37.8537 101.989 34.8572L102.159 34.4031C102.292 34.0399 102.698 33.8583 103.056 33.9915C103.419 34.1247 103.601 34.5303 103.468 34.8874L103.298 35.3415C102.135 38.4531 100.693 42.3214 98.3851 44.8215C92.8301 50.8328 82.9195 52.4673 78.9153 52.8911C78.2428 52.9637 77.5886 52.994 76.9465 52.994L76.9343 53.0001Z" fill="#645050"/>
<path d="M32.8276 40.3539C32.6761 40.3539 32.5186 40.3055 32.3914 40.1965C32.0885 39.9543 32.0461 39.5124 32.2884 39.2158C37.9343 32.2298 53.2424 29.996 61.5659 30.2321C62.2504 30.2503 62.9592 30.2321 63.6437 30.2079C65.4005 30.1534 67.2118 30.0929 68.9806 30.6861C69.3441 30.8072 69.544 31.2007 69.4229 31.57C69.3017 31.9332 68.9079 32.133 68.5384 32.0119C67.0058 31.5034 65.3883 31.5518 63.6861 31.6063C62.9773 31.6305 62.2443 31.6487 61.5235 31.6305C52.8729 31.3884 38.4189 33.8522 33.3728 40.0936C33.2334 40.2631 33.0335 40.3539 32.8276 40.3539Z" fill="#645050"/>
<path d="M45.4396 42.3879C44.2462 42.3879 43.0709 42.3516 41.9078 42.2971C41.6898 42.285 41.4596 42.279 41.2112 42.2669C38.5094 42.1579 34.4325 41.9884 32.4031 40.3539C32.1002 40.1118 32.0578 39.6698 32.3001 39.3732C32.5425 39.0705 32.9847 39.0281 33.2815 39.2703C34.9535 40.6203 38.9092 40.7777 41.2718 40.8745C41.5201 40.8866 41.7564 40.8927 41.9745 40.9048C50.8976 41.3225 61.0021 40.5355 68.2836 31.5337C68.5259 31.231 68.9681 31.1886 69.265 31.4308C69.5678 31.6729 69.6103 32.1148 69.3679 32.4115C62.6559 40.7111 53.7691 42.3879 45.4396 42.3879Z" fill="#645050"/>
<path d="M39.5698 24.3116C39.2427 24.3116 38.9519 24.0816 38.8853 23.7486C38.5642 22.1323 36.0139 20.2859 34.1541 18.942C33.4817 18.4577 32.8517 17.9976 32.3852 17.6042C26.9696 12.961 18.6946 9.73437 9.08687 8.52363C8.30541 8.42677 7.4452 8.24516 6.53653 8.0575C4.62226 7.66401 2.45356 7.21604 0.88458 7.52477C0.508996 7.59742 0.139469 7.35527 0.060717 6.97389C-0.0119768 6.59856 0.230336 6.22929 0.611979 6.15059C2.45356 5.78737 4.7737 6.26561 6.81519 6.68331C7.69963 6.86492 8.53561 7.04048 9.25649 7.13128C19.1307 8.37834 27.6662 11.72 33.2879 16.5387C33.7058 16.8959 34.3177 17.3378 34.9659 17.8039C37.1285 19.3658 39.8242 21.3151 40.2483 23.4702C40.321 23.8455 40.0787 24.2148 39.697 24.2935C39.6486 24.3056 39.6062 24.3056 39.5577 24.3056L39.5698 24.3116Z" fill="#645050"/>
<path d="M32.4216 26.8057C32.2338 26.8057 32.046 26.8057 31.8461 26.7996C18.3977 26.4303 11.7887 19.517 4.13764 11.5141C2.87761 10.1944 1.56912 8.82623 0.200057 7.45205C-0.072545 7.17963 -0.072545 6.73771 0.200057 6.4653C0.472659 6.19288 0.91488 6.19288 1.18748 6.4653C2.56866 7.85159 3.87715 9.21972 5.14324 10.5455C12.8851 18.6453 19.0035 25.0441 31.8764 25.4012C34.1905 25.4618 35.7655 25.1167 37.7525 24.6748C38.3643 24.5416 38.9883 24.3963 39.691 24.2631C40.0666 24.1905 40.4361 24.4326 40.5148 24.814C40.5875 25.1893 40.3452 25.5586 39.9636 25.6313C39.2791 25.7644 38.6612 25.9037 38.0614 26.0369C36.2199 26.4485 34.6085 26.8057 32.4155 26.8057H32.4216Z" fill="#645050"/>
<path d="M68.1988 30.9464C67.908 30.9464 67.6415 30.7648 67.5385 30.4803C66.8479 28.5068 57.1615 14.5349 50.7462 9.95224C50.4312 9.72826 50.3585 9.29239 50.5827 8.9776C50.8068 8.66281 51.243 8.59016 51.558 8.81415C58.3246 13.645 68.114 27.9075 68.8531 30.0202C68.9803 30.3834 68.7864 30.783 68.423 30.9101C68.3442 30.9343 68.2715 30.9464 68.1928 30.9464H68.1988Z" fill="#645050"/>
<path d="M102.474 33.6948C102.238 33.6948 102.008 33.5737 101.874 33.3558C95.9074 23.5125 89.898 19.0327 87.0084 16.8837C86.8085 16.7323 86.6207 16.5931 86.4511 16.466C86.1422 16.2359 86.0816 15.794 86.3118 15.4913C86.542 15.1826 86.9842 15.1221 87.2871 15.3521C87.4567 15.4792 87.6445 15.6185 87.8384 15.7638C90.7946 17.9673 96.9554 22.556 103.062 32.6293C103.262 32.9562 103.159 33.386 102.825 33.5858C102.71 33.6524 102.589 33.6887 102.462 33.6887L102.474 33.6948Z" fill="#645050"/>
<path d="M45.4638 38.6407C45.1185 38.6407 44.8217 38.3864 44.7732 38.0414C44.7187 37.66 44.9852 37.3089 45.3669 37.2544C45.7243 37.206 46.1059 37.1696 46.5542 37.1273C49.3105 36.8791 54.4415 36.419 67.49 31.0736C67.8474 30.9283 68.2533 31.0978 68.3987 31.455C68.5441 31.8121 68.3745 32.2177 68.017 32.363C54.7686 37.7871 49.5043 38.2593 46.6753 38.5136C46.2452 38.5499 45.8757 38.5862 45.5546 38.6286C45.5244 38.6286 45.488 38.6346 45.4577 38.6346L45.4638 38.6407Z" fill="#645050"/>
<path d="M80.8475 48.9319C80.5809 48.9319 80.3265 48.7745 80.2114 48.5142C80.0539 48.1631 80.2114 47.7514 80.5688 47.594C81.1685 47.3277 81.8894 47.0976 82.7254 46.8373C86.3843 45.6811 92.5088 43.7439 101.081 34.6392C101.347 34.3607 101.789 34.3425 102.068 34.6089C102.347 34.8753 102.365 35.3172 102.098 35.5956C93.2781 44.9607 86.9356 46.9705 83.1434 48.1691C82.3498 48.4234 81.6653 48.6353 81.1322 48.8714C81.0413 48.9137 80.9444 48.9319 80.8475 48.9319Z" fill="#645050"/>
</g>
<defs>
<clipPath id="clip0_1764_1623">
<rect width="224" height="53" fill="white"/>
</clipPath>
</defs>
</svg>
